<mxfile host="app.diagrams.net" agent="Mozilla/5.0 (Macintosh; Intel Mac OS X 10_15_7) AppleWebKit/537.36 (KHTML, like Gecko) Chrome/134.0.0.0 Safari/537.36" version="24.8.0" pages="3">
  <diagram name="Replication" id="hH8HiofOrjkrBL1Pe-_L">
    <mxGraphModel dx="2261" dy="819" grid="1" gridSize="10" guides="1" tooltips="1" connect="1" arrows="1" fold="1" page="1" pageScale="1" pageWidth="827" pageHeight="1169" math="0" shadow="0">
      <root>
        <mxCell id="0" />
        <mxCell id="1" parent="0" />
        <mxCell id="FX5OmkcN8bD2J4cv3eW1-1" value="" style="shape=image;imageAspect=0;aspect=fixed;verticalLabelPosition=bottom;verticalAlign=top;image=data:image/svg+xml,PHN2ZyB4bWxucz0iaHR0cDovL3d3dy53My5vcmcvMjAwMC9zdmciIGZpbGw9Im5vbmUiIGhlaWdodD0iNTA3IiB3aWR0aD0iNjIwIiB2aWV3Qm94PSIwIDAgNjIwIDUwNyI+PHBhdGggZD0iTTAgMGg2MjB2NTA3SDB6IiBmaWxsPSIjZmZmIi8+PHBhdGggZD0iTTI0OC42IDI4MXYtMjQuNmg3LjdxMy42IDAgNS42IDIgMi4xIDEuOCAyLjEgNSAwIDIuMS0xIDMuOGE1LjkgNS45IDAgMCAxLTMgMi40cS0xLjguNy01LjMuN0gyNTJWMjgxaC0zLjV6bTcuMS0yMS41aC0zLjZ2Ny43aDMuOHEyLjIgMCAzLjMtMSAxLjItMSAxLjItMi45IDAtMy44LTQuNy0zLjhtMTMuMyA1LjN2My43bC4yLS4ycTIuNC0zLjggNC43LTMuOCAxLjggMCAzLjggMS44bC0xLjcgMi45cS0xLjctMS42LTMuMS0xLjYtMS42IDAtMi43IDEuNC0xLjEgMS41LTEuMSAzLjV2OC41aC0zLjJ2LTE2LjJoMy4yem0xMi42LTYuOHEuOCAwIDEuMy42LjYuNS42IDEuM3QtLjYgMS4zcS0uNS42LTEuMy42dC0xLjMtLjZxLS42LS41LS42LTEuMyAwLS43LjYtMS4zLjUtLjYgMS4zLS42bS0xLjYgNi44aDMuMlYyODFIMjgwem0yMSA0LjVWMjgxaC0zLjJ2LTlxMC0yLjctLjctMy43LS43LTEuMS0yLjUtMS4xLTEgMC0xLjkuNC0uOC41LTEuOSAxLjdWMjgxaC0zLjJ2LTE2LjJoMy4ydjIuMnEyLjUtMi41IDQuOC0yLjUgMy4xIDAgNC44IDMgMi42LTMgNS40LTMgMi4zIDAgMy44IDEuNyAxLjYgMS43IDEuNiA1LjN2OS41SDMwOHYtOS42cTAtMi0uOS0zLS44LTEuMS0yLjMtMS4xLTIgMC0zLjggMm0yNC43IDJ2Ni45cTAgLjguNS44LjYgMCAxLjgtLjl2MmwtMS43IDEtMS40LjJxLTIgMC0yLjQtMS42LTIgMS41LTQuNCAxLjUtMS43IDAtMi44LTEtMS4xLTEuMi0xLjEtMi45IDAtMS41IDEtMi43IDEuMi0xLjIgMy4yLTJsNC4xLTEuM3YtLjlxMC0yLjktMy0yLjktMi41IDAtNSAyLjd2LTMuNXExLjktMi4yIDUuNC0yLjIgMi42IDAgNC4yIDEuNC41LjQuOSAxLjIuNC43LjUgMS40LjIuNy4yIDIuOG0tMy4yIDYuNVYyNzNsLTIuMS44cS0xLjcuNy0yLjQgMS4zLS42LjctLjYgMS43dC42IDEuNnEuNy42IDEuNy42IDEuNSAwIDIuOC0xLjJtMTEuOC0xM3YzLjdsLjItLjJxMi4zLTMuOCA0LjYtMy44IDEuOCAwIDMuOCAxLjhsLTEuNyAyLjlxLTEuNi0xLjYtMy0xLjYtMS42IDAtMi44IDEuNC0xIDEuNS0xIDMuNXY4LjVIMzMxdi0xNi4yaDMuM20yMS44IDBoMy42bC0xMS40IDI0LjRoLTMuNmw1LjUtMTEuNy02LjItMTIuN2gzLjZsNC40IDkuMnoiIGZpbGw9IiNGRkZGRkUiLz48cGF0aCBkPSJNMTUxLjgwMSAxMDYuMmMwIDIuMiAxLjEgNCAyLjUgNGgzMDIuNWMxLjMgMCAyLjUtMS44IDIuNS00VjE0YzAtMi4yLTEuMi00LTIuNS00aC0zMDIuNWMtMS40IDAtMi41IDEuOC0yLjUgNHY5MiIgZmlsbD0iIzQ4NDc0MyIvPjxwYXRoIGQ9Ik0yMDAuMjk5IDQwLjFWNDRxLTMuOCAyLjEtOSAyLjEtMy45OTkgMC02LjktMS42LTIuOS0xLjctNC41LTQuNmExMi4yNCAxMi4yNCAwIDAgMS0xLjctNi4zcTAtNS4zIDMuOC05IDMuOS0zLjYgOS41LTMuNiAzLjggMCA4LjYgMnYzLjhxLTQuMy0yLjUtOC41LTIuNXQtNyAyLjdxLTIuOCAyLjYtMi44IDYuNnQyLjggNi43cTIuNyAyLjYgNyAyLjYgNC41IDAgOC43LTIuOG00LTE4LjhoMy4ydjI0LjVoLTMuMnptOS41IDEuNnEuOCAwIDEuNC41dC42IDEuMy0uNiAxLjRxLS42LjUtMS40LjUtLjcgMC0xLjMtLjUtLjUtLjYtLjUtMS40IDAtLjcuNS0xLjMuNi0uNSAxLjMtLjVtLTEuNSA2LjhoMy4ydjE2LjFoLTMuMnptMjEuNSA4LjNoLTExLjNxMCAyLjMgMS41IDMuN3QzLjcgMS40cTMuMiAwIDUuOS0ydjMuMXEtMS41IDEtMyAxLjUtMS40LjQtMy40LjQtMi42IDAtNC4zLTEuMS0xLjYtMS4xLTIuNi0zdC0xLTQuM3EwLTMuNyAyLTYgMi4yLTIuNCA1LjUtMi40IDMuMjAxIDAgNS4xIDIuMyAyIDIuMiAyIDZ2LjR6bS0xMS4zLTEuOWg4LjJxLS4wOTktMi0xLjItMy0uOTk5LTEtMi43LTEtMS43IDAtMi44IDF0LTEuNSAzbTE4LTYuNHYycTIuMS0yLjQgNC45LTIuNCAxLjUgMCAyLjguOGE1LjMgNS4zIDAgMCAxIDIgMi4ycS42IDEuMy42IDQuM3Y5LjJoLTMuMnYtOS4ycTAtMi41LS43LTMuNS0uOC0xLTIuNi0xLTIuMiAwLTMuOCAyLjJ2MTEuNWgtMy4zVjI5Ljd6bTEyLjUgMi41IDYtNS45djMuNGg1LjF2Mi44aC01djhxMCAyLjcgMi4yIDIuNyAxLjggMCAzLjctMS4xdjNhOC41IDguNSAwIDAgMS00IDFxLTIuMiAwLTMuNy0xLjNsLS44LS44cS0uMy0uNS0uNS0xLjN0LS4yLTN2LTcuMmgtMi44em0yNy41LTExLjFoMi41bDExIDI0LjdoLTMuNmwtMy4zLTcuMmgtMTAuNGwtMy4xIDcuMmgtMy42em01LjIgMTQuMy00LTguOS0zLjcgOWg3Ljd6bTEwLjMgMTguNlYyOS44aDUuN3E0LjMgMCA2LjcgMi4xdDIuNCA2cTAgMy42LTIuMyA2LTIuMTk5IDIuMy01LjcgMi4zLTEuNiAwLTMuNS0uN3Y4LjdoLTMuMnptNS42LTIxLjRoLTIuM3YxMHExLjUuOCAzLjEuOCAyLjMgMCAzLjctMS42dDEuNC00cTAtMS42LS42LTIuOC0uNy0xLjItMS45LTEuOHQtMy40LS42bTEyLjQgMjEuNFYyOS44aDUuN3E0LjMgMCA2LjcgMi4xdDIuNCA2cTAgMy42LTIuMyA2LTIuMTk5IDIuMy01LjcgMi4zLTEuNiAwLTMuNS0uN3Y4LjdoLTMuMnptNS42LTIxLjRoLTIuM3YxMHExLjUuOCAzLjEuOCAyLjMgMCAzLjctMS42dDEuNC00cTAtMS42LS42LTIuOC0uNy0xLjItMS45LTEuOHQtMy40LS42bTEyLjctMTEuM2gzLjJ2MjQuNWgtMy4yem05LjYgMS42cS44IDAgMS4zLjUuNi41LjYgMS4zdC0uNiAxLjRxLS41LjUtMS4zLjV0LTEuMy0uNXEtLjYtLjYtLjYtMS40IDAtLjcuNi0xLjMuNS0uNSAxLjMtLjVtLTEuNiA2LjhoMy4ydjE2LjFoLTMuMnptMTkuOSAxMi4zdjMuMnEtMi40IDEtNC43IDEtMy44IDAtNi0yLjMtMi4zLTIuMy0yLjMtNiAwLTMuOSAyLjItNi4yIDIuMi0yLjQgNS44LTIuNCAxLjIgMCAyLjIuMyAxIC4yIDIuNS45djMuNHEtMi40OTktMS42LTQuNS0xLjYtMi4xOTkgMC0zLjYgMS42LTEuNCAxLjUtMS40IDMuOCAwIDIuNSAxLjUgNCAxLjUgMS40IDQgMS40IDIgMCA0LjMtMXptMTMuOC01LjlWNDNxMCAuOC42LjguNTAxIDAgMS44LS45djJsLTEuOCAxcS0uNi4yLTEuNC4yLTIgMC0yLjQtMS42LTIgMS42LTQuMyAxLjYtMS43IDAtMi44LTEuMS0xLjItMS4yLTEuMi0yLjh0MS4xLTIuOCAzLjItMS45bDQtMS40di0uOXEwLTIuOS0yLjktMi45LTIuNiAwLTUgMi43di0zLjVxMS44LTIuMiA1LjMtMi4yIDIuNjAxIDAgNC4yIDEuNGwxIDEuMnEuNC43LjUgMS40em0tMy4xIDYuNXYtNC44bC0yLjIuOXEtMS42LjYtMi4zIDEuMy0uNy42LS43IDEuNnQuNyAxLjZxLjYuNyAxLjYuNyAxLjYgMCAyLjktMS4zbTYuMS0xMC40IDYtNS45djMuNGg1LjF2Mi44aC01LjF2OHEwIDIuNyAyLjMgMi43IDEuNzAxIDAgMy42LTEuMXYzcS0xLjggMS00IDF0LTMuNy0xLjNsLS43LS44cS0uMy0uNS0uNS0xLjN0LS4yLTN2LTcuMmgtMi44em0xNi05LjNxLjcgMCAxLjMuNS41LjUuNSAxLjN0LS41IDEuNHEtLjYuNS0xLjQuNS0uNyAwLTEuMy0uNS0uNi0uNi0uNi0xLjQgMC0uNy42LTEuMy42LS41IDEuMy0uNXptLTEuNyA2LjhoMy4ydjE2LjFoLTMuMnptMTUuNi0uMXEzLjcgMCA2LjEgMi40dDIuNCA2cTAgMy41LTIuNCA1LjgtMi40OTkgMi4zLTYuMyAyLjMtMy42IDAtNi0yLjMtMi41LTIuNC0yLjUtNS45dDIuNS01LjlxMi40LTIuNCA2LjItMi40bS0uMiAyLjlxLTIuMyAwLTMuOCAxLjV0LTEuNSAzLjlxMCAyLjMgMS42IDMuOCAxLjUgMS40IDMuOCAxLjQgMi40IDAgMy45LTEuNSAxLjUtMS40IDEuNS0zLjggMC0yLjMtMS42LTMuOC0xLjUtMS41LTQtMS41em0xNS41LTIuOHYycTIuMS0yLjQgNC44LTIuNCAxLjUgMCAyLjguOGE1LjMgNS4zIDAgMCAxIDIgMi4ycS43IDEuMy43IDQuM3Y5LjJoLTMuMnYtOS4ycTAtMi41LS44LTMuNS0uNy0xLTIuNS0xLTIuMyAwLTMuOCAyLjJ2MTEuNWgtMy4zVjI5Ljd6IiBmaWxsPSIjRkZGRkZFIi8+PHBhdGggZD0iTTE1MS44MDEgNTkuOWgzMDcuNSIgc3Ryb2tlPSIjRUNFQkU5Ii8+PHBhdGggZD0iTTI2MC40IDk3LjhWNzMuM2g4LjNxNSAwIDggMS41IDIuOSAxLjUgNC42IDQuNCAxLjcgMyAxLjcgNi40IDAgMi40LTEgNC43LS45IDIuMi0yLjcgNC0xLjcgMS43LTQuMSAyLjYtMS40LjUtMi42LjctMS4xLjItNC40LjJ6bTgtMjEuNGgtNC41djE4LjNoNC41cTIuNyAwIDQuMS0uNCAxLjUtLjQgMi41LS45YTkuMyA5LjMgMCAwIDAgMS44LTEuNHEyLjYtMi42IDIuNi02LjZ0LTIuNy02LjVhNi41IDYuNSAwIDAgMC0yLjMtMS41cS0xLjItLjYtMi40LS44LTEuMS0uMi0zLjctLjJ6bTIyIDUuM3YzLjdsLjItLjNxMi4zLTMuOCA0LjYtMy44IDEuOCAwIDMuOCAxLjlsLTEuNyAyLjhxLTEuNy0xLjYtMy4xLTEuNi0xLjUgMC0yLjcgMS41LTEuMSAxLjUtMS4xIDMuNXY4LjRoLTMuMlY4MS43em0xMi41LTYuOHEuOCAwIDEuMy41LjYuNS42IDEuM3QtLjYgMS40cS0uNS41LTEuMy41dC0xLjMtLjVxLS42LS42LS42LTEuNCAwLS43LjYtMS4zLjUtLjUgMS4zLS41bS0xLjYgNi44aDMuMnYxNi4xaC0zLjJ6bTE3LjcgMGgzLjVMMzE1LjMgOThoLTFsLTcuNC0xNi40aDMuNWw0LjQgMTAgNC4yLTEwem0xOSA4LjNoLTExLjRxMCAyLjMgMS41IDMuNyAxLjQgMS40IDMuNyAxLjQgMy4yIDAgNS45LTJ2My4xcS0xLjUuOTk5LTMgMS41LTEuNC40LTMuNC40LTIuNiAwLTQuMy0xLjF0LTIuNy0zLTEtNC4zcTAtMy43IDIuMi02IDIuMDAxLTIuNCA1LjQtMi40IDMuMjAxIDAgNS4xIDIuMyAyIDIuMiAyIDZ6bS0xMS40LTEuOWg4LjJxLS4yLTIuMDAxLTEuMi0zLS45OTktMS0yLjctMS0xLjcgMC0yLjggMS0xLjEuOTk5LTEuNSAzbTE4LjItNi40djMuN2wuMi0uM3EyLjMtMy44IDQuNi0zLjggMS44IDAgMy44IDEuOWwtMS43IDIuOHEtMS43LTEuNi0zLTEuNi0xLjYgMC0yLjggMS41LTEgMS41LTEgMy41djguNGgtMy4zVjgxLjd6IiBmaWxsPSIjRkZGRkZFIi8+PHBhdGggZD0iTTIzNS43IDEyNC40aDNsLTguMyAyMC42aC0uN2wtNi43LTE2LjYtNi43IDE2LjZoLS42bC04LjMtMjAuNWgzbDUuNiAxNCA1LjYtMTRoMi44bDUuNyAxNCA1LjYtMTR6bTYuNyA3djMuMWwuMS0uMnEyLjAwMS0zLjIgMy45LTMuMiAxLjUgMCAzLjEgMS42bC0xLjQgMi4zcS0xLjQtMS4zLTIuNi0xLjMtMS4zIDAtMi4yIDEuMi0xIDEuMy0xIDN2N2gtMi42di0xMy41em0xMC40LTUuN3EuNiAwIDEgLjUuNi40LjYgMSAwIC43LS41IDEuMnQtMS4xLjVxLS43IDAtMS4xLS41LS41LS41LS41LTEuMXQuNS0xcS40LS42IDEtLjZ6bS0xLjQgNS43aDIuN3YxMy41aC0yLjZ2LTEzLjV6bTQuNiAyLjEgNS01djIuOWg0LjN2Mi40aC00LjJ2Ni42cTAgMi4zIDIgMi4zIDEuMyAwIDMtMXYyLjVxLTEuNi45LTMuNC45dC0zLTFsLS43LS44LS40LTFxLS4yLS43LS4yLTIuNXYtNmgtMi4zdi0uM3ptMjMuNSA0LjhIMjcwcS4xIDIgMS4zIDMuMXQzIDEuMXEyLjcgMCA1LTEuNnYyLjZxLTEuMy44MDEtMi41IDEuMi0xLjIuMy0yLjguMy0yLjMgMC0zLjYtLjktMS40LS45LTIuMi0yLjUtLjktMS41LS45LTMuNiAwLTMgMS44LTUgMS43MDEtMiA0LjUtMiAyLjcgMCA0LjMgMiAxLjYgMS44IDEuNiA1em0tOS41LTEuNmg2LjhxMC0xLjU5OS0xLTIuNC0uOC0uOS0yLjItLjktMS41IDAtMi40LjktLjkuODAxLTEuMiAyLjRtMTEuNyA3LjFWMTQxcTEuMS44IDIuMyAxLjMgMS4yLjQgMiAuNHQxLjQtLjQuNi0xcTAtLjUtLjQtMWwtMS43LTFxLTIuNDk5LTEuNS0zLjMtMi41dC0uOC0yLjJxMC0xLjYgMS4yLTIuNSAxLjItMSAzLTEgMiAwIDQuMSAxdjIuN3EtMi4zLTEuNC0zLjgtMS40LS44IDAtMS4zLjN0LS41LjlxMCAuNTAxLjUuOS40LjQgMS41IDFsMSAuNXEzLjMgMi4wMDEgMy4zIDQuMiAwIDEuNy0xLjMgMi44LTEuMjk5IDEtMy4zIDEtMS4yIDAtMi4xLS4yLS45OTktLjMtMi40LTEiIGZpbGw9IiMyQTg2QzAiLz48cGF0aCBkPSJNMzM0LjE5OSAxNDV2LTIwLjVoNS4ycTMgMCA0LjkgMS41IDEuOCAxLjYgMS44IDQuMiAwIDEuOC0uOSAzLS45IDEuNC0yLjUgMiAxIC43IDEuOSAxLjggMSAxIDIuNiAzLjlsMS43IDIuNiAxLjEgMS40aC0zLjVsLS45LTEuMy0uMS0uMi0uNi0uOS0xLTEuNC0uOS0xLjYtMS43LTJxLS43LS44LTEuMy0xLjEtLjYtLjQtMi0uNGgtLjh2OXptMy45LTE4aC0xdjYuNGgxLjJxMi4yIDAgMy0uMy45LS40IDEuMy0xLjIuNS0uOC41LTEuNyAwLTEtLjUtMS44dC0xLjUtMS4xcS0uOS0uMy0zLS4zbTI1LjMgMTEuNGgtOS40cTAgMiAxLjIgMy4xIDEuMiAxLjIgMy4xIDEuMiAyLjcgMCA0LjktMS43djIuNnEtMS4yLjktMi40IDEuMi0xLjIuNC0yLjkuNC0yLjE5OSAwLTMuNi0xYTYuMzcgNi4zNyAwIDAgMS0yLjItMi40cS0uOC0xLjYtLjgtMy43IDAtMyAxLjctNSAxLjgtMS45IDQuNi0xLjkgMi42MDEgMCA0LjIgMS45dDEuNiA1em0tOS40LTEuNmg2LjhxLS4xLTEuNS0xLTIuNC0uOC0uOS0yLjItLjktMS41IDAtMi40Ljl0LTEuMiAyLjRtMjAuOCAwdjUuOHEwIC43LjQuNy41IDAgMS42LS44djEuN2wtMS41LjgtMS4yLjJxLTEuNyAwLTItMS40LTEuNyAxLjQtMy42IDEuNC0xLjQgMC0yLjMtMS0xLTEtMS0yLjN0MS0yLjNxLjktMSAyLjUtMS42bDMuNS0xLjJ2LS43cTAtMi40LTIuNS0yLjQtMi4xOTkgMC00LjIgMi4zdi0zcTEuNS0xLjggNC40LTEuOCAyLjIgMCAzLjUgMS4yLjUuMy44IDEgLjQuNS41IDEuMXYyLjN6bS0yLjYgNS41di00bC0xLjguN3EtMS40LjUtMiAxLS41LjYtLjUgMS40IDAgLjkuNSAxLjR0MS40LjVxMS4zIDAgMi40LTFtMTUuOS0xNy44aDIuN3YyMC40aC01LjdxLTMgMC00LjgtMS44LTEuNy0yLTEuNy01LjEgMC0zIDEuOC00LjkgMS45LTIgNC44LTIgMS40MDEgMCAzIC43di03LjN6bTAgMTguMlYxMzRxLTEuMi0uNi0yLjUtLjYtMiAwLTMuMiAxLjMtMS4xIDEuMy0xLjEgMy41IDAgMiAxIDMuMi42LjcgMS4zIDEgLjcuMiAyLjUuMmgyem01LjcgMS4zdi0zYTExLjMgMTEuMyAwIDAgMCAyLjMgMS4zcTEuMi41IDIgLjV0MS40LS40LjYtMS0uNC0xLTEuNy0xLjFxLTIuNDk5LTEuNC0zLjMtMi40YTMuNTggMy41OCAwIDAgMS0uOC0yLjNxMC0xLjUgMS4yLTIuNXQzLTFxMiAwIDQuMSAxLjF2Mi43cS0yLjMtMS41LTMuOC0xLjUtLjggMC0xLjMuNC0uNS4zLS41Ljh0LjUgMWwxLjUgMSAxIC41cTMuMyAxLjkgMy4zIDQuMiAwIDEuNy0xLjMgMi43LTEuMjk5IDEtMy4zIDEtMS4yIDAtMi4yLS4ydC0yLjMtMXoiIGZpbGw9IiM0ODQ3NDMiLz48cGF0aCBkPSJtMTUxLjgwMSAzODcuNi0xMC41LTEyLjUgMy4xLTIuNnEyLTEuNiAzLjgtMS42IDIgMCAzLjMgMS42IDEgMSAxIDIuMy4yIDEuMy0uNSAyLjVsMiAuMXExLjIuMiAzLjcgMWwyLjQuOCAxLjQuMy0yLjEgMS44LTEuMy0uMy0uMi0uMS0uOC0uMi0xLjMtLjUtMS40LS40LTItLjRoLTEuNXEtLjUuMS0xLjQuOWwtLjUuNCA0LjYgNS40em0tNi45LTEzLS41LjUgMy4zIDQgLjctLjZxMS4zLTEuMSAxLjYtMS44LjM5OS0uNy4zLTEuNGEzLjU1IDMuNTUgMCAwIDAtLjctMS4zIDIuNCAyLjQgMCAwIDAtMS4yLS44IDIuNSAyLjUgMCAwIDAtMS40IDBxLS44LjQtMiAxLjV6bTIxLjUtNi01LjggNXExIDEgMi4zIDEuMSAxLjQuMSAyLjUtLjkgMS41OTktMS4zIDIuMS0zLjVsMS40IDEuNnEtLjMgMS4yLTEgMi0uNTAxLjgtMS41IDEuNy0xLjMgMS4xLTIuNiAxLjNhNi4yIDYuMiAwIDAgMS0yLjctLjRxLTEuMy0uNS0yLjMtMS44LTEuNi0xLjktMS41LTQgMC0yIDEuNy0zLjUgMS43LTEuNCAzLjYtMSAyIC4zIDMuNiAyLjJ6bS02LjYgMy45IDQuMS0zLjVxLS45LTEtMS44LTEtMS0uMS0xLjkuNi0uOC44LTEgMS44IDAgMSAuNiAyLjFtMTUuMSAyLjktMTAuNS0xMi40IDIuOS0yLjRxMi4yLTEuOSA0LjMtMS44IDIuMiAwIDMuOCAyIDEuNiAxLjkgMS40IDQtLjEgMi4yLTEuOSAzLjctLjguNy0yIDEuMWwzLjcgNC40em0tNi40LTEzLjMtMS4xIDEgNC4yIDVhNC41IDQuNSAwIDAgMCAyLS45cTEuMS0xIDEuMi0yLjMgMC0xLjQtMS0yLjctLjctLjgtMS42LTEuMS0uOC0uNC0xLjctLjEtLjguMi0yIDEuMW0xLjctMTEuMiAxLjYtMS40IDEwLjUgMTIuNS0xLjYgMS40em01LjUtMy4zcS40LS40IDEtLjMuNSAwIC44LjR0LjMgMXEwIC41LS41LjgtLjMuMy0uOS4zLS41IDAtLjgtLjUtLjMtLjMtLjMtLjkgMC0uNS40LS44bTIuMSA0LjEgMS43LTEuMyA2LjkgOC4yLTEuNiAxLjR6bTE1LjUtMi4yIDEuNCAxLjZxLS45IDEuNS0yIDIuNS0yIDEuNi00LjEgMS41LTIuMS0uMi0zLjctMi4yLTEuNy0xLjktMS42LTQgLjItMi4yIDItMy43bDEuMi0uOHEuNi0uNCAxLjctLjZsMS40IDEuN3EtMS45LjItMyAxLjEtMSAxLTEgMi4zLS4xIDEuNC45IDIuNi45OTkgMS4zIDIuNCAxLjQgMS40IDAgMi43LTEgMS0uOCAxLjctMi40bTQuNS04LjkgMyAzLjVxLjMuNC42LjIuMy0uMy42LTEuMmwuOCAxLS41IDEuMnEtLjIwMS40LS42LjctMSAuOS0yIC4yLS4zIDEuNy0xLjUgMi43LS44LjctMS45LjYtMSAwLTEuOC0xLS42LS43LS42LTEuOCAwLTEgLjgtMi4zbDEuNS0yLjUtLjQtLjRxLTEuMi0xLjUtMi43LS4zLTEuMyAxLjItMS41IDMuNmwtMS41LTEuOHEwLTEuOSAxLjgtMy40IDEuNC0xLjEgMi44LTFsMSAuMS45LjV6bTEuMiA0LjctMi0yLjUtLjggMS4zcS0uNiAxLS42IDEuNyAwIC42LjMgMS4xLjUuNSAxIC42LjY5OSAwIDEuMi0uNC44LS42LjktMS44bS0xLjMtOCAuNS01LjYgMS40IDEuNyAyLjYtMi4yIDEuMyAxLjUtMi42IDIuMiAzLjQgNHExLjIgMS41IDIuMy41IDEtLjggMS40LTIuMmwxLjMgMS42YTUuMjMgNS4yMyAwIDAgMS0xLjYgMi4ycS0xLjIgMS0yLjUgMS0uNCAwLS43LS4ybC0uOC0uNHEtLjUtLjMtMS40LTEuNWwtMy0zLjYtMS41IDEuMnptNC4xLTExLjZxLjQtLjMgMS0uMy40IDAgLjguNC4zLjQuMyAxIDAgLjUtLjUuOC0uNC4zLS45LjMtLjUwMSAwLS45LS40LS4zLS40LS4yLTEgMC0uNS40LS44bTIgNC4yIDEuNy0xLjQgNyA4LjItMS43IDEuNHptOC02LjdxMS44OTktMS42IDQuMi0xLjQgMi4yLjEgMy44IDIgMS41IDEuOCAxLjIgNHQtMi4yIDMuOXEtMS44IDEuNS00LjEgMS40LTIuMy0uMi0zLjgtMnQtMS4yLTRxLjItMi4zIDIuMS00em0xLjIgMS41cS0xLjIgMS0xLjMgMi40dC45IDIuNnEuOTk5IDEuMiAyLjQgMS4zdDIuNi0xcTEuMi0xIDEuMy0yLjMuMS0xLjQtLjgtMi42LTEtMS4yLTIuNS0xLjMtMS40LS4xLTIuNiAxem02LjYtOC4xIDEgMXEwLTIgMS40LTMuMmEzLjE2IDMuMTYgMCAwIDEgMS44LS44IDMuMSAzLjEgMCAwIDEgMS45LjJxMSAuNCAyLjIgMmw0IDQuNy0xLjcgMS4zLTQtNC43cS0xLTEuMi0xLjgtMS40LS45LS4zLTEuOC41LTEuMSAxLTEgMi44bDUgNS45LTEuNyAxLjQtNy04LjN6IiBmaWxsPSIjMkE4NkMwIi8+PHBhdGggZD0ibTIzOS45OTggMzI0LjMtOTEuMSA3Ni40IiBzdHJva2Utd2lkdGg9IjgiIHN0cm9rZT0iIzJBODZDMCIvPjxwYXRoIGQ9Im0xNDQuMTk5IDM5NS4yLTEwIDE3LjggMTkuMy02Ljh6IiBzdHJva2Utd2lkdGg9IjgiIHN0cm9rZT0iIzJBODZDMCIgZmlsbD0iIzJBODZDMCIvPjxwYXRoIGQ9Ik0yNTAuMTk5IDE0N3Y3MC43IiBzdHJva2Utd2lkdGg9IjUiIHN0cm9rZT0iIzJBODZDMCIvPjxwYXRoIGQ9Im0yNDQuNjk5IDIxNy43IDUuNCAxNC40IDUuNC0xNC40eiIgc3Ryb2tlLXdpZHRoPSI1IiBzdHJva2U9IiMyQTg2QzAiIGZpbGw9IiMyQTg2QzAiLz48cGF0aCBkPSJNMzcwIDE0N3Y3MC43IiBzdHJva2Utd2lkdGg9IjUiIHN0cm9rZT0iIzQ4NDc0MyIvPjxwYXRoIGQ9Im0zNjQuNiAyMTcuNyA1LjQgMTQuNCA1LjQtMTQuNHoiIHN0cm9rZS13aWR0aD0iNSIgc3Ryb2tlPSIjNDg0NzQzIiBmaWxsPSIjNDg0NzQzIi8+PHBhdGggZD0iTTQxMC4xIDI0My42YzAtMS4yLTIuOS0yLjItNi41LTIuMmgtMTg3Yy0zLjYgMC02LjUgMS02LjUgMi4ydjYwLjdjMCAxLjIgMyAyLjEgNi41IDIuMWgxODdjMy42IDAgNi41LS45IDYuNS0yeiIgZmlsbD0iIzJBODZDMCIvPjxwYXRoIGQ9Ik0yNTUuMzAxIDI4NnYtMjQuNmg3LjhxMy41IDAgNS42IDEuOSAyIDEuOSAyIDUgMCAyLjItMSAzLjgtMSAxLjctMyAyLjUtMS44LjctNS4zLjdoLTIuNnYxMC42aC0zLjV6bTcuMi0yMS41aC0zLjd2Ny43aDMuOXEyLjEgMCAzLjMtMSAxLjEtLjk5OSAxLjEtMyAwLTMuNy00LjYtMy43bTE0LjMgNS4zdjMuN2wuMi0uM3EyLjMtMy43IDQuNi0zLjcgMS45IDAgMy44IDEuOGwtMS43IDIuOHEtMS42LTEuNi0zLTEuNi0xLjYgMC0yLjcgMS41LTEuMiAxLjUtMS4yIDMuNXY4LjRoLTMuMnYtMTYuMXptMTIuNS02LjhxLjggMCAxLjQuNS41LjYuNSAxLjQgMCAuNy0uNSAxLjMtLjYuNi0xLjQuNi0uNyAwLTEuMy0uNi0uNS0uNi0uNS0xLjMgMC0uOC41LTEuMy42LS42IDEuMy0uNm0tMS42IDYuOGgzLjJ2MTYuMWgtMy4yem0yMS4xIDQuNFYyODZoLTMuMnYtOXEwLTIuNi0uNy0zLjctLjgtMS0yLjUtMS0xIDAtMS45LjQtLjguNC0xLjkgMS42VjI4NmgtMy4ydi0xNi4xaDMuMnYyLjFxMi40OTktMi40IDQuOC0yLjQgMyAwIDQuOCAyLjkgMi41LTMgNS4zLTMgMi40IDAgMy45IDEuNyAxLjUgMS44IDEuNSA1LjN2OS41aC0zLjJ2LTkuNXEwLTItLjgtMy4xLS44MDEtMS4xLTIuNC0xLjEtMiAwLTMuNyAyem0yNC42IDJ2Ni45cTAgLjguNi44dDEuOC0uOHYybC0xLjguOXEtLjYuMi0xLjMuMi0yLjEgMC0yLjUtMS42LTIgMS42LTQuMyAxLjYtMS43IDAtMi44LTEuMXQtMS4xLTIuOHEwLTEuNiAxLTIuOCAxLjEtMS4yIDMuMi0xLjlsNC0xLjR2LS44cTAtMy0yLjktMy0yLjYgMC01IDIuOHYtMy41cTEuOC0yLjIgNS4zLTIuMiAyLjYgMCA0LjIgMS4zbDEgMS4ycS40LjcuNSAxLjV6bS0zLjEgNi41VjI3OGwtMi4yLjlxLTEuNi42LTIuMyAxLjMtLjcuNi0uNyAxLjZ0LjcgMS43cS42LjYgMS42LjYgMS42IDAgMi45LTEuM3ptMTEuNy0xMi45djMuN2wuMy0uM3EyLjMtMy43IDQuNi0zLjcgMS44IDAgMy44IDEuOGwtMS43IDIuN3EtMS43LTEuNi0zLjEtMS42LTEuNiAwLTIuNyAxLjV0LTEuMSAzLjV2OC40aC0zLjJ2LTE2LjFoMy4yem0yMS45IDBoMy42bC0xMS41IDI0LjRoLTMuNWw1LjUtMTEuNy02LjMtMTIuN2gzLjZsNC40IDkuMXoiIGZpbGw9IiNmZmYiLz48cGF0aCBkPSJtMzkwLjE5OSAzMjEuOCAxMC41LTEyLjYgMy4xIDIuN3EyIDEuNiAyLjMgMy40LjMgMi0xIDMuNS0xIDEuMTAxLTIuMiAxLjUtMS4yLjMtMi42LS4yLjMgMSAuMyAyIDAgMS4zLS40IDMuOGwtLjMgMi41djEuNWwtMi4yLTEuOC4xLTEuM3YtLjJsLjEtLjguMi0xLjQuMy0xLjV2LTJxLS4wOTktMS0uMy0xLjQtLjItLjYtMS0xLjNsLS42LS40LTQuNSA1LjV6bTExLjUtOS4xLS41LS40LTMuMyA0IC43LjVxMS4zIDEuMSAyIDEuMy43LjIwMSAxLjQgMCAuNy0uMyAxLjItLjkuNTAxLS41LjYtMS4zIDAtLjctLjMtMS40LS4zOTktLjY5OS0xLjgtMS44bTkuNyAyMC4xLTUuOC00LjlxLTEgMS4zLS44IDIuNnQxLjMgMi4zcTEuNiAxLjMgMy44IDEuNGwtMS4zIDEuNnEtMS4yIDAtMi4xLS41LTEtLjM5OS0yLTEuMi0xLjMtMS4yLTEuNy0yLjUtLjMtMS4yIDAtMi42dDEuMy0yLjZxMS42LTIgMy43LTIuMiAyLS4zIDMuNyAxLjF0MS43IDMuNHEwIDIuMDAxLTEuNiAzLjl6bS01LTUuOCA0LjIgMy41cS44LTEgLjctMiAwLTEtMS0xLjctLjgtLjgtMS45LS43LTEgMC0yIC45bS0uMiAxNS40IDEwLjQtMTIuNSAyLjkgMi40cTIuMiAxLjkgMi41IDR0LTEuMyA0cS0xLjYgMi4wMDEtMy44IDIuMS0yLjEuMy0zLjktMS4yLS44LS42OTktMS40LTEuOGwtMy44IDQuNHptMTItOC42LTEuMi0xLTQuMiA1LjFhNC40IDQuNCAwIDAgMCAxLjIgMS43cTEuMiAxIDIuNi44dDIuNC0xLjRhMy44MyAzLjgzIDAgMCAwIC45LTEuOHEuMi0uOS0uMi0xLjYtLjM5OS0uOC0xLjUtMS44bTExLjQtLjMgMS42IDEuMy0xMC41IDEyLjYtMS43LTEuNHptNC4yIDQuOXEuNC4zLjQuOHQtLjMgMXEtLjMuMy0uOC40LS42IDAtMS0uMy0uMy0uMy0uNC0uOSAwLS41LjMtLjl0LjgtLjRxLjYgMCAxIC4zbS0zLjggMi42IDEuNyAxLjQtNyA4LjMtMS42LTEuNCA3LTguM3ptNC45IDE1LTEuNCAxLjZxLTEuNTk5LS41LTIuNy0xLjUtMi0xLjctMi4yLTMuOC0uMi0yIDEuNS00IDEuNi0yIDMuNy0yLjIgMi4xLS4zIDQgMS4zbDEgMSAuOSAxLjYtMS41IDEuN3EtLjYtMS44LTEuNi0yLjctMS4xLTEtMi41LS44LTEuMy4yLTIuMyAxLjQtMS4xIDEuMy0xIDIuNy4yMDEgMS40IDEuNSAyLjUgMSAuNyAyLjYgMS4ybTkuNiAyLjktMyAzLjVxLS4zLjQgMCAuNy4zLjIwMSAxLjMuM2wtLjkgMS0xLjMtLjMtLjgtLjRxLTEtMS0uNS0xLjktMS44IDAtMy0xLS44LS44LS45LTEuOCAwLTEgLjYtMiAuNy0uNjk5IDEuOC0uOSAxLS4xIDIuNC40bDIuNyAxIC4zLS40cTEuMy0xLjUtLjItMi43LTEuMy0xLjItMy44LS44bDEuNS0xLjhxMi0uMyAzLjcgMS4yIDEuNCAxIDEuNiAyLjV2MWwtLjQgMXptLTQuNCAyIDItMi41LTEuNC0uNXEtMS4xLS4zLTEuOC0uMy0uNiAwLTEgLjYtLjQuNS0uNCAxIDAgLjcuNiAxLjEuOC43IDIgLjZtNy42LTIuNyA1LjYtLjUtMS41IDEuNyAyLjYgMi4yLTEuMiAxLjUtMi42LTIuMi0zLjQgNHEtMS4yIDEuNSAwIDIuNS45LjcgMi4zIDFsLTEuMiAxLjVxLTEuNC0uMy0yLjUtMS4yLTEuMi0xLTEuNC0yLjN2LS43cTAtLjM5OS4zLS45bDEuMi0xLjYgMy0zLjctMS40LTEuMnptMTIuMSAycS40LjQuNS45IDAgLjUtLjMgMS0uMy4zLS45LjQtLjUgMC0uOS0uMy0uNC0uMzk5LS40LS45IDAtLjUuMy0xIC4zLS4zLjgtLjNsMSAuMnptLTMuNyAyLjggMS42IDEuNC02LjkgOC4zLTEuNi0xLjR6bTcuOSA2LjdxMiAxLjYgMi4yIDMuOC4yIDIuMy0xLjQgNC4xLTEuNSAxLjgtMy43IDItMi4zIDAtNC4yLTEuNi0xLjgtMS41LTItMy44LS4zLTIuMiAxLjItNHQzLjgtMnEyLjItLjA5OSA0LjIgMS41em0tMS4zIDEuNHEtMS4xLS45OTktMi42LS45LTEuNC4yLTIuNCAxLjQtMSAxLjEtLjggMi41LjEgMS40IDEuMyAyLjUgMS4yIDEgMi42LjggMS41IDAgMi41LTEuMyAxLTEuMS44LTIuNi0uMi0xLjQtMS40LTIuNG05LjEgNS4xLS44IDFxMi0uMiAzLjUgMSAuNy42IDEgMS42YTMuNDUgMy40NSAwIDAgMSAuMiAycS0uMy45LTEuNSAyLjRsLTQgNC43LTEuNi0xLjMgNC00LjdxMS0xLjMgMS0yLjIuMS0uOC0uOC0xLjYtMS4yLTEtMy0uNWwtNC45IDUuOS0xLjctMS40IDctOC4zeiIgZmlsbD0iIzJBODZDMCIvPjxwYXRoIGQ9Im0zODAuMTk5IDMyNCA5MSA3Ni40IiBzdHJva2Utd2lkdGg9IjgiIHN0cm9rZT0iIzJBODZDMCIvPjxwYXRoIGQ9Im00NjYuNiA0MDUuOSAxOS40IDYuOC0xMC4xLTE3Ljh6IiBzdHJva2Utd2lkdGg9IjgiIHN0cm9rZT0iIzJBODZDMCIgZmlsbD0iIzJBODZDMCIvPjxwYXRoIGQ9Ik0yMjAuMTk5IDQzNGMwLTEuMi0yLjktMi4xLTYuNS0yLjFoLTE4N2MtMy42IDAtNi41LjktNi41IDJ2NjAuOGMwIDEuMiAzIDIuMiA2LjUgMi4yaDE4N2MzLjYgMCA2LjUtMSA2LjUtMi4yeiIgZmlsbD0iIzVDQTgzMSIvPjxwYXRoIGQ9Im01MyA0NjYuMy0yLjctMS42cS0yLjYwMS0xLjU5OS0zLjYtMy0xLTEuNS0xLTMuNSAwLTIuOSAyLTQuN3Q1LjItMS44cTMgMCA1LjYgMS43djRRNTYgNDU1IDUyLjggNDU1cS0xLjcgMC0yLjguOHQtMS4xIDJxMCAxLjEwMS44IDIuMXQyLjYgMmwyLjcgMS42cTQuNSAyLjcgNC41IDYuOCAwIDMtMiA0LjgtMi4wMDEgMS45LTUuMSAxLjktMy43IDAtNi43LTIuM3YtNC40cTIuOSAzLjYgNi42IDMuNiAxLjcgMCAyLjgtMSAxLS45IDEtMi4zIDAtMi4xOTktMy4yLTQuMnptMjMuNyAyLjVINjUuM3EuMiAyLjMgMS42IDMuN3QzLjcgMS40cTMuMiAwIDUuOC0ydjMuMXEtMS40IDEtMi45IDEuNC0xLjQuNC0zLjQuNC0yLjcgMC00LjMtMWE4Ljk1IDguOTUgMCAwIDEtMi43LTNxLTEtMi0xLTQuNCAwLTMuNjk5IDIuMS02IDIuMS0yLjMgNS41LTIuMyAzLjE5OSAwIDUuMSAyLjMgMiAyLjIgMiA2di40em0tMTEuMy0yaDguMnEtLjIwMS0xLjgtMS4yLTIuOS0xLjAwMS0xLTIuNy0xLTEuOCAwLTIuOSAxLTEgMS0xLjQgM3ptMjYuOSA2djMuMnEtMi40MDEuOS00LjcuOS0zLjgwMSAwLTYtMi4zLTIuMy0yLjE5OS0yLjMtNiAwLTMuOCAyLjItNi4yIDIuMTk5LTIuMyA1LjctMi4zIDEuMyAwIDIuMy4zLjk5OS4yIDIuNC44djMuNHEtMi40LTEuNS00LjUtMS41dC0zLjUgMS41LTEuNCAzLjlxMCAyLjUgMS41IDQgMS41IDEuNCA0IDEuNCAxLjkgMCA0LjMtMXptMTEuMjk5LTEyLjRxMy43IDAgNi4yIDIuNCAyLjQgMi40IDIuNCA2IDAgMy41LTIuNSA1LjgtMi40IDIuMy02LjIgMi4zLTMuNiAwLTYtMi40LTIuNS0yLjMtMi41LTUuOCAwLTMuNiAyLjQtNiAyLjUtMi4zIDYuMi0yLjNtLS4xIDIuOXEtMi4zIDAtMy44IDEuNXQtMS41IDMuOHEwIDIuNCAxLjUgMy44IDEuNSAxLjUgNCAxLjUgMi4zIDAgMy44LTEuNXQxLjUtMy44LTEuNi0zLjgtNC0xLjV6bTE1LjUtMi45djJxMi4wMDEtMi4zIDQuOC0yLjMgMS41IDAgMi44LjhhNS41IDUuNSAwIDAgMSAyIDIuMXEuNyAxLjQuNyA0LjN2OS4zaC0zLjN2LTkuMnEwLTIuNS0uOC0zLjUtLjctMS4xLTIuNS0xLjEtMi4zIDAtMy45IDIuMnYxMS42aC0zLjJ2LTE2LjJoMy40bTI1LjUtOC40aDMuMnYyNC42aC02LjdxLTMuNiAwLTUuNy0yLjMtMi4xLTIuMTk5LTIuMS02IDAtMy42IDIuMi02IDIuMi0yLjIgNS43LTIuMiAxLjYgMCAzLjUuN1Y0NTJ6bTAgMjEuOXYtMTAuM3EtMS41LS44LTMtLjgtMi40IDAtMy44IDEuNnQtMS40IDQuMnEwIDIuNSAxLjIgMy45LjguOCAxLjYgMSAuODAxLjQgMyAuNHptMTcuOC03djYuOHEwIC45LjUuOS42IDAgMS44LS45djJsLTEuNyAxLTEuNC4ycS0yIDAtMi40LTEuNi0yIDEuNS00LjQgMS41LTEuNyAwLTIuOC0xLTEuMS0xLjItMS4xLTIuOSAwLTEuNSAxLTIuNyAxLjItMS4yIDMuMi0ybDQuMS0xLjN2LS45cTAtMi45LTMtMi45LTIuNSAwLTUgMi43di0zLjVxMS45LTIuMiA1LjQtMi4yIDIuNjAxIDAgNC4yIDEuNC41MDEuNC45IDEuMi40LjcuNSAxLjQuMi43LjIgMi44bS0zLjIgNi41di00LjhsLTIuMS44cS0xLjcuNy0yLjQgMS4zLS42LjctLjYgMS43dC42IDEuNnEuNy42IDEuNy42IDEuNSAwIDIuOC0xLjJtMTEuOS0xM3YzLjctLjJxMi40LTMuOCA0LjctMy44IDEuOCAwIDMuOCAxLjhsLTEuNyAyLjhxLTEuNTk5LTEuNS0zLTEuNS0xLjYgMC0yLjggMS40LTEgMS41LTEgMy41djguNWgtMy4zdi0xNi4yaDMuM20yMS43IDBoMy42bC0xMS4zIDI0LjRoLTMuNmw1LjUtMTEuNy02LjItMTIuN2gzLjZsNC4zIDkuMSA0LjItOXoiIGZpbGw9IiNGRkZGRkUiLz48cGF0aCBkPSJNNTk5LjgwMSA0MzRjMC0xLjItMy0yLjEtNi41LTIuMWgtMTg3Yy0zLjYgMC02LjUuOS02LjUgMnY2MC44YzAgMS4yIDIuOSAyLjIgNi41IDIuMmgxODdjMy42IDAgNi41LTEgNi41LTIuMnoiIGZpbGw9IiM1Q0E4MzEiLz48cGF0aCBkPSJtNDMyLjQ5OSA0NjYuMy0yLjctMS42cS0yLjQ5OS0xLjU5OS0zLjYtMy0xLTEuNS0xLTMuNSAwLTIuOSAyLTQuN3Q1LjItMS44cTMgMCA1LjYgMS43djRxLTIuNi0yLjUtNS43LTIuNS0xLjcgMC0yLjguOHQtMS4xIDJxMCAxLjEwMS44IDIuMXQyLjYgMmwyLjcgMS42cTQuNSAyLjcgNC41IDYuOCAwIDMtMiA0LjgtMiAxLjktNS4xIDEuOS0zLjYgMC02LjYtMi4zdi00LjRxMi44IDMuNiA2LjYgMy42IDEuNiAwIDIuNy0xIDEuMS0uOSAxLjEtMi4zIDAtMi4xOTktMy4yLTQuMm0yMy44IDIuNWgtMTEuNHEuMSAyLjMgMS41IDMuNyAxLjUgMS40IDMuNyAxLjQgMy4yIDAgNS45LTJ2My4xcS0xLjUgMS0zIDEuNC0xLjQuNC0zLjQuNC0yLjYgMC00LjMtMWE5LjQgOS40IDAgMCAxLTIuNi0zcS0xLTItMS00LjQgMC0zLjY5OSAyLTYgMi4yLTIuMyA1LjUtMi4zIDMuMjAxIDAgNS4xIDIuMyAyIDIuMiAyIDZ6bS0xMS4zLTJoOHEwLTEuOC0xLTIuOS0xLTEtMi44LTEtMS43IDAtMi44IDF0LTEuNCAzem0yNi44IDZ2My4ycS0yLjQuOS00LjcuOS0zLjggMC02LTIuMy0yLjMtMi4xOTktMi4zLTYgMC0zLjggMi4yLTYuMiAyLjItMi4zIDUuOC0yLjMgMS4yIDAgMi4yLjMgMSAuMiAyLjUuOHYzLjRxLTIuNC0xLjUtNC41LTEuNS0yLjE5OSAwLTMuNiAxLjUtMS40IDEuNS0xLjQgMy45IDAgMi41IDEuNSA0IDEuNSAxLjQgNCAxLjQgMiAwIDQuMy0xem0xMS40LTEyLjRxMy43IDAgNi4xIDIuNCAyLjUgMi40IDIuNSA2IDAgMy41LTIuNSA1Ljh0LTYuMyAyLjNxLTMuNiAwLTYtMi40LTIuNS0yLjMtMi41LTUuOCAwLTMuNiAyLjUtNiAyLjUtMi4zIDYuMi0yLjNtLS4yIDIuOXEtMi4zIDAtMy44IDEuNS0xLjQgMS41LTEuNCAzLjggMCAyLjQgMS41IDMuOCAxLjUgMS41IDMuOCAxLjUgMi40IDAgMy45LTEuNXQxLjUtMy44LTEuNi0zLjhxLTEuNS0xLjUtMy45LTEuNW0xNS41LTIuOXYycTIuMS0yLjMgNC44LTIuMyAxLjYgMCAyLjkuOGE1LjUgNS41IDAgMCAxIDIgMi4xcS42IDEuNC42IDQuM3Y5LjNoLTMuMnYtOS4ycTAtMi41LS43LTMuNS0uOC0xLjEtMi42LTEuMS0yLjIgMC0zLjggMi4ydjExLjZoLTMuM3YtMTYuMnptMjUuNS04LjRoMy4zdjI0LjZoLTYuOXEtMy41IDAtNS43LTIuMy0yLjEtMi4xOTktMi4xLTYgMC0zLjYgMi4yLTYgMi4zLTIuMiA1LjgtMi4yIDEuNiAwIDMuNS43VjQ1MnptMCAyMS45di0xMC4zYTUuOTUgNS45NSAwIDAgMC0zLS44cS0yLjMgMC0zLjggMS42LTEuNCAxLjYtMS40IDQuMiAwIDIuNSAxLjMgMy45LjcuOCAxLjUgMSAuODAxLjQgMyAuNGgyLjV6bTE3LjgtN3Y2LjhxMCAuOS42LjkuNTAxIDAgMS44LS45djJsLTEuOCAxcS0uNi4yLTEuNC4yLTIgMC0yLjQtMS42LTIgMS41LTQuMyAxLjUtMS43IDAtMi44LTEtMS4yLTEuMi0xLjItMi45IDAtMS41IDEuMS0yLjd0My4xLTJsNC4xLTEuM3YtLjlxMC0yLjktMi45LTIuOS0yLjYgMC01IDIuN3YtMy41cTEuOC0yLjIgNS4zLTIuMiAyLjYwMSAwIDQuMiAxLjQuNS40IDEgMS4yLjQuNy41IDEuNHYyLjh6bS0zLjIgNi41di00LjhsLTIuMS44cS0xLjYuNy0yLjMgMS4zYTIuMzIgMi4zMiAwIDAgMC0uNyAxLjdxMCAxIC42IDEuNi43LjYgMS43LjYgMS41IDAgMi44LTEuMm0xMS45LTEzdjMuN2wuMS0uMnEyLjQtMy44IDQuNy0zLjggMS44IDAgMy44IDEuOGwtMS43IDIuOHEtMS43LTEuNS0zLjEtMS41LTEuNTk5IDAtMi43IDEuNC0xLjEgMS41LTEuMSAzLjV2OC41aC0zLjN2LTE2LjJ6bTIxLjggMGgzLjZsLTExLjUgMjQuNGgtMy42bDUuNS0xMS43LTYuMi0xMi43aDMuNmw0LjQgOS4xIDQuMi05eiIgZmlsbD0iI0ZGRkZGRSIvPjwvc3ZnPg==;" vertex="1" parent="1">
          <mxGeometry x="-660" y="80" width="520" height="425" as="geometry" />
        </mxCell>
        <mxCell id="FX5OmkcN8bD2J4cv3eW1-2" value="" style="shape=image;imageAspect=0;aspect=fixed;verticalLabelPosition=bottom;verticalAlign=top;image=data:image/svg+xml,PHN2ZyB4bWxucz0iaHR0cDovL3d3dy53My5vcmcvMjAwMC9zdmciIGZpbGw9Im5vbmUiIGhlaWdodD0iMjgwIiB3aWR0aD0iNzQwIiB2aWV3Qm94PSIwIDAgNzQwIDI4MCI+PHBhdGggZD0iTTAgMGg3NDB2MjgwSDB6IiBmaWxsPSIjZmZmIi8+PHBhdGggZD0ibTUwMC45MDEgMjA4LjQ5OS0xMDcuNi05Ni4xIiBzdHJva2Utd2lkdGg9IjQiIHN0cm9rZT0iIzRGNEM0QiIvPjxwYXRoIGQ9Im00OTcuNzAxIDIxMi4xIDEyLjcgNS02LjMtMTIuMnptLTEwMS4yLTEwMy4zLTEyLjctNSA2LjIgMTIuMnoiIHN0cm9rZS13aWR0aD0iNCIgc3Ryb2tlPSIjNEY0QzRCIiBmaWxsPSIjNEY0QzRCIi8+PHBhdGggZD0ibTI0MS4zMDEgMjA4LjUgMTA3LjctOTYuMSIgc3Ryb2tlLXdpZHRoPSI0IiBzdHJva2U9IiM0RjRDNEIiLz48cGF0aCBkPSJtMjM4LjEwMSAyMDUtNi4zIDEyIDEyLjctNC45em0xMTMuOS04OSA2LjQtMTIuMS0xMi43IDV6IiBzdHJva2Utd2lkdGg9IjQiIHN0cm9rZT0iIzRGNEM0QiIgZmlsbD0iIzRGNEM0QiIvPjxwYXRoIGQ9Ik0yMjAgMjA3LjFjMC0xLjItMy0yLjEtNi41LTIuMWgtMTg3Yy0zLjYgMC02LjUgMS02LjUgMi4xVjI2OGMwIDEuMiAzIDIuMSA2LjUgMi4xaDE4N2MzLjYgMCA2LjUtMSA2LjUtMi4xdi02MSIgZmlsbD0iIzVDQTgzMSIvPjxwYXRoIGQ9Im01Mi43IDIzOS40LTIuNy0xLjZxLTIuNDk5LTEuNS0zLjYtMy0xLTEuNS0xLTMuNCAwLTMgMi00LjcgMi0xLjggNS4yLTEuOCAzLjEgMCA1LjcgMS43djRxLTIuNy0yLjYtNS43LTIuNi0xLjggMC0yLjkuOC0xIC44LTEgMnQuNyAyLjJxLjgwMSAxIDIuNyAybDIuNiAxLjZxNC41IDIuNiA0LjUgNi44IDAgMy0yIDQuOHQtNSAxLjhxLTMuNyAwLTYuNy0yLjJ2LTQuNXEyLjggMy42IDYuNiAzLjYgMS42IDAgMi43LS45IDEuMS0xIDEuMS0yLjMgMC0yLjMtMy4yLTQuM20yMy44IDIuNkg2NXEuMSAyLjMwMSAxLjYgMy42IDEuNCAxLjQgMy43IDEuNCAzLjEgMCA1LjgtMnYzLjJxLTEuNSAxLTMgMS40LTEuNC40LTMuMy40LTIuNyAwLTQuMy0xLjEtMS43LTEuMS0yLjctM3QtMS00LjNxMC0zLjY5OSAyLjEtNiAyLjEtMi4zIDUuNC0yLjN0NS4yIDIuMnExLjkgMi4zMDEgMS45IDZ2LjR6bS0xMS4zLTJoOC4xcS0uMS0xLjg5OS0xLjEtMy0xLTEtMi44LTEtMS43IDAtMi44IDEtMSAxLjEwMS0xLjQgM20yNi44IDZ2My4xcS0yLjMgMS00LjcgMS0zLjY5OSAwLTYtMi4zLTIuMy0yLjMtMi4zLTYgMC0zLjkgMi4yLTYuMnQ1LjgtMi4zcTEuMyAwIDIuMi4yIDEgLjIwMSAyLjUuOXYzLjRxLTIuNC0xLjYtNC41LTEuNi0yLjIgMC0zLjUgMS42LTEuNCAxLjUtMS40IDMuOCAwIDIuNSAxLjUgNCAxLjUgMS40IDQgMS40IDEuOSAwIDQuMy0xem0xMS40LTEyLjVxMy43IDAgNi4xIDIuNCAyLjUgMi40IDIuNSA2IDAgMy41LTIuNSA1Ljh0LTYuMiAyLjMtNi4xLTIuM3EtMi41LTIuNC0yLjUtNS45dDIuNS01LjkgNi4yLTIuNG0tLjIgM3EtMi4zIDAtMy43IDEuNC0xLjUgMS41LTEuNSAzLjkgMCAyLjMgMS41IDMuOCAxLjUgMS40IDMuOSAxLjQgMi4zIDAgMy44LTEuNCAxLjUtMS41IDEuNS0zLjkgMC0yLjMtMS41LTMuOC0xLjYtMS41LTQtMS41em0xNS41LTIuOXYycTIuMi0yLjMgNC45LTIuMyAxLjUgMCAyLjguN2E1LjMgNS4zIDAgMCAxIDIgMi4ycS42IDEuMy42IDQuM3Y5LjJoLTMuMnYtOS4ycTAtMi40LS43LTMuNS0uOC0xLTIuNS0xLTIuMyAwLTMuOSAyLjJ2MTEuNWgtMy4zdi0xNi4xem0yNS42LTguNGgzLjJ2MjQuNWgtNi44cS0zLjYgMC01LjctMi4yLTIuMi0yLjMtMi4yLTYuMSAwLTMuNiAyLjMtNS45IDIuMi0yLjMgNS43LTIuMyAxLjYgMCAzLjUuN3ptMCAyMS44di0xMC4ycS0xLjUtLjgtMy0uOC0yLjQgMC0zLjggMS42LTEuNCAxLjUtMS40IDQuMiAwIDIuNSAxLjIgMy44LjcuOCAxLjYgMS4xLjgwMS4zIDMgLjN6bTE3LjctN3Y2LjlxMCAuOC42Ljh0MS44LS44djJsLTEuOC45cS0uNi4yLTEuMy4yLTIgMC0yLjUtMS42LTIgMS42LTQuMyAxLjYtMS43IDAtMi44LTEuMXQtMS4xLTIuOHEwLTEuNiAxLTIuOCAxLjItMS4yIDMuMi0xLjlsNC0xLjR2LS44cTAtMy0yLjgtMy0yLjcgMC01LjEgMi43di0zLjRxMS44LTIuMiA1LjMtMi4yIDIuNjAxIDAgNC4yIDEuM2wxIDEuMnEuNC43LjUgMS41em0tMy4xIDYuNXYtNC44bC0yLjIuOXEtMS42LjYtMi4zIDEuMy0uNy42LS43IDEuNnQuNyAxLjdxLjYuNiAxLjYuNiAxLjYgMCAyLjktMS4zbTExLjgtMTIuOXYzLjdsLjItLjNxMi4zLTMuNyA0LjYtMy43IDEuOCAwIDMuOCAxLjhsLTEuNyAyLjhxLTEuNy0xLjYtMy4xLTEuNi0xLjUgMC0yLjcgMS41LTEuMSAxLjUtMS4xIDMuNXY4LjRoLTMuMnYtMTYuMXptMjEuOCAwaDMuNkwxODQuNiAyNThoLTMuNWw1LjUtMTEuNy02LjMtMTIuN2gzLjdsNC4zIDl6IiBmaWxsPSIjRkZGRkZFIi8+PHBhdGggZD0iTTcyMCAyMDcuMWMwLTEuMi0zLTIuMS02LjUtMi4xaC0xODdjLTMuNiAwLTYuNSAxLTYuNSAyLjFWMjY4YzAgMS4yIDMgMi4xIDYuNSAyLjFoMTg3YzMuNiAwIDYuNS0xIDYuNS0yLjF2LTYxIiBmaWxsPSIjNUNBODMxIi8+PHBhdGggZD0ibTU1Mi43IDIzOS40LTIuNy0xLjZxLTIuNDk5LTEuNS0zLjYtMy0xLTEuNS0xLTMuNCAwLTMgMi00LjcgMi0xLjggNS4yLTEuOCAzLjEgMCA1LjcgMS43djRxLTIuNy0yLjYtNS43LTIuNi0xLjggMC0yLjkuOC0xIC44LTEgMnQuNyAyLjJxLjgwMSAxIDIuNyAybDIuNiAxLjZxNC41IDIuNiA0LjUgNi44IDAgMy0yIDQuOHQtNSAxLjhxLTMuNyAwLTYuNy0yLjJ2LTQuNXEyLjggMy42IDYuNiAzLjYgMS42IDAgMi43LS45IDEuMS0xIDEuMS0yLjMgMC0yLjMtMy4yLTQuM20yMy44IDIuNkg1NjVxLjEgMi4zMDEgMS42IDMuNiAxLjQgMS40IDMuNyAxLjQgMy4xIDAgNS44LTJ2My4ycS0xLjUgMS0zIDEuNC0xLjQuNC0zLjMuNC0yLjcgMC00LjMtMS4xLTEuNy0xLjEtMi43LTN0LTEtNC4zcTAtMy42OTkgMi4xLTYgMi4xLTIuMyA1LjQtMi4zdDUuMiAyLjJxMS45IDIuMzAxIDEuOSA2di40em0tMTEuMy0yaDguMXEtLjEtMS44OTktMS4xLTMtMS0xLTIuOC0xLTEuNyAwLTIuOCAxLTEgMS4xMDEtMS40IDNtMjYuOCA2djMuMXEtMi4zIDEtNC43IDEtMy42OTkgMC02LTIuMy0yLjMtMi4zLTIuMy02IDAtMy45IDIuMi02LjJ0NS44LTIuM3ExLjMgMCAyLjIuMiAxIC4yMDEgMi41Ljl2My40cS0yLjQtMS42LTQuNS0xLjYtMi4yIDAtMy41IDEuNi0xLjQgMS41LTEuNCAzLjggMCAyLjUgMS41IDQgMS41IDEuNCA0IDEuNCAxLjkgMCA0LjMtMXptMTEuNC0xMi41cTMuNyAwIDYuMSAyLjQgMi41IDIuNCAyLjUgNiAwIDMuNS0yLjUgNS44dC02LjIgMi4zLTYuMS0yLjNxLTIuNS0yLjQtMi41LTUuOXQyLjUtNS45IDYuMi0yLjRtLS4yIDNxLTIuMyAwLTMuNyAxLjQtMS41IDEuNS0xLjUgMy45IDAgMi4zIDEuNSAzLjggMS41IDEuNCAzLjkgMS40IDIuMyAwIDMuOC0xLjQgMS41LTEuNSAxLjUtMy45IDAtMi4zLTEuNS0zLjgtMS42LTEuNS00LTEuNXptMTUuNS0yLjl2MnEyLjItMi4zIDQuOS0yLjMgMS41IDAgMi44LjdhNS4zIDUuMyAwIDAgMSAyIDIuMnEuNiAxLjMuNiA0LjN2OS4yaC0zLjJ2LTkuMnEwLTIuNC0uNy0zLjUtLjgtMS0yLjUtMS0yLjMgMC0zLjkgMi4ydjExLjVoLTMuM3YtMTYuMXptMjUuNi04LjRoMy4ydjI0LjVoLTYuOHEtMy42IDAtNS43LTIuMi0yLjItMi4zLTIuMi02LjEgMC0zLjYgMi4zLTUuOSAyLjItMi4zIDUuNy0yLjMgMS42IDAgMy41Ljd6bTAgMjEuOHYtMTAuMnEtMS41LS44LTMtLjgtMi40IDAtMy44IDEuNi0xLjQgMS41LTEuNCA0LjIgMCAyLjUgMS4yIDMuOC43LjggMS42IDEuMS44MDEuMyAzIC4zem0xNy43LTd2Ni45cTAgLjguNi44dDEuOC0uOHYybC0xLjguOXEtLjYuMi0xLjMuMi0yIDAtMi41LTEuNi0yIDEuNi00LjMgMS42LTEuNyAwLTIuOC0xLjF0LTEuMS0yLjhxMC0xLjYgMS0yLjggMS4yLTEuMiAzLjItMS45bDQtMS40di0uOHEwLTMtMi44LTMtMi43IDAtNS4xIDIuN3YtMy40cTEuOC0yLjIgNS4zLTIuMiAyLjYwMSAwIDQuMiAxLjNsMSAxLjJxLjQuNy41IDEuNXptLTMuMSA2LjV2LTQuOGwtMi4yLjlxLTEuNi42LTIuMyAxLjMtLjcuNi0uNyAxLjZ0LjcgMS43cS42LjYgMS42LjYgMS42IDAgMi45LTEuM20xMS44LTEyLjl2My43bC4yLS4zcTIuMy0zLjcgNC42LTMuNyAxLjggMCAzLjggMS44bC0xLjcgMi44cS0xLjctMS42LTMuMS0xLjYtMS41IDAtMi43IDEuNS0xLjEgMS41LTEuMSAzLjV2OC40aC0zLjJ2LTE2LjF6bTIxLjggMGgzLjZMNjg0LjYgMjU4aC0zLjVsNS41LTExLjctNi4zLTEyLjdoMy43bDQuMyA5eiIgZmlsbD0iI0ZGRkZGRSIvPjxwYXRoIGQ9Im0xNDcuNyAxNTQuNi0xMy4yLTE1LjcgNC0zLjNxMi4zLTIgNC43LTJ0NCAycTEuMiAxLjQgMS40IDMgLjEgMS41LS43IDMuMSAxLjEtLjEgMi42LjEgMS40LjMgNC41IDEuM2wzIC45IDEuNy40LTIuNiAyLjMtMS42LS41aC0uM2wtMS0uMy0xLjYtLjYtMS44LS42cS0xLjUtLjQtMi41LS40aC0xLjhxLS42LjItMS43IDFsLS42LjYgNS43IDYuOHptLTguNy0xNi4yLS43LjUgNC4yIDUgLjgtLjdxMS44LTEuNSAyLjEtMi4zLjQtLjguMy0xLjctLjItLjktLjgtMS43LS42LS43LTEuNS0xLS45LS4yLTEuOC4xLTEgLjM5OS0yLjYgMS44bTI2LjgtNy42LTcuMiA2LjFxMS4zIDEuNCAzIDEuNSAxLjYuMSAzLTEgMi0xLjggMi43LTQuNWwxLjcgMnEtLjQgMS41LTEuMSAyLjUtLjcuOTk5LTIgMi4xLTEuNyAxLjQtMy4zIDEuNmE2LjMgNi4zIDAgMCAxLTMuMy0uNXEtMS42LS42LTMtMi4yLTItMi40LTEuOC01IDAtMi42IDIuMi00LjQgMi0xLjcgNC41LTEuMyAyLjQuNCA0LjQgMi45em0tOC4yIDQuOCA1LjItNC4zcS0xLjEtMS4yLTIuMy0xLjN0LTIuMy44cS0xLjEgMS0xLjMgMi4yLS4xIDEuMi43IDIuNm0xOC45IDMuNy0xMy0xNS42IDMuNS0zcTIuNy0yLjMgNS40LTIuMnQ0LjggMi42cTIgMi4zIDEuNyA1LS4yIDIuNy0yLjQgNC42LTEgLjgtMi41IDEuNGw0LjYgNS41em0tOC0xNi42LTEuNCAxLjIgNS4zIDYuM3ExLjQtLjMgMi40LTEuMSAxLjUtMS4yIDEuNS0zIC4xLTEuOC0xLjItMy4zLS45LTEtMi0xLjVhMi42IDIuNiAwIDAgMC0yIDBxLTEuMS4yLTIuNSAxLjR6bTIuMS0xNC4xIDItMS43IDEzLjIgMTUuNy0yIDEuN3ptNi45LTQuMXEuNS0uNCAxLjItLjQuNiAwIDEgLjYuNS41LjQgMS4xIDAgLjctLjYgMS4xLS40LjM5OS0xIC4zLS44IDAtMS4yLS41dC0uMy0xLjFxMC0uNy41LTEuMW0yLjcgNS4yIDItMS43IDguNyAxMC4zLTIgMS43em0xOS4zLTIuNyAxLjcgMnEtMSAxLjgtMi41IDMtMi40IDItNSAxLjgtMi43LS4yLTQuOC0yLjYtMi0yLjQtMS44LTUuMS4xLTIuNyAyLjQtNC42LjgtLjcgMS41LTFsMi0uOCAyIDIuMnEtMi41LjMtMy44IDEuNC0xLjQgMS4yLTEuNCAyLjktLjEgMS43IDEuMiAzLjIgMS4zIDEuNiAzIDEuNyAxLjguMDk5IDMuNC0xLjIgMS4yLTEgMi4xLTN6bTUuNi0xMS4zIDMuNyA0LjRxLjUuNi44LjMuNC0uNC43LTEuNmwxIDEuMy0uNiAxLjVxLS4yLjUtLjcgMS0xLjMgMS0yLjQuMi0uNSAyLjEtMiAzLjMtMSAxLTIuMy44LTEuMyAwLTIuMi0xLjItLjktMS0uOC0yLjMgMC0xLjMgMS0yLjlsMS44LTMtLjQtLjZxLTEuNi0xLjktMy41LS4zLTEuNiAxLjQtMS44IDQuNGwtMS44LTIuMnEwLTIuNCAyLjItNC4zIDEuNy0xLjQgMy40LTEuM2wxLjMuMnEuNi4yIDEgLjZ6bTEuNSA1LjktMi41LTMtMSAxLjZxLS43IDEuMy0uOCAyIDAgLjkuNSAxLjV0MS4zLjdxLjcgMCAxLjQtLjUgMS0uOCAxLjEtMi4zbS0xLjYtOS45LjYtNyAxLjggMi4xIDMuMy0yLjcgMS41IDEuOC0zLjIgMi44IDQuMiA1cTEuNSAxLjggMyAuNSAxLS45IDEuNy0yLjZsMS42IDEuOWE4LjMgOC4zIDAgMCAxLTIgMi44cS0xLjUgMS4yLTMgMS4xbC0xLS4xLTEtLjZxLS42LS40LTEuNy0xLjhsLTMuOS00LjUtMS44IDEuNXptNS4xLTE0LjZxLjUtLjQgMS4yLS4zLjYgMCAxIC41LjUuNS40IDEuMiAwIC42LS42IDEtLjQuNS0xLjEuNC0uNyAwLTEtLjYtLjUtLjQtLjQtMSAwLS44MDEuNS0xLjJtMi42IDUuMiAyLTEuNyA4LjggMTAuMy0yIDEuOHptOS45LTguM3EyLjQtMi4wMDEgNS4yLTEuOCAyLjkuMiA0LjggMi41dDEuNSA1cS0uMyAyLjktMi43IDQuOS0yLjMgMi01LjEgMS44LTIuOS0uMi00LjgtMi41dC0xLjUtNXEuMy0zIDIuNi01em0xLjUgMnEtMS41IDEuMi0xLjYgMy0uMiAxLjcgMSAzLjIgMS4zIDEuNCAzIDEuNiAxLjggMCAzLjQtMS4yIDEuNS0xLjIgMS42LTMgLjItMS43LTEtMy4yLTEuMy0xLjUtMy4xLTEuNi0xLjgtLjItMy4zIDEuMXptOC4zLTEwLjIgMS4xIDEuM3EuMS0yLjYgMS45LTQuMWE0LjcgNC43IDAgMCAxIDIuMi0xcTEuMi0uMjAxIDIuNC4zIDEuMi41IDIuNyAyLjRsNSA1LjktMiAxLjctNS01LjlxLTEuMy0xLjUtMi40LTEuOC0xLS4zLTIuMi43LTEuNCAxLjItMS4yIDMuNWw2LjIgNy4zTDIzOSA3OGwtOC43LTEwLjMgMi4xLTEuOHoiIGZpbGw9IiMyQTg2QzAiLz48cGF0aCBkPSJNMjYwLjUgNzcuNSAxMzkgMTc5LjUiIHN0cm9rZS13aWR0aD0iOCIgc3Ryb2tlPSIjMkE4NkMwIi8+PHBhdGggZD0ibTEzNC40MDEgMTc0LTEwLjEgMTggMTkuMy02Ljl6IiBzdHJva2Utd2lkdGg9IjgiIHN0cm9rZT0iIzJBODZDMCIgZmlsbD0iIzJBODZDMCIvPjxwYXRoIGQ9Ik00NjkuMzAxIDIyLjRjMC0xLjEtMy0yLTYuNS0yaC0xODdjLTMuNiAwLTYuNS45LTYuNSAydjYwLjhjMCAxLjIgMi45IDIuMSA2LjUgMi4xaDE4N2MzLjYgMCA2LjUtMSA2LjUtMnYtNjEiIGZpbGw9IiMyQTg2QzAiLz48cGF0aCBkPSJNMzE0LjQgNjQuOFY0MC4yaDcuOHEzLjUgMCA1LjYgMiAyLjEgMS44IDIuMSA1IDAgMi4yLTEgMy44YTUuOTIgNS45MiAwIDAgMS0zIDIuNHEtMS45LjgtNS4zLjhIMzE4djEwLjZ6bTcuMi0yMS40SDMxOFY1MWgzLjhxMi4yIDAgMy4zLTEgMS4yLTEgMS4yLTIuOSAwLTMuNy00LjctMy43bTE0LjQgNS4zdjMuN2wuMS0uM3EyLjQtMy44IDQuNy0zLjggMS44IDAgMy44IDEuOWwtMS43IDIuOHEtMS43LTEuNi0zLjEtMS42LTEuNTk5IDAtMi43IDEuNS0xLjEgMS40LTEuMSAzLjV2OC40aC0zLjNWNDguN3ptMTIuNS02LjlxLjggMCAxLjMuNi42LjUuNiAxLjN0LS42IDEuNHEtLjUuNS0xLjMuNXQtMS4zLS41cS0uNi0uNi0uNi0xLjQgMC0uNy42LTEuMy41LS42IDEuMy0uNm0tMS42IDYuOWgzLjJ2MTYuMWgtMy4yek0zNjggNTN2MTEuOGgtMy4zdi05cTAtMi43LS43LTMuN3QtMi41LTFxLTEgMC0xLjkuNC0uOC40LTEuOSAxLjZ2MTEuN2gtMy4yVjQ4LjdoMy4ydjJxMi41LTIuNCA0LjgtMi40IDMuMSAwIDQuOCAzIDIuNi0zIDUuMy0zIDIuNCAwIDQgMS43IDEuNCAxLjcgMS40IDUuM3Y5LjVoLTMuMnYtOS42cTAtMi0uOC0zLS44LTEuMS0yLjQtMS4xLTIgMC0zLjcgMnptMjQuNSAyLjFWNjJxMCAuOC42Ljh0MS44LS45djJsLTEuNyAxLTEuNC4ycS0yIDAtMi40LTEuNi0yIDEuNi00LjQgMS42LTEuNyAwLTIuOC0xLjEtMS4xLTEuMi0xLjEtMi44dDEtMi44cTEuMi0xLjIgMy4yLTEuOWw0LjEtMS40di0uOXEwLTIuOS0zLTIuOS0yLjUgMC01IDIuN3YtMy41cTEuOC0yLjIgNS4zLTIuMiAyLjcgMCA0LjIgMS40LjYuNCAxIDEuMi40LjcuNSAxLjR6bS0zLjEgNi41di00LjhsLTIuMS45cS0xLjcuNi0yLjQgMS4zLS42LjYtLjYgMS42dC42IDEuNnEuNy43IDEuNy43IDEuNSAwIDIuOC0xLjNtMTEuOC0xMi45djMuN2wuMi0uM3EyLjMtMy44IDQuNi0zLjggMS44IDAgMy44IDEuOWwtMS43IDIuOHEtMS41OTktMS42LTMtMS42LTEuNiAwLTIuOCAxLjUtMSAxLjQtMSAzLjV2OC40SDM5OFY0OC43em0yMS44IDBoMy42TDQxNS4yIDczaC0zLjZsNS41LTExLjctNi4zLTEyLjdoMy43bDQuMyA5IDQuMi05eiIgZmlsbD0iI2ZmZiIvPjxwYXRoIGQ9Im00OTIuNSA3MC4zIDEzLjEtMTUuNyA0IDMuM3EyLjMgMiAyLjcgNC4zLjQgMi40LTEuMiA0LjQtMS4yIDEuNC0yLjcgMS44dC0zLjItLjJxLjMgMS4xLjMgMi42dC0uNSA0LjdsLS4zIDMtLjEgMS45LTIuNy0yLjIuMi0xLjZ2LTEuNGwuMy0xLjcuMy0xLjhWNjlxMC0xLS4zLTEuN3QtMS40LTEuNmwtLjYtLjUtNS43IDYuOC0yLjItMS44em0xNC40LTExLjQtLjYtLjUtNC4yIDUgLjkuNnExLjcgMS41IDIuNSAxLjcgMSAuMiAxLjggMCAuOC0uMyAxLjUtMSAuNi0uODAxLjctMS44YTIuNiAyLjYgMCAwIDAtLjQtMS43cS0uNS0uOS0yLjItMi4zTTUxOSA4NGwtNy4yLTZxLTEuMiAxLjUtMSAzLjEuMSAxLjcgMS42IDIuOSAyIDEuNyA0LjggMS45bC0xLjcgMnEtMS41LS4yLTIuNi0uNy0xLjItLjUtMi40LTEuNi0xLjctMS40MDEtMi4yLTMtLjQtMS42IDAtMy4zLjMtMS43MDEgMS42LTMuMyAyLTIuNCA0LjYtMi43IDIuNS0uNCA0LjcgMS40IDIgMS43IDIgNC4ydC0yIDQuOXptLTYuMi03LjJMNTE4IDgxcTEtMS4zLjktMi41dC0xLjItMi4xcS0xLjEtMS0yLjQtLjktMS4yLjA5OS0yLjUgMS4yem0tLjMgMTkuMiAxMy0xNS42IDMuNiAzcTIuOCAyLjMgMy4yIDV0LTEuNyA1LjFxLTIgMi4zLTQuNyAyLjYtMi42LjMtNC45LTEuNi0xLS44LTEuOC0yLjJsLTQuNiA1LjV6bTE1LTEwLjctMS41LTEuMi01LjMgNi4zcS42IDEuMyAxLjYgMi4yIDEuNCAxLjIgMy4yIDEgMS43LS4zIDMtMS44LjktMSAxLjEtMi4yYTMuNzQgMy43NCAwIDAgMC0uMi0yLjFxLS41LTEtMS45LTIuMm0xNC4yLS40IDIgMS43LTEzIDE1LjctMi4xLTEuN3pNNTQ3IDkxcS41LjQuNSAxIC4xLjY5OS0uMyAxLjItLjQuNS0xLjEuNi0uNyAwLTEuMi0uNGExLjggMS44IDAgMCAxLS41LTFxMC0uNy40LTEuMnQxLS41cS43LS4xIDEuMi4zbS00LjcgMy41IDIgMS43LTguNiAxMC4zLTItMS43em02LjEgMTguNS0xLjcgMi4xcS0yLS43LTMuNS0yLTIuNC0yLTIuNy00LjYtLjItMi43IDEuOC01IDItMi41IDQuNy0yLjggMi43LS40IDUgMS42LjguNiAxLjMgMS4zdDEgMS45bC0xLjggMi4ycS0uNy0yLjMtMi0zLjQtMS40LTEuMi0zLTEtMS44LjMtMyAxLjgtMS40IDEuNTk5LTEuMiAzLjN0MS44IDMuMXExLjIgMSAzLjMgMS42em0xMiAzLjctMy43IDQuNHEtLjUuNS0uMS44dDEuNi40bC0xIDEuMy0xLjctLjQtMS0uNXEtMS4zLTEuMTAxLS43LTIuNC0yLjEgMC0zLjYtMS4zYTMuNjIgMy42MiAwIDAgMS0xLjItMi4ycTAtMS4zLjgtMi40LjgtMSAyLjItMS4yIDEuMy0uMSAzIC41bDMuNCAxLjMuNC0uNnExLjYtMS44LS4zLTMuNC0xLjYtMS40LTQuNy0xbDEuOS0yLjJxMi40LS40IDQuNiAxLjQgMS43IDEuNCAyIDMuMnYxLjJsLS41IDEuMnEtLjMuNi0xLjQgMS45bS01LjUgMi40IDIuNS0zLTEuOC0uNnEtMS40LS41LTIuMi0uNC0uNyAwLTEuMy42LS41LjctLjQgMS40IDAgLjguNyAxLjMgMSAuOCAyLjUuN205LjQtMy4zIDctLjYtMS43IDIuMiAzLjIgMi43LTEuNSAxLjgtMy4zLTIuNy00LjIgNXEtMS41IDEuOCAwIDMgMSAxIDIuOSAxLjNsLTEuNiAxLjlxLTEuNy0uMy0zLjEtMS41dC0xLjctMi44di0xcTAtLjQuNC0xbDEuNC0yIDMuOS00LjYtMS44LTEuNXptMTUuMiAyLjVxLjUuNS42IDEuMSAwIC42OTktLjMgMS4yLS41LjUtMS4xLjUtLjcgMC0xLjItLjMtLjUtLjQtLjUtMS4xdC4zLTEuMnEuNC0uNCAxLjEtLjUuNyAwIDEuMS4zbS00LjYgMy41IDIgMS44LTguNiAxMC4zLTItMS43em05LjkgOC4zcTIuNCAyIDIuNyA0LjkuMiAyLjgtMS43IDUtMS45IDIuMy00LjcgMi41LTIuOC4xLTUuMi0xLjktMi4zLTIuMDAxLTIuNi00Ljh0MS42LTVxMS45LTIuMyA0LjctMi41dDUuMiAxLjhtLTEuNiAxLjhxLTEuNS0xLjItMy4zLTEtMS43LjEtMyAxLjYtMS4yIDEuNS0xIDMuMi4yIDEuOCAxLjcgMyAxLjUgMS4yOTkgMy4yIDEuMiAxLjgtLjIgMy0xLjcgMS4zLTEuNCAxLTMuMi0uMS0xLjgtMS42LTMuMW0xMS40IDYuNS0xLjEgMS4zcTIuNi0uNCA0LjMgMSAxIC45IDEuNCAyIC40IDEuMy4xIDIuNXQtMS44IDMuMWwtNSA2LTItMS44IDQuOS01LjlxMS4zLTEuNiAxLjQtMi42LjEtMS4xLTEtMi0xLjUtMS4zLTMuNy0uN2wtNi4yIDcuNC0yLTEuOCA4LjYtMTAuMyAyIDEuOHoiIGZpbGw9IiMyQTg2QzAiLz48cGF0aCBkPSJtNDgwIDc3LjUgMTIxLjQgMTAxLjgiIHN0cm9rZS13aWR0aD0iOCIgc3Ryb2tlPSIjMkE4NkMwIi8+PHBhdGggZD0ibTU5Ni44MDEgMTg0LjggMTkuMyA2LjgtMTAtMTcuOXoiIHN0cm9rZS13aWR0aD0iOCIgc3Ryb2tlPSIjMkE4NkMwIiBmaWxsPSIjMkE4NkMwIi8+PHBhdGggZD0iTTMyNC44IDIxMS41aDNWMjMyaC0zdi05aC0xMS41djloLTIuOXYtMjAuNWgzdjguOWgxMS40em0xOC42IDE0aC05LjVxLjEgMiAxLjMgMyAxLjIgMS4yIDMgMS4yIDIuNyAwIDUtMS42djIuNnEtMS4zLjgtMi41IDEuMi0xLjIuMy0yLjguMy0yLjE5OSAwLTMuNi0xLTEuNC0uOC0yLjItMi40LS45LTEuNi0uOS0zLjYgMC0zIDEuOC01IDEuNzAxLTIgNC41LTIgMi43IDAgNC4zIDIgMS42IDEuOCAxLjYgNXptLTkuNC0xLjZoNi44cS0uMS0xLjYtMS0yLjUtLjgtLjgtMi4zLS44LTEuNCAwLTIuMy44LS45OTkuOS0xLjIgMi41bTIwLjcgMHY1LjdxMCAuNy41LjcuNTAxIDAgMS41LS43djEuNnEtLjkuNi0xLjUuOC0uNS4yLTEuMS4yLTEuNyAwLTItMS4zLTEuNyAxLjMtMy42IDEuMy0xLjQgMC0yLjQtMS0xLS45LTEtMi4zIDAtMS4yIDEtMi4ydDIuNi0xLjZsMy40LTEuMnYtLjdxMC0yLjQtMi40LTIuNC0yLjIgMC00LjMgMi4ydi0zcTEuNi0xLjcgNC41LTEuNyAyLjIgMCAzLjUgMS4xbC44IDEgLjQgMS4yem0tMi42IDUuNHYtNGwtMS44LjdxLTEuMy42LTIgMS4xLS41LjYtLjUgMS40dC42IDEuM3EuNS42IDEuMy42IDEuMyAwIDIuNC0xem05LjktMTAuOHYzLjFsLjEtLjJxMi4wMDEtMy4xIDMuOS0zLjEgMS41IDAgMy4xIDEuNWwtMS40IDIuM3EtMS40LTEuMy0yLjYtMS4zLTEuMyAwLTIuMiAxLjItMSAxLjMtMSAzdjdoLTIuNnYtMTMuNXptNy43IDIuMiA1LTV2Mi44aDQuM3YyLjRoLTQuM3Y2LjZxMCAyLjMgMiAyLjMgMS4zIDAgMy0xdjIuNnEtMS42LjgtMy40Ljh0LTMtMWwtLjctLjgtLjQtMXEtLjItLjctLjItMi41di02aC0yLjN6bTExLjgtOS4yaDIuNnY4cTEuOC0xLjMgMy43LTEuMyAyLjYwMSAwIDQuMiAyIDEuNyAxLjkgMS43IDUgMCAzLjItMiA1LjEtMiAyLTUuMiAyLTEuMjk5IDAtMi43LS4zLTEuNS0uMy0yLjMtLjd6TTM4NCAyMjJ2Ny4zcTEuNC40IDIuOC40IDEuOCAwIDMtMS4yIDEtMS4zIDEtMy4zdC0xLTMuMnEtLjk5OS0xLjMtMi43LTEuMy0xLjUgMC0zIDEuM3ptMjQgMy41aC05LjRxLjEgMiAxLjMgMyAxLjIgMS4yIDMgMS4yIDIuNyAwIDUtMS42djIuNnEtMS4zLjgtMi41IDEuMi0xLjIuMy0yLjguMy0yLjMgMC0zLjYtMS0xLjQtLjgtMi4yLTIuNC0uOS0xLjYtLjktMy42IDAtMyAxLjgtNSAxLjcwMS0yIDQuNS0yIDIuNyAwIDQuMyAyIDEuNiAxLjggMS42IDV2LjN6bS05LjMtMS42aDYuN3EwLTEuNi0xLTIuNS0uOC0uOC0yLjItLjh0LTIuNC44cS0uOS45LTEuMSAyLjVtMjAuNyAwdjUuN3EwIC43LjUuNy41MDEgMCAxLjUtLjd2MS42bC0xLjUuOHEtLjUuMi0xLjEuMi0xLjcgMC0yLTEuMy0xLjcgMS4zLTMuNyAxLjMtMS40IDAtMi4zLTEtMS0uOS0xLTIuMyAwLTEuMiAxLTIuMi45LTEgMi42LTEuNmwzLjQtMS4ydi0uN3EwLTIuNC0yLjQtMi40LTIuMiAwLTQuMyAyLjJ2LTNxMS42LTEuNyA0LjUtMS43IDIuMiAwIDMuNSAxLjFsLjggMSAuNCAxLjJ6bS0yLjYgNS40di00bC0xLjguN3EtMS40LjYtMiAxLjEtLjUuNi0uNSAxLjR0LjUgMS4zcS42LjYgMS40LjYgMS4zIDAgMi40LTF6bTUuMS04LjYgNS01djIuOGg0LjN2Mi40aC00LjN2Ni42cTAgMi4zIDIgMi4zIDEuNDAxIDAgMy0xdjIuNnEtMS42LjgtMy40Ljh0LTMtMWwtLjctLjgtLjQtMXEtLjItLjctLjItMi41di02SDQyMnYtLjJ6IiBmaWxsPSIjNEY0QzRCIi8+PHBhdGggZD0iTTI0Ni41IDIzNy41aDI0Ny4yIiBzdHJva2Utd2lkdGg9IjQiIHN0cm9rZT0iIzRGNEM0QiIvPjxwYXRoIGQ9Im0yNDYuNDk5IDIzMi43LTEyLjggNC44IDEyLjggNC44em0yNDcuMiA5LjYgMTIuOC00LjgtMTIuOC00Ljh6IiBzdHJva2Utd2lkdGg9IjQiIHN0cm9rZT0iIzRGNEM0QiIgZmlsbD0iIzRGNEM0QiIvPjwvc3ZnPg==;" vertex="1" parent="1">
          <mxGeometry x="120" y="50" width="520" height="197" as="geometry" />
        </mxCell>
        <mxCell id="FX5OmkcN8bD2J4cv3eW1-3" value="" style="shape=image;imageAspect=0;aspect=fixed;verticalLabelPosition=bottom;verticalAlign=top;image=data:image/svg+xml,PHN2ZyB4bWxucz0iaHR0cDovL3d3dy53My5vcmcvMjAwMC9zdmciIGZpbGw9Im5vbmUiIGhlaWdodD0iNTAwIiB3aWR0aD0iNjYwIiB2aWV3Qm94PSIwIDAgNjYwIDUwMCI+PHBhdGggZD0iTTAgMGg2NjB2NTAwSDB6IiBmaWxsPSIjZmZmIi8+PHBhdGggZD0iTTI4NC44IDE2OS44aDN2MjAuNWgtM3YtOWgtMTEuNXY5aC0yLjl2LTIwLjVoM3Y4LjhoMTEuNHptMTguNiAxMy45aC05LjVxLjEgMiAxLjMgMy4xIDEuMiAxLjIgMyAxLjIgMi43IDAgNS0xLjd2Mi42cS0xLjMuOS0yLjUgMS4yLTEuMi40LTIuOC40LTIuMTk5IDAtMy42LTFhNi4zNyA2LjM3IDAgMCAxLTIuMi0yLjRxLS45LTEuNi0uOS0zLjcgMC0zIDEuOC01IDEuNzAxLTEuOSA0LjUtMS45IDIuNyAwIDQuMyAxLjl0MS42IDV6bS05LjQtMS41aDYuOHEtLjEtMS42LTEtMi41LS44LS45LTIuMy0uOS0xLjQgMC0yLjMuOS0uOTk5LjktMS4yIDIuNW0yMC43IDB2NS43cTAgLjcuNS43LjUwMSAwIDEuNS0uN3YxLjZxLS45LjYtMS41LjgtLjUuMi0xLjEuMi0xLjcgMC0yLTEuNC0xLjcgMS40LTMuNiAxLjQtMS40IDAtMi40LTEtMS0uOS0xLTIuMyAwLTEuMyAxLTIuM3QyLjYtMS42bDMuNC0xLjF2LS44cTAtMi40LTIuNC0yLjQtMi4yIDAtNC4zIDIuM3YtM3ExLjYtMS44IDQuNS0xLjggMi4yIDAgMy41IDEuMi40LjMuOCAxIC4zLjUuNCAxLjJ6bS0yLjYgNS40di00bC0xLjguN3EtMS4zLjUtMiAxLS41LjYtLjUgMS40IDAgLjkuNiAxLjQuNS41IDEuMy41IDEuMyAwIDIuNC0xbTkuOS0xMC44djNsLjEtLjJxMi4wMDEtMyAzLjktMyAxLjUgMCAzLjEgMS40bC0xLjQgMi40cS0xLjQtMS4zLTIuNi0xLjMtMS4zIDAtMi4yIDEuMi0xIDEuMi0xIDN2N2gtMi42di0xMy41em03LjcgMi4yIDUtNXYyLjhoNC4zdjIuNGgtNC4zdjYuNnEwIDIuMyAyIDIuMyAxLjMgMCAzLTF2Mi41cS0xLjYuOS0zLjQuOXQtMy0xbC0uNy0uOC0uNC0xcS0uMi0uNy0uMi0yLjV2LTZoLTIuM3YtLjN6bTExLjgtOS4yaDIuNnY4cTEuOC0xLjMgMy43LTEuMyAyLjYwMSAwIDQuMiAyIDEuNyAxLjkgMS43IDQuOSAwIDMuMi0yIDUuMi0yIDEuOS01LjIgMS45LTEuMjk5IDAtMi43LS4zLTEuNS0uMy0yLjMtLjd6bTIuNiAxMC41djcuM3ExLjQuNCAyLjguNCAxLjggMCAzLTEuMyAxLTEuMiAxLTMuMnQtMS0zLjNxLS45OTktMS4yLTIuNy0xLjItMS41IDAtMyAxLjN6bTIzLjkgMy40aC05LjRxLjEgMiAxLjMgMy4xIDEuMiAxLjIgMyAxLjIgMi43IDAgNS0xLjd2Mi42cS0xLjMuOS0yLjUgMS4yLTEuMi40LTIuOC40LTIuMyAwLTMuNi0xYTYuMzcgNi4zNyAwIDAgMS0yLjItMi40cS0uOS0xLjYtLjktMy43IDAtMyAxLjgtNSAxLjcwMS0xLjkgNC41LTEuOSAyLjcgMCA0LjMgMS45dDEuNiA1di4zem0tOS4zLTEuNWg2LjdxMC0xLjYtMS0yLjUtLjgtLjktMi4yLS45dC0yLjQuOXEtLjkuOS0xLjEgMi41bTIwLjcgMHY1LjdxMCAuNy41LjcuNTAxIDAgMS41LS43djEuNmwtMS41LjhxLS41LjItMS4xLjItMS43IDAtMi0xLjQtMS43IDEuNC0zLjcgMS40LTEuNCAwLTIuMy0xLTEtLjktMS0yLjMgMC0xLjMgMS0yLjMuOS0xIDIuNi0xLjZsMy40LTEuMXYtLjhxMC0yLjQtMi40LTIuNC0yLjIgMC00LjMgMi4zdi0zcTEuNi0xLjggNC41LTEuOCAyLjIgMCAzLjUgMS4yLjQuMy44IDEgLjMuNS40IDEuMnptLTIuNiA1LjR2LTRsLTEuOC43cS0xLjQuNS0yIDEtLjUuNi0uNSAxLjQgMCAuOS41IDEuNC42LjUgMS40LjUgMS4zIDAgMi40LTFtNS4xLTguNiA1LTV2Mi44aDQuM3YyLjRoLTQuM3Y2LjZxMCAyLjMgMiAyLjMgMS40MDEgMCAzLTF2Mi41cS0xLjYuOS0zLjQuOXQtMy0xbC0uNy0uOC0uNC0xcS0uMi0uNy0uMi0yLjV2LTZIMzgydi0uM3oiIGZpbGw9IiM0RjRDNEIiLz48cGF0aCBkPSJNMjU2LjEwMiAxOTUuNmgxNDcuNyIgc3Ryb2tlLXdpZHRoPSI0IiBzdHJva2U9IiM0RjRDNEIiLz48cGF0aCBkPSJtMjU2LjEwMSAxOTAuOC0xMi44IDQuOCAxMi44IDQuOHptMTQ3LjggOS42IDEyLjgtNC44LTEyLjgtNC44eiIgc3Ryb2tlLXdpZHRoPSI0IiBzdHJva2U9IiM0RjRDNEIiIGZpbGw9IiM0RjRDNEIiLz48cGF0aCBkPSJNMTAuMyAxNDIuNGg2MzkuMDAxdjg1LjFoLTYzOXoiIHN0cm9rZS13aWR0aD0iMiIgc3Ryb2tlLWRhc2hhcnJheT0iNCA0IiBzdHJva2U9IiNEMzM5MDciLz48cGF0aCBkPSJNMzMwIDI0MC44djU0LjgiIHN0cm9rZS13aWR0aD0iMTAiIHN0cm9rZT0iIzMwMUUxMyIvPjxwYXRoIGQ9Ik0zMjEuNiAyOTUuNiAzMzAgMzE4bDguNC0yMi40eiIgc3Ryb2tlLXdpZHRoPSIxMCIgc3Ryb2tlPSIjMzAxRTEzIiBmaWxsPSIjMzAxRTEzIi8+PHBhdGggZD0iTTE0NS4zMDEgMTA5LjdoMTR2My4xaC0xMC41djcuNWgxMHYzLjFoLTEwdjcuN2gxMC43djMuMWgtMTQuMnptMTcuNyAwaDMuMXYyNC41aC0zLjF6bTIxLjYgMTYuN2gtMTEuNHEuMDk5IDIuNCAxLjUgMy43IDEuNSAxLjQgMy44IDEuNCAzLjEgMCA1LjgtMnYzLjJxLTEuNSAxLTMgMS40LTEuNDAxLjQtMy4zLjQtMi43IDAtNC40LTEuMS0xLjYtMS4xMDEtMi42LTN0LTEtNC4zcTAtMy43IDIuMS02IDItMi4zIDUuNC0yLjMgMy4yIDAgNS4yIDIuMiAxLjkgMi4zIDEuOSA2em0tMTEuMy0xLjloOC4xcS0uMS0xLjktMS4xLTMtMS0xLTIuOC0xLTEuNyAwLTIuOCAxLTEgMS4xLTEuNCAzbTI2LjkgNnYzLjFxLTIuNSAxLTQuOCAxLTMuODAxIDAtNi0yLjMtMi4zLTIuMzAxLTIuMy02IDAtMy45IDIuMi02LjJ0NS44LTIuM3ExLjMgMCAyLjIuMiAxIC4yIDIuNS45djMuNHEtMi40LTEuNi00LjUtMS42LTIuMiAwLTMuNiAxLjYtMS4zIDEuNS0xLjMgMy44IDAgMi41IDEuNSA0IDEuNSAxLjQgNCAxLjQgMS45IDAgNC4zLTFtMS4zLTkuOSA2LTUuOXYzLjRoNS4xdjIuOWgtNXY3LjlxMCAyLjggMi4yIDIuOCAxLjcgMCAzLjctMS4ydjNhOC41IDguNSAwIDAgMS00IDFxLTIuMyAwLTMuNy0xLjMtLjUtLjMtLjgtLjh0LS41LTEuMy0uMi0zVjEyMWgtMi44em0xNS45LTkuM3EuOCAwIDEuNC41LjYuNi42IDEuMyAwIC44LS42IDEuNC0uNi41LTEuNC41LS43IDAtMS4zLS41LS41LS42LS41LTEuNCAwLS43LjUtMS4zLjYtLjUgMS4zLS41bS0xLjQgNi43aDMuMnYxNi4xaC0zLjJ6bTE1LjQgMHEzLjcgMCA2LjEgMi40IDIuNSAyLjQgMi41IDYgMCAzLjUtMi41IDUuOHQtNi4yIDIuMy02LjEtMi4zcS0yLjUtMi40LTIuNS01Ljl0Mi41LTUuOSA2LjItMi40bS0uMiAzcS0yLjMgMC0zLjggMS40LTEuNCAxLjUtMS40IDMuOSAwIDIuMyAxLjUgMy44IDEuNSAxLjQgMy45IDEuNCAyLjMgMCAzLjgtMS40IDEuNS0xLjUgMS41LTMuOSAwLTIuMy0xLjUtMy44LTEuNi0xLjUtNC0xLjV6bTE1LjUtM3YyLjFxMi4xLTIuMyA0LjktMi4zIDEuNSAwIDIuOC43YTUuMyA1LjMgMCAwIDEgMiAyLjJxLjYgMS4zLjYgNC4zdjkuMmgtMy4yVjEyNXEwLTIuNC0uNy0zLjUtLjgtMS0yLjYtMS0yLjIgMC0zLjggMi4ydjExLjVoLTMuM3YtMTYuMWgzLjN6bTI1LjIgMHYtLjlxMC0zLjkgMS42LTUuOCAxLjctMiA0LTIgLjk5OSAwIDIuNC40djMuMXEtLjgwMS0uMy0xLjUtLjMtMS45IDAtMi42IDEtLjcuOTk5LS43IDMuNnYxaDIuOHYyLjloLTIuOHYxMy4yaC0zLjJWMTIxaC0yLjR2LTN6bTE2IDBxMy43IDAgNi4xIDIuNHQyLjQgNnEwIDMuNS0yLjQgNS44LTIuNSAyLjMtNi4zIDIuMy0zLjYgMC02LTIuMy0yLjUtMi40LTIuNS01Ljl0Mi41LTUuOXEyLjQtMi40IDYuMi0yLjRtLS4yIDNxLTIuMyAwLTMuOCAxLjQtMS41IDEuNS0xLjUgMy45IDAgMi4zIDEuNSAzLjggMS42IDEuNCA0IDEuNCAyLjMgMCAzLjgtMS40IDEuNS0xLjUgMS41LTMuOSAwLTIuMy0xLjYtMy44LTEuNS0xLjUtNC0xLjV6bTE1LjctM3YzLjhsLjItLjNxMi4zLTMuNyA0LjYtMy43IDEuOCAwIDMuOCAxLjhsLTEuNyAyLjhxLTEuNy0xLjYtMy4xLTEuNi0xLjUgMC0yLjcgMS41LTEuMSAxLjUtMS4xIDMuNXY4LjRoLTMuMnYtMTYuMWgzLjJ6bTQwLjgtOC4zaDMuM3YyNC41aC0zbC0xNi41LTE4Ljl2MTloLTMuM3YtMjQuNmgyLjhsMTYuNiAxOXYtMTl6bTIxLjkgMTYuN2gtMTEuNHEuMiAyLjQgMS42IDMuNyAxLjQgMS40IDMuNyAxLjQgMy4yIDAgNS44LTJ2My4ycS0xLjQgMS0yLjkgMS40LTEuNC40LTMuNC40LTIuNyAwLTQuMy0xLjEtMS43MDEtMS4xMDEtMi43LTN0LTEtNC4zcTAtMy43IDIuMS02dDUuNS0yLjNxMy4yIDAgNS4xIDIuMiAyIDIuMyAyIDZ2LjR6bS0xMS4zLTEuOWg4LjJxLS4yMDEtMS45LTEuMi0zLTEtMS0yLjctMXQtMi45IDFxLTEgMS4xLTEuNCAzbTM0LjQtNi41aDMuNGwtNy4xIDE2LjVoLTFsLTQuOC0xMS4yLTQuNyAxMS4yaC0xbC03LjMtMTYuNGgzLjVsNC4yIDkuOCA0LjEtOS44aDIuNGw0IDkuOCA0LjMtOS44em0xNS45IDE2LjJ2LTI0LjZoNy44cTMuNSAwIDUuNiAyIDIuMSAxLjggMi4xIDUgMCAyLjItMSAzLjhhNS45MyA1LjkzIDAgMCAxLTMgMi40cS0xLjkuOC01LjQuOGgtMi42djEwLjZ6bTcuMi0yMS40aC0zLjd2Ny43aDMuOXEyLjEgMCAzLjMtMXQxLjItM3EwLTMuNy00LjctMy43bTE0LjMgNS4ydjMuOGwuMi0uM3EyLjMtMy43IDQuNy0zLjcgMS44IDAgMy43IDEuOGwtMS42IDIuOHEtMS43LTEuNi0zLjEtMS42LTEuNiAwLTIuNyAxLjUtMS4yIDEuNS0xLjIgMy41djguNGgtMy4ydi0xNi4xaDMuMnptMTIuNS02LjdxLjggMCAxLjQuNS42LjYuNiAxLjMgMCAuOC0uNiAxLjQtLjYuNS0xLjQuNS0uNyAwLTEuMy0uNS0uNS0uNi0uNS0xLjQgMC0uNy41LTEuMy42LS41IDEuMy0uNW0tMS41IDYuOGgzLjJ2MTYuMWgtMy4yem0yMSA0LjR2MTEuN2gtMy4ydi05cTAtMi42LS43LTMuNy0uNy0xLTIuNS0xLTEgMC0xLjkuNC0uOC40LTEuOSAxLjZ2MTEuN2gtMy4ydi0xNi4xaDMuMnYyLjFxMi40OTktMi40IDQuOC0yLjQgMyAwIDQuOCAyLjkgMi41LTMgNS4zLTMgMi40IDAgMy45IDEuNyAxLjUgMS44IDEuNSA1LjN2OS41aC0zLjJ2LTkuNXEwLTItLjgtMy4xLS44MDEtMS4xLTIuNC0xLjEtMiAwLTMuNyAybTI0LjYgMnY2LjlxMCAuOC42Ljh0MS44LS44djJsLTEuOC45YTQuMSA0LjEgMCAwIDEtMS4zLjJxLTIgMC0yLjUtMS42LTIgMS42LTQuMyAxLjYtMS43IDAtMi44LTEuMXQtMS4xLTIuOHEwLTEuNiAxLTIuOCAxLjItMS4yIDMuMi0xLjlsNC0xLjR2LS44cTAtMy0yLjgtMy0yLjcgMC01LjEgMi43VjEyMHExLjgtMi4xIDUuMy0yLjEgMi42IDAgNC4yIDEuMy42LjUgMSAxLjIuNC42OTkuNSAxLjVsLjEgMi43em0tMy4xIDYuNXYtNC44bC0yLjIuOXEtMS42LjYtMi4zIDEuMy0uNy42LS43IDEuNnQuNyAxLjdxLjYuNiAxLjcuNiAxLjUgMCAyLjgtMS4zbTExLjgtMTN2My44bC4yLS4zcTIuMy0zLjcgNC42LTMuNyAxLjggMCAzLjggMS44bC0xLjcgMi44cS0xLjcwMS0xLjYtMy0xLjYtMS42IDAtMi44IDEuNS0xLjEgMS41LTEuMSAzLjV2OC40aC0zLjJ2LTE2LjFoMy4yem0yMS44IDBoMy42bC0xMS40IDI0LjVoLTMuNmw1LjUtMTEuNy02LjMtMTIuN2gzLjdsNC4zIDkgNC4yLTl6IiBmaWxsPSIjMzAxRTEzIi8+PHBhdGggZD0ibTIzMC42OTkgNDMxLjMgMTY2LjktLjMiIHN0cm9rZS13aWR0aD0iOSIgc3Ryb2tlPSIjMkE4NkMwIi8+PHBhdGggZD0ibTM5Ny42IDQzOC44IDIwLjgtNy44LTIwLjgtNy44eiIgc3Ryb2tlLXdpZHRoPSI5IiBzdHJva2U9IiMyQTg2QzAiIGZpbGw9IiMyQTg2QzAiLz48cGF0aCBkPSJNMjU5IDQyMi44di0yMC40aDUuMXEzLjEgMCA1IDEuNSAxLjggMS41IDEuOCA0LjIgMCAxLjgtMSAzLS44IDEuNC0yLjUgMiAxIC43IDIgMS44LjkgMSAyLjYgMy44IDEgMS44IDEuNyAyLjdsMSAxLjRoLTMuNGwtMS0xLjN2LS4zbC0uNy0uOC0uOS0xLjUtMS0xLjYtMS42LTJxLS44LS43LTEuNC0xLS42LS40LTItLjRoLS44djloLTN6bTMuOC0xOGgtLjl2Ni41aDEuMXEyLjMwMSAwIDMtLjQgMS0uMyAxLjQtMS4xdC40LTEuOC0uNS0xLjdxLS41LS44LTEuNC0xLjEtMS0uMy0zLjEtLjN6bTI1LjQgMTEuNWgtOS41cS4xIDIgMS4zIDMuMXQzIDEuMXEyLjcgMCA1LTEuNnYyLjZxLTEuMy44MDEtMi41IDEuMi0xLjIuMy0yLjguMy0yLjE5OSAwLTMuNi0uOWE3LjIgNy4yIDAgMCAxLTIuMi0yLjVxLS45LTEuNS0uOS0zLjYgMC0zIDEuOC01IDEuNzAxLTIgNC41LTIgMi43IDAgNC4zIDIgMS42IDEuOCAxLjYgNXptLTkuNC0xLjZoNi43cTAtMS41OTktLjktMi40LS45LS45LTIuMy0uOXQtMi4zLjlxLS45OTkuODAxLTEuMiAyLjRtMTIuMSAxNXYtMjAuM2g0LjdxMy41IDAgNS41IDEuNyAyIDEuOCAyIDUgMCAzLTEuOCA1LTIgMi00LjggMi0xLjMgMC0yLjktLjZ2Ny4yaC0yLjdtNC42LTE3LjloLTEuOXY4LjNxMS4yLjcgMi42LjcgMS45IDAgMy0xLjMgMS4yLTEuMyAxLjItMy40IDAtMS4zLS41LTIuM2EzLjg1IDMuODUgMCAwIDAtMS42LTEuNXEtMS0uNS0yLjgtLjVtMTAuNi05LjRoMi43djIwLjRIMzA2di0yMC40em03LjkgMS4zcS43IDAgMS4yLjQuNS41MDEuNSAxLjIgMCAuNi0uNSAxLS41LjUtMS4xLjUtLjcgMC0xLjEtLjQtLjUtLjUtLjUtMS4xIDAtLjcuNS0xLjEuNC0uNSAxLS41bS0xLjMgNS43aDIuN3YxMy40aC0yLjd6bTE2LjYgMTAuM3YyLjZxLTIgLjgtMy45LjgtMy4xIDAtNS0yLTItMS44LTItNSAwLTMuMSAyLTUgMS44LTIgNC43LTIgMSAwIDEuOS4ybDIgLjd2Mi45cS0yLTEuMy0zLjctMS4zLTEuOCAwLTMgMS4zLTEuMSAxLjItMS4xIDMuMnQxLjIgMy4zcTEuMyAxLjIgMy40IDEuMiAxLjYgMCAzLjUtMXptMTEuNS01djUuOHEwIC42LjUuNi41MDEgMCAxLjUtLjd2MS43bC0xLjUuN3EtLjUuMy0xLjEuMy0xLjcgMC0yLTEuNC0xLjcgMS4zLTMuNiAxLjMtMS40IDAtMi40LS45LTEtMS0xLTIuM3QxLTIuMyAyLjYtMS42bDMuNC0xLjJ2LS43cTAtMi40LTIuNC0yLjQtMi4yIDAtNC4zIDIuMlY0MTFxMS42LTEuOCA0LjUtMS44IDIuMiAwIDMuNSAxLjFsLjggMSAuNCAxLjIuMSAyLjN6bS0yLjYgNS41di00bC0xLjguN3EtMS4zLjUtMiAxLS41LjYtLjUgMS40IDAgLjkuNiAxLjQuNS41IDEuNC41IDEuMiAwIDIuMy0xbTUuMS04LjcgNS01djIuOWg0LjN2Mi40aC00LjN2Ni42cTAgMi4zIDIgMi4zIDEuNDAxIDAgMy0xdjIuNXEtMS42LjktMy40Ljl0LTMtMS4xbC0uNy0uNy0uNC0xLS4xLTIuNnYtNmgtMi40em0xMy4zLTcuOHEuNyAwIDEuMS40LjUuNTAxLjUgMS4yIDAgLjYtLjUgMS0uNC41LTEuMS41LS42IDAtMS0uNC0uNi0uNS0uNi0xLjEgMC0uNy41LTEuMS41LS41IDEtLjV6bS0xLjMgNS43aDIuNnYxMy40aC0yLjZ6bTEyLjktLjFxMy4xIDAgNS4xIDJ0MiA1LTIgNC44cS0yIDItNS4yIDItMyAwLTUtMi0yLjEtMi0yLjEtNC45IDAtMyAyLTQuOSAyLjEtMiA1LjItMm0tLjEgMi40cS0yIDAtMy4yIDEuMy0xLjIgMS4yLTEuMiAzLjJ0MS4zIDMuMnExLjIgMS4yIDMuMiAxLjJ0My4yLTEuM3ExLjMtMS4yIDEuMy0zLjEgMC0yLTEuMy0zLjItMS4yOTktMS4zLTMuMy0xLjNtMTIuOS0yLjN2MS43cTEuOC0yIDQtMiAxLjMgMCAyLjQuNyAxIC42IDEuNiAxLjcuNiAxLjIuNiAzLjZ2Ny43aC0yLjd2LTcuNnEwLTIuMS0uNi0zdC0yLjEtLjlxLTIgMC0zLjIgMnY5LjVoLTIuOHYtMTMuNHoiIGZpbGw9IiMyQTg2QzAiLz48cGF0aCBkPSJNMTk2LjMgMzU1LjJoMy4zdjI0LjZoLTNsLTE2LjQtMTl2MTloLTMuM3YtMjQuNmgyLjhsMTYuNiAxOXptMjEuOSAxNi44aC0xMS40cS4yIDIuMyAxLjYgMy43IDEuNCAxLjMgMy43IDEuMyAzLjIgMCA1LjgtMnYzLjJxLTEuNCAxLTIuOSAxLjQtMS40LjQtMy40LjQtMi43IDAtNC4zLTFhOC45NiA4Ljk2IDAgMCAxLTIuNy0zcS0xLTItMS00LjQgMC0zLjY5OSAyLjEtNiAyLjEtMi4zIDUuNS0yLjMgMy4yMDEgMCA1LjEgMi4yIDIgMi4zMDEgMiA2di41em0tMTEuMy0yaDguMnEtLjItMS45LTEuMi0yLjktLjk5OS0xLTIuNy0xLTEuOCAwLTIuOSAxLTEgMS0xLjQgM3ptMzQuNC02LjRoMy40bC03LjEgMTYuNWgtMWwtNC44LTExLjMtNC43IDExLjNoLTFsLTcuMy0xNi41aDMuNWw0LjIgOS44IDQuMS05LjhoMi40bDQgOS44em0xNS45IDE2LjJ2LTI0LjZoNy44cTMuNSAwIDUuNiAxLjl0Mi4xIDVxMCAyLjItMSAzLjktMS4xIDEuNi0zIDIuNC0xLjg5OS43LTUuNC43aC0yLjZ2MTAuN3ptNy4yLTIxLjVoLTMuN3Y3LjdoMy45cTIuMSAwIDMuMy0xdDEuMi0yLjlxMC0zLjgtNC43LTMuOG0xNC4zIDUuM3YzLjdsLjItLjNxMi4zLTMuNyA0LjctMy43IDEuOCAwIDMuNyAxLjhsLTEuNiAyLjhxLTEuNy0xLjUtMy4xLTEuNS0xLjU5OSAwLTIuNyAxLjQtMS4yIDEuNS0xLjIgMy41djguNWgtMy4ydi0xNi4yem0xMi41LTYuOHEuOCAwIDEuNC42LjYuNS42IDEuM3QtLjYgMS4zcS0uNi42LTEuNC42LS43IDAtMS4zLS42LS41LS42LS41LTEuM3QuNS0xLjNxLjYtLjYgMS4zLS42bS0xLjUgNi44aDMuMnYxNi4yaC0zLjJ6bTIxIDQuNHYxMS44aC0zLjJ2LTlxMC0yLjctLjctMy44LS43LTEtMi41LTEtMSAwLTEuOS40LS44LjUtMS45IDEuNnYxMS44aC0zLjJ2LTE2LjJoMy4ydjIuMXEyLjUtMi40IDQuOC0yLjQgMyAwIDQuOCAzIDIuNS0zIDUuMy0zIDIuNCAwIDMuOSAxLjd0MS41IDUuMnY5LjZoLTMuMnYtOS42cTAtMi0uOC0zLS44LTEuMi0yLjQtMS4yLTIgMC0zLjcgMm0yNC42IDJ2N3EwIC44LjYuOHQxLjgtLjl2MnEtLjk5OS43LTEuOC45LS42LjMtMS4zLjMtMiAwLTIuNS0xLjctMiAxLjYtNC4zIDEuNi0xLjcgMC0yLjgtMS0xLjEtMS4yLTEuMS0yLjkgMC0xLjUgMS0yLjcgMS4yLTEuMiAzLjItMmw0LTEuM3YtLjlxMC0zLTIuOC0zLTIuNyAwLTUuMSAyLjh2LTMuNXExLjgtMi4yIDUuMy0yLjIgMi42MDEgMCA0LjIgMS40LjYuNCAxIDEuMS40LjgwMS41IDEuNWwuMSAyLjh6bS0zLjEgNi42di00LjhsLTIuMi44cS0xLjYuNy0yLjMgMS4zYTIuMzIgMi4zMiAwIDAgMC0uNyAxLjdxMCAxIC43IDEuNi42LjYgMS42LjYgMS42IDAgMi45LTEuMm0xMS44LTEzdjMuN2wuMi0uM3EyLjMtMy43IDQuNi0zLjcgMS44IDAgMy44IDEuOGwtMS43IDIuOHEtMS43LTEuNS0zLTEuNS0xLjYgMC0yLjggMS40LTEuMSAxLjUtMS4xIDMuNXY4LjVoLTMuMnYtMTYuMnptMjEuOCAwaDMuNkwzNTcuOSAzODhoLTMuNWw1LjUtMTEuNy02LjMtMTIuN2gzLjdsNC4zIDkuMSA0LjItOXptMTYuMi04LjRoMTR2My4yaC0xMC40djcuNGgxMHYzLjJoLTEwdjcuNmgxMC43djMuMWgtMTQuMnYtMjQuNXptMTcuNyAwaDMuMnYyNC42aC0zLjJ6bTIxLjcgMTYuOEg0MTBxLjEgMi4zIDEuNSAzLjcgMS41IDEuMyAzLjcgMS4zIDMuMiAwIDUuOS0ydjMuMnEtMS41IDEtMyAxLjQtMS40LjQtMy40LjQtMi42IDAtNC4zLTFhOS40IDkuNCAwIDAgMS0yLjYtM3EtMS0yLTEtNC40IDAtMy42OTkgMi02IDIuMi0yLjMgNS41LTIuMyAzLjIwMSAwIDUuMSAyLjIgMiAyLjMwMSAyIDZ6bS0xMS4zLTJoOHEwLTEuOS0xLTIuOXQtMi44LTFxLTEuNyAwLTIuOCAxdC0xLjQgM3ptMjYuOSA2djMuMnEtMi40OTkuOS00LjguOS0zLjggMC02LTIuMy0yLjMtMi4xOTktMi4zLTYgMC0zLjggMi4yLTYuMiAyLjItMi4zIDUuOC0yLjMgMS4yIDAgMi4yLjJsMi41IDF2My4zcS0yLjQtMS41LTQuNS0xLjUtMi4xOTkgMC0zLjYgMS41LTEuNCAxLjUtMS40IDMuOSAwIDIuNSAxLjUgNCAxLjUgMS40IDQgMS40IDIgMCA0LjMtMXptMS4zLTkuOCA2LTZ2My40aDUuMXYyLjloLTUuMXY4cTAgMi43IDIuMyAyLjcgMS43MDEgMCAzLjYtMS4ydjNxLTEuOCAxLTQgMS0yLjE5OSAwLTMuNi0xLjJhMy40IDMuNCAwIDAgMS0uOC0uOWwtLjUtMS4ycS0uMi0uOC0uMi0zdi03LjJoLTIuOHptMjguMSA1LjhINDU1cS4xIDIuMyAxLjUgMy43IDEuNSAxLjMgMy43IDEuMyAzLjIgMCA1LjktMnYzLjJxLTEuNSAxLTMgMS40LTEuNC40LTMuNC40LTIuNiAwLTQuMy0xYTkuNCA5LjQgMCAwIDEtMi42LTNxLTEtMi0xLTQuNCAwLTMuNjk5IDItNiAyLjItMi4zIDUuNS0yLjMgMy4yMDEgMCA1LjEgMi4yIDIgMi4zMDEgMiA2em0tMTEuMy0yaDhxMC0xLjktMS0yLjl0LTIuOC0xcS0xLjcgMC0yLjggMXQtMS40IDN6bTI1LjUtMTQuOGgzLjJ2MjQuNkg0NzdxLTMuNiAwLTUuOC0yLjMtMi0yLjMtMi02IDAtMy42IDIuMS02IDIuMy0yLjIgNS44LTIuMiAxLjYgMCAzLjUuNnptMCAyMS44di0xMC4ycS0xLjUtLjgtMy0uOC0yLjQgMC0zLjggMS42LTEuNSAxLjYtMS41IDQuMiAwIDIuNSAxLjMgMy45LjcuOCAxLjUgMSAuOS4zIDMgLjN6IiBmaWxsPSIjMzAxRTEzIi8+PHBhdGggZD0iTTIyNSAxNTQuOWMwLTEuMi0zLTIuMS02LjUtMi4xaC0xODdjLTMuNiAwLTYuNS45LTYuNSAydjYwLjhjMCAxLjIgMyAyLjIgNi41IDIuMmgxODdjMy42IDAgNi41LTEgNi41LTIuMlYxNTUiIGZpbGw9IiM1Q0E4MzEiLz48cGF0aCBkPSJtNTcuNyAxODcuMi0yLjctMS42cS0yLjQ5OS0xLjYtMy42LTMtMS0xLjUtMS0zLjUgMC0yLjkgMi00Ljd0NS4yLTEuOGExMC4yIDEwLjIgMCAwIDEgNS43IDEuN3Y0cS0yLjctMi41LTUuNy0yLjUtMS44IDAtMi45LjgtMSAuOC0xIDIgMCAxLjEuNyAyLjEuODAxIDEgMi43IDJsMi42IDEuNnE0LjUgMi43IDQuNSA2LjggMCAzLTIgNC44LTIgMS45LTUgMS45LTMuNyAwLTYuNy0yLjN2LTQuNHEyLjggMy42IDYuNiAzLjYgMS42IDAgMi43LTEgMS4xLS45IDEuMS0yLjMgMC0yLjItMy4yLTQuMm0yMy44IDIuNUg3MHEuMSAyLjMgMS42IDMuNyAxLjQgMS40IDMuNyAxLjQgMy4xIDAgNS44LTJ2My4xcS0xLjUgMS0zIDEuNC0xLjQuNC0zLjMuNC0yLjcgMC00LjMtMWE4Ljk1IDguOTUgMCAwIDEtMi43LTNxLTEtMi0xLTQuNCAwLTMuNyAyLjEtNnQ1LjQtMi4zIDUuMiAyLjNxMS45IDIuMTk5IDEuOSA2di40em0tMTEuMy0yaDguMXEtLjEtMS44LTEuMS0yLjktMS0xLTIuOC0xLTEuNyAwLTIuOCAxLTEgLjk5OS0xLjQgM3ptMjYuOCA2djMuMnEtMi4zLjktNC43LjktMy42OTkgMC02LTIuMy0yLjMtMi4yLTIuMy02dDIuMi02LjJxMi4yLTIuMyA1LjgtMi4zIDEuMyAwIDIuMi4zIDEgLjIgMi41Ljh2My40cS0yLjQtMS41LTQuNS0xLjUtMi4yIDAtMy41IDEuNS0xLjQgMS41LTEuNCAzLjkgMCAyLjUgMS41IDQgMS41IDEuNCA0IDEuNCAxLjkgMCA0LjMtMXptMTEuNC0xMi40cTMuNyAwIDYuMSAyLjQgMi41IDIuNCAyLjUgNiAwIDMuNS0yLjUgNS44dC02LjIgMi4zLTYuMS0yLjRxLTIuNS0yLjMtMi41LTUuOCAwLTMuNiAyLjUtNiAyLjUtMi4zIDYuMi0yLjNtLS4yIDIuOXEtMi4zIDAtMy43IDEuNS0xLjUgMS41LTEuNSAzLjggMCAyLjQgMS41IDMuOCAxLjUgMS41IDMuOSAxLjUgMi4zIDAgMy44LTEuNXQxLjUtMy44LTEuNS0zLjhxLTEuNi0xLjUtNC0xLjVtMTUuNS0yLjl2MnEyLjItMi4zIDQuOS0yLjMgMS41IDAgMi44LjhhNS41IDUuNSAwIDAgMSAyIDIuMXEuNiAxLjQuNiA0LjN2OS4zaC0zLjJ2LTkuMnEwLTIuNS0uNy0zLjUtLjgtMS4xLTIuNS0xLjEtMi4zIDAtMy45IDIuMnYxMS42aC0zLjN2LTE2LjJ6bTI1LjYtOC4zaDMuMnYyNC41aC02LjhxLTMuNiAwLTUuNy0yLjMtMi4yLTIuMi0yLjItNiAwLTMuNiAyLjMtNiAyLjItMi4yIDUuNy0yLjIgMS42IDAgMy41Ljd2LTguOHptMCAyMS44di0xMC4zcS0xLjUtLjgtMy0uOC0yLjQgMC0zLjggMS42LTEuNCAxLjU5OS0xLjQgNC4yIDAgMi40OTkgMS4yIDMuOS43LjggMS42IDEgLjgwMS40IDMgLjR6bTE3LjctN3Y2LjhxMCAuOS42Ljl0MS44LS45djJsLTEuOCAxcS0uNi4yLTEuMy4yLTIgMC0yLjUtMS42LTIgMS41LTQuMyAxLjUtMS43IDAtMi44LTEtMS4xLTEuMi0xLjEtMi45IDAtMS41IDEtMi43IDEuMi0xLjIgMy4yLTJsNC0xLjN2LS45cTAtMy0yLjgtMy0yLjcgMC01LjEgMi44di0zLjVxMS44LTIuMiA1LjMtMi4yIDIuNjAxIDAgNC4yIDEuNC41LjM5OSAxIDEuMi40LjcuNSAxLjR6bS0zLjEgNi41di00LjhsLTIuMi44cS0xLjYuNy0yLjMgMS4zYTIuMzIgMi4zMiAwIDAgMC0uNyAxLjdxMCAxIC43IDEuNi42LjYgMS42LjYgMS42IDAgMi45LTEuMm0xMS44LTEzdjMuN2wuMi0uMnEyLjMtMy44IDQuNi0zLjggMS44IDAgMy44IDEuOGwtMS43IDIuOHEtMS43LTEuNS0zLjEtMS41LTEuNSAwLTIuNyAxLjQtMS4xIDEuNS0xLjEgMy41djguNWgtMy4ydi0xNi4yem0yMS44IDBoMy42bC0xMS41IDI0LjRoLTMuNWw1LjUtMTEuNy02LjMtMTIuN2gzLjdsNC4zIDkuMSA0LjItOXoiIGZpbGw9IiNGRkZGRkUiLz48cGF0aCBkPSJNNjM2IDE1NC45YzAtMS4yLTMtMi4xLTYuNS0yLjFoLTE4N2MtMy42IDAtNi41LjktNi41IDJ2NjAuOGMwIDEuMiAzIDIuMiA2LjUgMi4yaDE4N2MzLjYgMCA2LjUtMSA2LjUtMi4yVjE1NSIgZmlsbD0iIzVDQTgzMSIvPjxwYXRoIGQ9Im00NjguNyAxODcuMi0yLjctMS42cS0yLjQ5OS0xLjYtMy42LTMtMS0xLjUtMS0zLjUgMC0yLjkgMi00Ljd0NS4yLTEuOHEzLjEgMCA1LjcgMS43djRxLTIuNy0yLjUtNS43LTIuNS0xLjggMC0yLjkuOC0xIC44LTEgMiAwIDEuMS43IDIuMS44MDEgMSAyLjcgMmwyLjYgMS42cTQuNSAyLjcgNC41IDYuOCAwIDMtMiA0LjgtMiAxLjktNSAxLjktMy43IDAtNi43LTIuM3YtNC40cTIuOCAzLjYgNi42IDMuNiAxLjYgMCAyLjctMSAxLjEtLjkgMS4xLTIuMyAwLTIuMi0zLjItNC4ybTIzLjggMi41SDQ4MXEuMSAyLjMgMS42IDMuNyAxLjQgMS40IDMuNyAxLjQgMy4xIDAgNS44LTJ2My4xcS0xLjUgMS0zIDEuNC0xLjQuNC0zLjMuNC0yLjcgMC00LjMtMWE4Ljk2IDguOTYgMCAwIDEtMi43LTNxLTEtMi0xLTQuNCAwLTMuNyAyLjEtNnQ1LjQtMi4zIDUuMiAyLjNxMS45IDIuMTk5IDEuOSA2di40em0tMTEuMy0yaDguMXEtLjEtMS44LTEuMS0yLjktMS0xLTIuOC0xLTEuNyAwLTIuOCAxLTEgLjk5OS0xLjQgM3ptMjYuOCA2djMuMnEtMi4zLjktNC43LjktMy42OTkgMC02LTIuMy0yLjMtMi4yLTIuMy02dDIuMi02LjJxMi4yLTIuMyA1LjgtMi4zIDEuMyAwIDIuMi4zIDEgLjIgMi41Ljh2My40cS0yLjQtMS41LTQuNS0xLjUtMi4yIDAtMy41IDEuNS0xLjQgMS41LTEuNCAzLjkgMCAyLjUgMS41IDQgMS41IDEuNCA0IDEuNCAxLjkgMCA0LjMtMXptMTEuNC0xMi40cTMuNyAwIDYuMSAyLjQgMi41IDIuNCAyLjUgNiAwIDMuNS0yLjUgNS44dC02LjIgMi4zLTYuMS0yLjRxLTIuNS0yLjMtMi41LTUuOCAwLTMuNiAyLjUtNiAyLjUtMi4zIDYuMi0yLjNtLS4yIDIuOXEtMi4zIDAtMy43IDEuNS0xLjUgMS41LTEuNSAzLjggMCAyLjQgMS41IDMuOCAxLjUgMS41IDMuOSAxLjUgMi4zIDAgMy44LTEuNXQxLjUtMy44LTEuNS0zLjhxLTEuNi0xLjUtNC0xLjVtMTUuNS0yLjl2MnEyLjItMi4zIDQuOS0yLjMgMS41IDAgMi44LjhhNS41IDUuNSAwIDAgMSAyIDIuMXEuNiAxLjQuNiA0LjN2OS4zaC0zLjJ2LTkuMnEwLTIuNS0uNy0zLjUtLjgtMS4xLTIuNS0xLjEtMi4zIDAtMy45IDIuMnYxMS42aC0zLjN2LTE2LjJ6bTI1LjYtOC4zaDMuMnYyNC41aC02LjhxLTMuNiAwLTUuNy0yLjMtMi4yLTIuMi0yLjItNiAwLTMuNiAyLjMtNiAyLjItMi4yIDUuNy0yLjIgMS42IDAgMy41Ljd2LTguOHptMCAyMS44di0xMC4zcS0xLjUtLjgtMy0uOC0yLjQgMC0zLjggMS42LTEuNCAxLjU5OS0xLjQgNC4yIDAgMi40OTkgMS4yIDMuOS43LjggMS42IDEgLjgwMS40IDMgLjR6bTE3LjctN3Y2LjhxMCAuOS42Ljl0MS44LS45djJsLTEuOCAxcS0uNi4yLTEuMy4yLTIgMC0yLjUtMS42LTIgMS41LTQuMyAxLjUtMS43IDAtMi44LTEtMS4xLTEuMi0xLjEtMi45IDAtMS41IDEtMi43IDEuMi0xLjIgMy4yLTJsNC0xLjN2LS45cTAtMy0yLjgtMy0yLjcgMC01LjEgMi44di0zLjVxMS44LTIuMiA1LjMtMi4yIDIuNjAxIDAgNC4yIDEuNC41LjM5OSAxIDEuMi40LjcuNSAxLjR6bS0zLjEgNi41di00LjhsLTIuMi44cS0xLjYuNy0yLjMgMS4zYTIuMzIgMi4zMiAwIDAgMC0uNyAxLjdxMCAxIC43IDEuNi42LjYgMS42LjYgMS42IDAgMi45LTEuMm0xMS44LTEzdjMuN2wuMi0uMnEyLjMtMy44IDQuNi0zLjggMS44IDAgMy44IDEuOGwtMS43IDIuOHEtMS43LTEuNS0zLjEtMS41LTEuNSAwLTIuNyAxLjQtMS4xIDEuNS0xLjEgMy41djguNWgtMy4ydi0xNi4yem0yMS44IDBoMy42bC0xMS41IDI0LjRoLTMuNWw1LjUtMTEuNy02LjMtMTIuN2gzLjdsNC4zIDkuMSA0LjItOXoiIGZpbGw9IiNGRkZGRkUiLz48cGF0aCBkPSJNNjM2IDQwOC4xYzAtMS4yLTMtMi4xLTYuNS0yLjFoLTE4N2MtMy42IDAtNi41IDEtNi41IDIuMVY0NjljMCAxLjIgMyAyLjEgNi41IDIuMWgxODdjMy42IDAgNi41LTEgNi41LTIuMXYtNjEiIGZpbGw9IiM1Q0E4MzEiLz48cGF0aCBkPSJtNDY4LjcgNDQwLjQtMi43LTEuNnEtMi40OTktMS41LTMuNi0zLTEtMS41LTEtMy40IDAtMyAyLTQuNyAyLTEuOCA1LjItMS44IDMuMSAwIDUuNyAxLjd2NHEtMi43LTIuNi01LjctMi42LTEuOCAwLTIuOS44LTEgLjgtMSAydC43IDIuMnEuODAxIDEgMi43IDJsMi42IDEuNnE0LjUgMi42IDQuNSA2LjggMCAzLTIgNC44dC01IDEuOHEtMy43IDAtNi43LTIuMnYtNC41cTIuOCAzLjYgNi42IDMuNiAxLjYgMCAyLjctLjkgMS4xLTEgMS4xLTIuMyAwLTIuMy0zLjItNC4zbTIzLjggMi42SDQ4MXEuMSAyLjMwMSAxLjYgMy42IDEuNCAxLjQgMy43IDEuNCAzLjEgMCA1LjgtMnYzLjJxLTEuNSAxLTMgMS40LTEuNC40LTMuMy40LTIuNyAwLTQuMy0xLjEtMS43LTEuMS0yLjctM3QtMS00LjNxMC0zLjY5OSAyLjEtNiAyLjEtMi4zIDUuNC0yLjN0NS4yIDIuMnExLjkgMi4zMDEgMS45IDZ2LjR6bS0xMS4zLTJoOC4xcS0uMS0xLjg5OS0xLjEtMy0xLTEtMi44LTEtMS43IDAtMi44IDEtMSAxLjEwMS0xLjQgM20yNi44IDZ2My4xcS0yLjMgMS00LjcgMS0zLjY5OSAwLTYtMi4zLTIuMy0yLjMtMi4zLTYgMC0zLjkgMi4yLTYuMnQ1LjgtMi4zcTEuMyAwIDIuMi4yIDEgLjIwMSAyLjUuOXYzLjRxLTIuNC0xLjYtNC41LTEuNi0yLjIgMC0zLjUgMS42LTEuNCAxLjUtMS40IDMuOCAwIDIuNSAxLjUgNCAxLjUgMS40IDQgMS40IDEuOSAwIDQuMy0xem0xMS40LTEyLjVxMy43IDAgNi4xIDIuNCAyLjUgMi40IDIuNSA2IDAgMy41LTIuNSA1Ljh0LTYuMiAyLjMtNi4xLTIuM3EtMi41LTIuNC0yLjUtNS45dDIuNS01LjkgNi4yLTIuNG0tLjIgM3EtMi4zIDAtMy43IDEuNC0xLjUgMS41LTEuNSAzLjkgMCAyLjMgMS41IDMuOCAxLjUgMS40IDMuOSAxLjQgMi4zIDAgMy44LTEuNCAxLjUtMS41IDEuNS0zLjkgMC0yLjMtMS41LTMuOC0xLjYtMS41LTQtMS41em0xNS41LTIuOXYycTIuMi0yLjMgNC45LTIuMyAxLjUgMCAyLjguN2E1LjMgNS4zIDAgMCAxIDIgMi4ycS42IDEuMy42IDQuM3Y5LjJoLTMuMnYtOS4ycTAtMi40LS43LTMuNS0uOC0xLTIuNS0xLTIuMyAwLTMuOSAyLjJ2MTEuNWgtMy4zdi0xNi4xem0yNS42LTguNGgzLjJ2MjQuNWgtNi44cS0zLjYgMC01LjctMi4yLTIuMi0yLjMtMi4yLTYuMSAwLTMuNiAyLjMtNS45IDIuMi0yLjMgNS43LTIuMyAxLjYgMCAzLjUuN3ptMCAyMS44di0xMC4ycS0xLjUtLjgtMy0uOC0yLjQgMC0zLjggMS42LTEuNCAxLjUtMS40IDQuMiAwIDIuNSAxLjIgMy44LjcuOCAxLjYgMS4xLjgwMS4zIDMgLjN6bTE3LjctN3Y2LjlxMCAuOC42Ljh0MS44LS44djJsLTEuOC45cS0uNi4yLTEuMy4yLTIgMC0yLjUtMS42LTIgMS42LTQuMyAxLjYtMS43IDAtMi44LTEuMXQtMS4xLTIuOHEwLTEuNiAxLTIuOCAxLjItMS4yIDMuMi0xLjlsNC0xLjR2LS44cTAtMy0yLjgtMy0yLjcgMC01LjEgMi43di0zLjRxMS44LTIuMiA1LjMtMi4yIDIuNjAxIDAgNC4yIDEuM2wxIDEuMnEuNC43LjUgMS41em0tMy4xIDYuNXYtNC44bC0yLjIuOXEtMS42LjYtMi4zIDEuMy0uNy42LS43IDEuNnQuNyAxLjdxLjYuNiAxLjYuNiAxLjYgMCAyLjktMS4zbTExLjgtMTIuOXYzLjdsLjItLjNxMi4zLTMuNyA0LjYtMy43IDEuOCAwIDMuOCAxLjhsLTEuNyAyLjhxLTEuNy0xLjYtMy4xLTEuNi0xLjUgMC0yLjcgMS41LTEuMSAxLjUtMS4xIDMuNXY4LjRoLTMuMnYtMTYuMXptMjEuOCAwaDMuNkw2MDAuNiA0NTloLTMuNWw1LjUtMTEuNy02LjMtMTIuN2gzLjdsNC4zIDl6IiBmaWxsPSIjRkZGRkZFIi8+PHBhdGggZD0iTTIyNSA0MDguMWMwLTEuMi0zLTIuMS02LjUtMi4xaC0xODdjLTMuNiAwLTYuNSAxLTYuNSAyLjFWNDY5YzAgMS4yIDMgMi4xIDYuNSAyLjFoMTg3YzMuNiAwIDYuNS0xIDYuNS0yLjF2LTYxIiBmaWxsPSIjMkE4NkMwIi8+PHBhdGggZD0iTTcwLjIgNDUwLjV2LTI0LjZoNy43cTMuNiAwIDUuNyAyIDIgMS44IDIgNSAwIDIuMS0xIDMuOGE1LjkgNS45IDAgMCAxLTMgMi40cS0xLjguNy01LjMuN2gtMi42djEwLjd6bTcuMS0yMS41aC0zLjZ2Ny43aDMuOHEyLjE5OSAwIDMuMy0xIDEuMi0xIDEuMi0yLjkgMC0zLjgtNC43LTMuOG0xNC40IDUuM3YzLjdsLjItLjJxMi4zLTMuOCA0LjYtMy44IDEuOCAwIDMuNzk5IDEuOGwtMS43IDIuOXEtMS43LTEuNi0zLjEtMS42LTEuNSAwLTIuNyAxLjQtMS4xIDEuNS0xLjEgMy41djguNWgtMy4ydi0xNi4yem0xMi40OTktNi44cS44IDAgMS4zLjYuNi41LjYgMS4zdC0uNiAxLjNxLS41LjYtMS4zLjZ0LTEuMy0uNnEtLjYtLjUtLjYtMS4zIDAtLjcuNi0xLjMuNS0uNiAxLjMtLjZtLTEuNiA2LjhoMy4ydjE2LjJoLTMuMnptMjEuMSA0LjV2MTEuN2gtMy4zdi05cTAtMi43LS43LTMuNy0uNy0xLjEtMi41LTEuMS0uOTk5IDAtMS44LjQtLjkuNS0yIDEuN3YxMS43aC0zLjF2LTE2LjJoMy4ydjIuMnEyLjQtMi41IDQuOC0yLjUgMyAwIDQuNyAzIDIuNjAxLTMgNS40LTMgMi4zIDAgMy44IDEuNyAxLjYgMS43IDEuNiA1LjN2OS41aC0zLjJ2LTkuNnEwLTItLjktMy0uOC0xLjEtMi4zLTEuMS0yIDAtMy43IDJtMjQuNiAydjYuOXEwIC44LjUuOC42IDAgMS44LS45djJsLTEuNyAxLTEuNC4ycS0yIDAtMi40LTEuNi0yIDEuNS00LjMgMS41LTEuNyAwLTIuOS0xLTEtMS4yLTEtMi45IDAtMS41IDEtMi43IDEuMS0xLjIgMy4xLTJsNC4xLTEuM3YtLjlxMC0yLjktMi45LTIuOS0yLjYgMC01IDIuN3YtMy41cTEuOC0yLjIgNS4zLTIuMiAyLjYwMSAwIDQuMiAxLjQuNS40IDEgMS4ybC41IDEuNHYyLjh6bS0zLjIgNi41di00LjhsLTIuMS44cS0xLjcuNy0yLjMgMS4zYTIuMzIgMi4zMiAwIDAgMC0uNyAxLjdxMCAxIC42IDEuNi43LjYgMS43LjYgMS41IDAgMi44LTEuMm0xMS45LTEzdjMuN2wuMS0uMnEyLjMtMy44IDQuNy0zLjggMS44IDAgMy43IDEuOGwtMS43IDIuOXEtMS41OTktMS42LTMtMS42LTEuNTk5IDAtMi43IDEuNC0xLjIgMS41LTEuMiAzLjV2OC41aC0zLjJ2LTE2LjJoMy4zbTIxLjcgMGgzLjZsLTExLjMgMjQuNGgtMy42bDUuNS0xMS43LTYuMi0xMi43aDMuNmw0LjQgOS4yIDQuMS05LjJ6IiBmaWxsPSIjZmZmIi8+PHBhdGggZD0iTTQzMCAyNi4xYzAtMS4yLTMtMi4xLTYuNS0yLjFoLTE4N2MtMy42IDAtNi41IDEtNi41IDIuMVY4N2MwIDEuMiAzIDIuMSA2LjUgMi4xaDE4N2MzLjYgMCA2LjUtMSA2LjUtMi4xVjI2IiBmaWxsPSIjMkE4NkMwIi8+PHBhdGggZD0iTTI3NS4xOTkgNjguNVY0My45aDcuN3EzLjYgMCA1LjcgMiAyIDEuOCAyIDUgMCAyLjEtMSAzLjhhNS45MiA1LjkyIDAgMCAxLTMgMi40cS0xLjguNy01LjMuN2gtMi42djEwLjd6bTcuMS0yMS41aC0zLjZ2Ny43aDMuOHEyLjIgMCAzLjMtMSAxLjItMSAxLjItMi45IDAtMy44LTQuNy0zLjhtMTQuNCA1LjNWNTZsLjItLjJxMi4zLTMuOCA0LjYtMy44IDEuOCAwIDMuOCAxLjhsLTEuNyAyLjlxLTEuNy0xLjYtMy4xLTEuNi0xLjUgMC0yLjcgMS40LTEuMSAxLjUtMS4xIDMuNXY4LjVoLTMuMlY1Mi4zem0xMi41LTYuOHEuOCAwIDEuMy42LjYuNS42IDEuM3QtLjYgMS4zcS0uNS42LTEuMy42dC0xLjMtLjZxLS42LS41LS42LTEuMyAwLS43LjYtMS4zLjUtLjYgMS4zLS42bS0xLjYgNi44aDMuMnYxNi4yaC0zLjJ6bTIxLjEgNC41djExLjdoLTMuM3YtOXEwLTIuNy0uNy0zLjctLjctMS4xLTIuNS0xLjEtLjk5OSAwLTEuOC40LS45LjUtMiAxLjd2MTEuN2gtMy4xVjUyLjNoMy4ydjIuMnEyLjQtMi41IDQuOC0yLjUgMyAwIDQuNyAzIDIuNjAxLTMgNS40LTMgMi4zIDAgMy44IDEuNyAxLjYgMS43IDEuNiA1LjN2OS41aC0zLjJ2LTkuNnEwLTItLjktMy0uOC0xLjEtMi4zLTEuMS0yIDAtMy43IDJtMjQuNiAydjYuOXEwIC44LjUuOC42IDAgMS44LS45djJsLTEuNyAxLTEuNC4ycS0yIDAtMi40LTEuNi0yIDEuNS00LjMgMS41LTEuNyAwLTIuOS0xLTEtMS4yLTEtMi45IDAtMS41IDEtMi43IDEuMS0xLjIgMy4xLTJsNC4xLTEuM3YtLjlxMC0yLjktMi45LTIuOS0yLjYgMC01IDIuN3YtMy41cTEuOC0yLjIgNS4zLTIuMiAyLjYwMSAwIDQuMiAxLjQuNS40IDEgMS4ybC41IDEuNHYyLjh6bS0zLjIgNi41di00LjhsLTIuMS44cS0xLjcuNy0yLjMgMS4zYTIuMzIgMi4zMiAwIDAgMC0uNyAxLjdxMCAxIC42IDEuNi43LjYgMS43LjYgMS41IDAgMi44LTEuMm0xMS45LTEzVjU2bC4xLS4ycTIuMy0zLjggNC43LTMuOCAxLjggMCAzLjcgMS44bC0xLjcgMi45cS0xLjU5OS0xLjYtMy0xLjYtMS41OTkgMC0yLjcgMS40LTEuMiAxLjUtMS4yIDMuNXY4LjVoLTMuMlY1Mi4zaDMuM20yMS43IDBoMy42bC0xMS4zIDI0LjRoLTMuNmw1LjUtMTEuNy02LjItMTIuN2gzLjZsNC40IDkuMiA0LjEtOS4yeiIgZmlsbD0iI2ZmZiIvPjxwYXRoIGQ9Ik0xMC4zIDM5NC45aDYzOS4wMDFWNDgwaC02Mzl6IiBzdHJva2Utd2lkdGg9IjIiIHN0cm9rZS1kYXNoYXJyYXk9IjQgNCIgc3Ryb2tlPSIjRDMzOTA3Ii8+PHBhdGggZD0iTTI4NC44IDQ0MS41aDNWNDYyaC0zdi05aC0xMS41djloLTIuOXYtMjAuNWgzdjguOWgxMS40em0xOC42IDE0aC05LjVxLjEgMiAxLjMgMyAxLjIgMS4yIDMgMS4yIDIuNyAwIDUtMS42djIuNnEtMS4zLjgtMi41IDEuMi0xLjIuMy0yLjguMy0yLjE5OSAwLTMuNi0xLTEuNC0uOC0yLjItMi40LS45LTEuNi0uOS0zLjYgMC0zIDEuOC01IDEuNzAxLTIgNC41LTIgMi43IDAgNC4zIDIgMS42IDEuOCAxLjYgNXptLTkuNC0xLjZoNi44cS0uMS0xLjYtMS0yLjUtLjgtLjgtMi4zLS44LTEuNCAwLTIuMy44LS45OTkuOS0xLjIgMi41bTIwLjcgMHY1LjdxMCAuNy41LjcuNTAxIDAgMS41LS43djEuNnEtLjkuNi0xLjUuOC0uNS4yLTEuMS4yLTEuNyAwLTItMS4zLTEuNyAxLjMtMy42IDEuMy0xLjQgMC0yLjQtMS0xLS45LTEtMi4zIDAtMS4yIDEtMi4ydDIuNi0xLjZsMy40LTEuMnYtLjdxMC0yLjUtMi40LTIuNS0yLjIgMC00LjMgMi4zdi0zcTEuNi0xLjcgNC41LTEuNyAyLjIgMCAzLjUgMS4xbC44IDEgLjQgMS4yem0tMi42IDUuNHYtNGwtMS44LjdxLTEuMy42LTIgMS4xLS41LjYtLjUgMS40dC42IDEuM3EuNS42IDEuMy42IDEuMyAwIDIuNC0xem05LjktMTAuOHYzLjFsLjEtLjJxMi4wMDEtMy4xIDMuOS0zLjEgMS41IDAgMy4xIDEuNWwtMS40IDIuM3EtMS40LTEuMy0yLjYtMS4zLTEuMyAwLTIuMiAxLjItMSAxLjMtMSAzdjdoLTIuNnYtMTMuNXptNy43IDIuMiA1LTV2Mi44aDQuM3YyLjRoLTQuM3Y2LjZxMCAyLjMgMiAyLjMgMS4zIDAgMy0xdjIuNnEtMS42LjgtMy40Ljh0LTMtMWwtLjctLjgtLjQtMXEtLjItLjctLjItMi41di02aC0yLjN6bTExLjgtOS4yaDIuNnY4cTEuOC0xLjMgMy43LTEuMyAyLjYwMSAwIDQuMiAyIDEuNyAxLjkgMS43IDUgMCAzLjItMiA1LjEtMiAyLTUuMiAyLTEuMjk5IDAtMi43LS4zLTEuNS0uMy0yLjMtLjd6TTM0NCA0NTJ2Ny4zcTEuNC40IDIuOC40IDEuOCAwIDMtMS4yIDEtMS4zIDEtMy4zdC0xLTMuMnEtLjk5OS0xLjMtMi43LTEuMy0xLjUgMC0zIDEuM3ptMjQgMy41aC05LjRxLjEgMiAxLjMgMyAxLjIgMS4yIDMgMS4yIDIuNyAwIDUtMS42djIuNnEtMS4zLjgtMi41IDEuMi0xLjIuMy0yLjguMy0yLjMgMC0zLjYtMS0xLjQtLjgtMi4yLTIuNC0uOS0xLjYtLjktMy42IDAtMyAxLjgtNSAxLjcwMS0yIDQuNS0yIDIuNyAwIDQuMyAyIDEuNiAxLjggMS42IDV2LjN6bS05LjMtMS42aDYuN3EwLTEuNi0xLTIuNS0uOC0uOC0yLjItLjh0LTIuNC44cS0uOS45LTEuMSAyLjVtMjAuNyAwdjUuN3EwIC43LjUuNy41MDEgMCAxLjUtLjd2MS42bC0xLjUuOHEtLjUuMi0xLjEuMi0xLjcgMC0yLTEuMy0xLjcgMS4zLTMuNyAxLjMtMS40IDAtMi4zLTEtMS0uOS0xLTIuMyAwLTEuMiAxLTIuMi45LTEgMi42LTEuNmwzLjQtMS4ydi0uN3EwLTIuNS0yLjQtMi41LTIuMiAwLTQuMyAyLjN2LTNxMS42LTEuNyA0LjUtMS43IDIuMiAwIDMuNSAxLjFsLjggMSAuNCAxLjJ6bS0yLjYgNS40di00bC0xLjguN3EtMS40LjYtMiAxLjEtLjUuNi0uNSAxLjR0LjUgMS4zcS42LjYgMS40LjYgMS4zIDAgMi40LTF6bTUuMS04LjYgNS01djIuOGg0LjN2Mi40aC00LjN2Ni42cTAgMi4zIDIgMi4zIDEuNDAxIDAgMy0xdjIuNnEtMS42LjgtMy40Ljh0LTMtMWwtLjctLjgtLjQtMXEtLjItLjctLjItMi41di02SDM4MnYtLjJ6IiBmaWxsPSIjNEY0QzRCIi8+PHBhdGggZD0iTTI1Ni4xMDIgNDY3LjNoMTQ3LjciIHN0cm9rZS13aWR0aD0iNCIgc3Ryb2tlPSIjNEY0QzRCIi8+PHBhdGggZD0ibTI1Ni4xMDEgNDYyLjUtMTIuOCA0LjggMTIuOCA0Ljh6bTE0Ny44IDkuNiAxMi44LTQuOC0xMi44LTQuOHoiIHN0cm9rZS13aWR0aD0iNCIgc3Ryb2tlPSIjNEY0QzRCIiBmaWxsPSIjNEY0QzRCIi8+PHBhdGggZD0ibTIyNy45IDEyIDIwNC41IDg5LjJtLTIwNC45LS4yTDQzMiAxMS43IiBzdHJva2Utd2lkdGg9IjEwIiBzdHJva2U9IiNBQjJCMUYiLz48L3N2Zz4=;" vertex="1" parent="1">
          <mxGeometry x="-610" y="600" width="520" height="394" as="geometry" />
        </mxCell>
        <mxCell id="FX5OmkcN8bD2J4cv3eW1-4" value="1" style="ellipse;whiteSpace=wrap;html=1;fillColor=#dae8fc;strokeColor=#6c8ebf;" vertex="1" parent="1">
          <mxGeometry x="-700" y="10" width="40" height="50" as="geometry" />
        </mxCell>
        <mxCell id="FX5OmkcN8bD2J4cv3eW1-5" value="3" style="ellipse;whiteSpace=wrap;html=1;fillColor=#dae8fc;strokeColor=#6c8ebf;" vertex="1" parent="1">
          <mxGeometry x="-700" y="600" width="40" height="50" as="geometry" />
        </mxCell>
        <mxCell id="FX5OmkcN8bD2J4cv3eW1-6" value="2" style="ellipse;whiteSpace=wrap;html=1;fillColor=#dae8fc;strokeColor=#6c8ebf;" vertex="1" parent="1">
          <mxGeometry x="30" y="60" width="40" height="50" as="geometry" />
        </mxCell>
        <mxCell id="FX5OmkcN8bD2J4cv3eW1-7" value="4" style="ellipse;whiteSpace=wrap;html=1;fillColor=#dae8fc;strokeColor=#6c8ebf;" vertex="1" parent="1">
          <mxGeometry x="50" y="535" width="40" height="50" as="geometry" />
        </mxCell>
        <mxCell id="FX5OmkcN8bD2J4cv3eW1-8" value="" style="shape=image;imageAspect=0;aspect=fixed;verticalLabelPosition=bottom;verticalAlign=top;image=data:image/svg+xml,PHN2ZyB4bWxucz0iaHR0cDovL3d3dy53My5vcmcvMjAwMC9zdmciIGZpbGw9Im5vbmUiIGhlaWdodD0iNTYwIiB3aWR0aD0iNjQwIiB2aWV3Qm94PSIwIDAgNjQwIDU2MCI+PHBhdGggZD0iTTAgMGg2NDB2NTYwSDB6IiBmaWxsPSIjZmZmIi8+PHBhdGggZD0iTTI1NS45IDQ5NC44YzAgMS4yLTIuOSAyLjEtNi41IDIuMWgtMTg3Yy0zLjYgMC02LjUtMS02LjUtMi4xVjQzNGMwLTEuMSAzLTIgNi41LTJoMTg3YzMuNiAwIDYuNS45IDYuNSAyeiIgZmlsbD0iIzVDQTgzMSIvPjxwYXRoIGQ9Im04Ni43IDQ2Ni4xLTIuNy0xLjZxLTIuNDk5LTEuNS0zLjYtMy0xLTEuNS0xLTMuNCAwLTMgMi00Ljh0NS4yLTEuOHEzIDAgNS43IDEuOHY0cS0yLjctMi42LTUuOC0yLjYtMS43IDAtMi44LjgtMSAuOC0xIDJ0LjcgMi4xcS44IDEgMi42IDJsMi43IDEuNnE0LjUgMi43IDQuNSA2LjggMCAzLTIgNC44LTIgMS45LTUgMS45LTMuNyAwLTYuNy0yLjJWNDcwcTIuOCAzLjYgNi42IDMuNiAxLjYgMCAyLjctMSAxLjEtLjkgMS4xLTIuMiAwLTIuMy0zLjItNC4zbTIzLjggMi41SDk5cS4xIDIuMyAxLjUgMy43IDEuNSAxLjQgMy44IDEuNCAzLjEgMCA1LjgtMnYzLjFxLTEuNSAxLTMgMS40LTEuNC41LTMuMy41LTIuNyAwLTQuNC0xLjItMS42LTEtMi42LTMtMS0xLjgtMS00LjMgMC0zLjcgMi02IDIuMi0yLjMgNS41LTIuMyAzLjIgMCA1LjIgMi4zIDEuOSAyLjIgMS45IDZ6bS0xMS4zLTJoOC4xcS0uMS0xLjgtMS4xLTIuOS0xLTEtMi44LTEtMS43IDAtMi44IDF0LTEuNCAzek0xMjYgNDcyLjZ2My4ycS0yLjQuOS00LjcuOS0zLjggMC02LTIuMy0yLjMtMi4xOTktMi4zLTYgMC0zLjggMi4yLTYuMSAyLjItMi40IDUuNy0yLjQgMS4zIDAgMi4zLjMgMSAuMiAyLjQuOHYzLjVxLTIuNC0xLjYtNC41LTEuNnQtMy41IDEuNS0xLjQgMy45cTAgMi41IDEuNSA0IDEuNSAxLjQgNCAxLjQgMS45IDAgNC4zLTF6TTEzNi44IDQ2MC4ycTMuNyAwIDYuMSAyLjR0Mi40IDZxMCAzLjUtMi40IDUuOC0yLjUgMi4zLTYuMyAyLjMtMy42IDAtNi0yLjQtMi41LTIuMy0yLjUtNS44IDAtMy42IDIuNS02IDIuNC0yLjMgNi4yLTIuM20tLjIgMi45cS0yLjMgMC0zLjggMS41dC0xLjUgMy44cTAgMi40IDEuNSAzLjggMS42IDEuNSA0IDEuNSAyLjMgMCAzLjgtMS41dDEuNS0zLjgtMS42LTMuOHEtMS41LTEuNS00LTEuNXptMTUuNS0yLjl2MnEyLjItMi4zIDQuOS0yLjMgMS41IDAgMi44LjhhNS4zIDUuMyAwIDAgMSAyIDIuMnEuNyAxLjMuNyA0LjN2OS4yaC0zLjJ2LTkuMnEwLTIuNS0uOC0zLjUtLjctMS4xLTIuNS0xLjEtMi4zMDEgMC0zLjkgMi4zdjExLjVIMTQ5di0xNi4yem0yNS42LTguNGgzLjJ2MjQuNmgtNi44cS0zLjYgMC01LjctMi4zLTIuMi0yLjItMi4yLTYgMC0zLjYgMi4zLTYgMi4xOTktMi4yIDUuNy0yLjIgMS42IDAgMy41Ljd6bTAgMjEuOXYtMTAuM3EtMS41LS43LTMtLjctMi40IDAtMy44IDEuNS0xLjQgMS41OTktMS40IDQuMiAwIDIuNDk5IDEuMiAzLjkuNy44IDEuNiAxIC44LjQgMyAuNHptMTcuNy03djYuOXEwIC44LjYuOHQxLjgtLjl2MmwtMS43IDEtMS40LjJxLTIuMDAxIDAtMi40LTEuNi0yIDEuNi00LjQgMS42LTEuNyAwLTIuOC0xLjItMS4xLTEtMS4xLTIuOCAwLTEuNSAxLTIuNyAxLjItMS4yIDMuMi0ybDQtMS4zdi0uOXEwLTIuOS0yLjgtMi45LTIuNjAxIDAtNS4xIDIuN3YtMy41cTEuOC0yLjIgNS4zLTIuMiAyLjcgMCA0LjIgMS40LjYuMzk5IDEgMS4yLjQuNy41IDEuNHptLTMuMSA2LjV2LTQuOGwtMi4yLjhxLTEuNi43LTIuMyAxLjQtLjYuNi0uNiAxLjZ0LjYgMS42cS42LjcgMS43LjcgMS41IDAgMi44LTEuM20xMS44LTEzdjMuN2wuMi0uMnEyLjMtMy44IDQuNi0zLjggMS44IDAgMy44IDEuOGwtMS43IDIuOXEtMS43MDEtMS42LTMtMS42LTEuNiAwLTIuOCAxLjUtMSAxLjQtMSAzLjV2OC40aC0zLjN2LTE2LjJ6bTIxLjggMGgzLjZsLTExLjQgMjQuNWgtMy42bDUuNS0xMS44LTYuMy0xMi43aDMuN2w0LjMgOS4yeiIgZmlsbD0iI0ZGRkZGRSIvPjxwYXRoIGQ9Ik01NzIgNDk0LjhjMCAxLjItMyAyLjEtNi42IDIuMWgtMTg3Yy0zLjYgMC02LjUtMS02LjUtMi4xVjQzNGMwLTEuMSAzLTIgNi41LTJoMTg3YzMuNiAwIDYuNS45IDYuNSAydjYwLjgiIGZpbGw9IiM1Q0E4MzEiLz48cGF0aCBkPSJtNDA0LjIgNDY2LjEtMi43LTEuNnEtMi40OTktMS41LTMuNi0zLTEtMS41LTEtMy40IDAtMyAyLTQuOHQ1LjItMS44cTMgMCA1LjYgMS44djRxLTIuNi0yLjYtNS43LTIuNi0xLjcgMC0yLjguOHQtMS4xIDIgLjggMi4xcS44IDEgMi42IDJsMi43IDEuNnE0LjUgMi43IDQuNSA2LjggMCAzLTIgNC44LTIgMS45LTUuMSAxLjktMy42IDAtNi42LTIuMlY0NzBxMi44IDMuNiA2LjYgMy42IDEuNiAwIDIuNy0xIDEuMS0uOSAxLjEtMi4yIDAtMi4zLTMuMi00LjNtMjMuOCAyLjVoLTExLjRxLjEgMi4zIDEuNSAzLjcgMS41IDEuNCAzLjcgMS40IDMuMiAwIDUuOS0ydjMuMXEtMS41IDEtMyAxLjQtMS40LjUtMy40LjUtMi42IDAtNC4zLTEuMi0xLjYtMS0yLjYtMy0xLTEuOC0xLTQuMyAwLTMuNyAyLTYgMi4yLTIuMyA1LjUtMi4zIDMuMjAxIDAgNS4xIDIuMyAyIDIuMiAyIDZ6bS0xMS4zLTJoOHEwLTEuOC0xLTIuOS0xLTEtMi44LTEtMS43IDAtMi44IDF0LTEuNCAzek00NDMuNSA0NzIuNnYzLjJxLTIuNC45LTQuNy45LTMuOCAwLTYtMi4zLTIuMy0yLjE5OS0yLjMtNiAwLTMuOCAyLjItNi4xIDIuMi0yLjQgNS44LTIuNCAxLjIgMCAyLjIuMyAxIC4yIDIuNS44djMuNXEtMi41LTEuNi00LjUtMS42LTIuMiAwLTMuNiAxLjV0LTEuNCAzLjlxMCAyLjUgMS41IDQgMS41IDEuNCA0IDEuNCAyIDAgNC4zLTF6TTQ1NC4zIDQ2MC4ycTMuNyAwIDYuMSAyLjQgMi41IDIuNCAyLjUgNiAwIDMuNS0yLjUgNS44dC02LjIgMi4zLTYuMS0yLjRxLTIuNS0yLjMtMi41LTUuOCAwLTMuNiAyLjUtNiAyLjUtMi4zIDYuMi0yLjNtLS4yIDIuOXEtMi4zIDAtMy43IDEuNS0xLjUgMS41LTEuNSAzLjggMCAyLjQgMS41IDMuOCAxLjUgMS41IDMuOSAxLjUgMi4zIDAgMy44LTEuNXQxLjUtMy44LTEuNS0zLjhxLTEuNi0xLjUtNC0xLjVtMTUuNi0yLjl2MnEyLjEtMi4zIDQuOC0yLjMgMS42IDAgMi45LjhhNS4zIDUuMyAwIDAgMSAyIDIuMnEuNiAxLjMuNiA0LjN2OS4yaC0zLjJ2LTkuMnEwLTIuNS0uNy0zLjUtLjgtMS4xLTIuNi0xLjEtMi4yIDAtMy44IDIuM3YxMS41aC0zLjN2LTE2LjJ6bTI1LjYtOC40aDMuMnYyNC42aC02LjlxLTMuNTAxIDAtNS43LTIuMy0yLjEtMi4yLTIuMS02IDAtMy42IDIuMi02IDIuMy0yLjIgNS44LTIuMiAxLjYgMCAzLjUuN3ptMCAyMS45di0xMC4zcS0xLjUtLjctMy0uNy0yLjQgMC0zLjkgMS41LTEuNCAxLjU5OS0xLjQgNC4yIDAgMi40OTkgMS4zIDMuOS42OTkuOCAxLjUgMSAuOC40IDMgLjR6bTE3LjctN3Y2LjlxMCAuOC42LjguNSAwIDEuOC0uOXYybC0xLjggMXEtLjYuMi0xLjQuMi0yLjAwMSAwLTIuNC0xLjYtMiAxLjYtNC4zIDEuNi0xLjcgMC0yLjgtMS4yLTEuMi0xLTEuMi0yLjggMC0xLjUgMS4xLTIuN3QzLjEtMmw0LjEtMS4zdi0uOXEwLTIuOS0yLjktMi45LTIuNiAwLTUgMi43di0zLjVxMS44LTIuMiA1LjMtMi4yIDIuNiAwIDQuMiAxLjQuNS4zOTkgMSAxLjIuNC43LjUgMS40djIuOHptLTMuMiA2LjV2LTQuOGwtMi4xLjhxLTEuNi43LTIuMyAxLjQtLjcuNi0uNyAxLjZ0LjYgMS42cS43LjcgMS43LjcgMS41IDAgMi44LTEuM20xMS45LTEzdjMuN2wuMS0uMnEyLjQtMy44IDQuNy0zLjggMS44IDAgMy44IDEuOGwtMS43IDIuOXEtMS43LTEuNi0zLjEtMS42LTEuNiAwLTIuNyAxLjUtMS4xIDEuNC0xLjEgMy41djguNGgtMy4zdi0xNi4yem0yMS44IDBoMy42bC0xMS41IDI0LjVINTMybDUuNS0xMS44LTYuMi0xMi43aDMuNmw0LjQgOS4yeiIgZmlsbD0iI0ZGRkZGRSIvPjxwYXRoIGQ9Ik00MTMuNCAzMjMuNGMwIDEuMi0zIDIuMi02LjUgMi4yaC0xODdjLTMuNiAwLTYuNS0xLTYuNS0yLjJ2LTYwLjdjMC0xLjIgMi45LTIuMSA2LjQtMi4xaDE4N2MzLjYgMCA2LjYuOSA2LjYgMnoiIGZpbGw9IiMyQTg2QzAiLz48cGF0aCBkPSJNMjU4LjQgMzAydi0yNC41aDcuOHEzLjUgMCA1LjYgMS45dDIuMSA1cTAgMi4yLTEgMy45LTEuMSAxLjYtMyAyLjQtMS44OTkuNy01LjQuN0gyNjJ2MTAuN3ptNy4yLTIxLjRoLTMuN3Y3LjdoMy45cTIuMSAwIDMuMy0xdDEuMi0zcTAtMy43LTQuNy0zLjdNMjc4Ljk5OSAyODUuOXYzLjdsLjEtLjNxMi4zLTMuNyA0LjYtMy43IDEuOSAwIDMuOCAxLjhsLTEuNyAyLjhxLTEuNTk5LTEuNi0zLTEuNi0xLjU5OSAwLTIuNyAxLjUtMS4yIDEuNS0xLjIgMy41djguNWgtMy4ydi0xNi4yem0xMi40LTYuOXEuOCAwIDEuNC42LjUuNi41IDEuNCAwIC43LS41IDEuMy0uNi42LTEuNC42LS43IDAtMS4zLS42LS41LS42LS41LTEuMyAwLS44LjUtMS4zLjYtLjYgMS4zLS42em0tMS42IDYuOWgzLjJWMzAyaC0zLjJ6bTIxLjIgNC40djExLjhoLTMuM3YtOXEwLTIuNy0uNy0zLjgtLjgtMS0yLjUtMS0xIDAtMS45LjQtLjguNC0xLjkgMS42djExLjhoLTMuMnYtMTYuMmgzLjJ2Mi4xcTIuNS0yLjQgNC44LTIuNCAzIDAgNC44IDIuOSAyLjUtMyA1LjMtMyAyLjQgMCAzLjkgMS44IDEuNSAxLjcgMS41IDUuMnY5LjZoLTMuMnYtOS42cTAtMi0uOC0zLjEtLjgtMS0yLjQtMS0yIDAtMy43IDJ6bTI0LjYgMnY2LjlxMCAuOC41LjguNiAwIDEuOS0uOHYybC0xLjguOXEtLjYuMi0xLjQuMi0yIDAtMi40LTEuNi0yIDEuNi00LjMgMS42LTEuNyAwLTIuOC0xLjEtMS4yLTEuMS0xLjItMi44IDAtMS42IDEuMS0yLjcgMS4xLTEuMyAzLjEtMmw0LjEtMS40di0uOHEwLTMtMi45LTMtMi42IDAtNSAyLjh2LTMuNXExLjgtMi4yIDUuMy0yLjIgMi42MDEgMCA0LjIgMS4zbDEgMS4ycS40LjcuNSAxLjV2Mi43em0tMy4yIDYuNlYyOTRsLTIuMS44cS0xLjYuNi0yLjMgMS4zLS43LjYtLjcgMS42dC42IDEuN3EuNy42IDEuNy42IDEuNSAwIDIuOC0xLjJ6bTExLjktMTN2My43bC4xLS4zcTIuMy0zLjcgNC43LTMuNyAxLjggMCAzLjcgMS44bC0xLjYgMi44cS0xLjctMS42LTMuMS0xLjYtMS41OTkgMC0yLjcgMS41LTEuMSAxLjUtMS4xIDMuNXY4LjVoLTMuM3YtMTYuMnptMjEuNyAwaDMuN2wtMTEuNSAyNC40aC0zLjZsNS41LTExLjctNi4yLTEyLjdoMy42bDQuNCA5LjF6IiBmaWxsPSIjRkZGRkZFIi8+PHBhdGggZD0iTTEwNi44MDEgMTMxYzAgMi42IDEuNSA0LjggMy40IDQuOGg0MTkuNmMxLjkgMCAzLjQtMi4yIDMuNC00LjlWMThjMC0yLjYtMS41LTQuOC0zLjQtNC44aC00MTkuNmMtMS45IDAtMy40IDIuMi0zLjQgNC44eiIgZmlsbD0iIzQ4NDc0MyIvPjxwYXRoIGQ9Ik0yMTAgNTIuMlY1NnEtMy44IDItOC45IDItNCAwLTctMS42LTIuOC0xLjU5OS00LjUtNC41LTEuNi0zLTEuNi02LjMgMC01LjQgMy44LTkgMy44LTMuNyA5LjQtMy43IDMuOSAwIDguNiAydjMuOHEtNC4zLTIuNS04LjQtMi41LTQuMiAwLTcgMi43dC0yLjggNi43IDIuNyA2LjZxMi44IDIuNiA3IDIuNiA0LjUgMCA4LjgtMi43em00LTE4LjloMy4zVjU4SDIxNHptOS41IDEuN3EuOCAwIDEuNC41LjUuNS41IDEuMyAwIC44MDEtLjQgMS4yLS42LjYtMS40LjYtLjcgMC0xLjMtLjYtLjUtLjYtLjUtMS4zIDAtLjguNS0xLjMuNi0uNiAxLjMtLjZ6bS0xLjYgNi43aDMuMlY1OEgyMjJ6bTIxLjYgOC4zaC0xMS4zcTAgMi40IDEuNSAzLjggMS40IDEuMyAzLjcgMS4zIDMuMiAwIDUuOC0ydjMuMnEtMS40IDEtMi45IDEuNC0xLjQuNC0zLjQuNC0yLjcgMC00LjMtMWE4Ljk2IDguOTYgMCAwIDEtMi43LTNxLTEtMi0xLTQuNCAwLTMuNjk5IDIuMS02IDIuMS0yLjMgNS41LTIuMyAzLjIgMCA1LjEgMi4yIDIgMi4zMDEgMiA2em0tMTEuMy0xLjhoOC4ycS0uMi0yLTEuMi0zdC0yLjctMS0yLjkgMXEtMSAxLTEuNCAzbTE4LTYuNXYycTIuMS0yLjMgNC44LTIuMyAxLjUgMCAyLjguOCAxLjQuODAxIDIgMi4xLjcgMS40LjcgNC4zVjU4aC0zLjJ2LTkuMnEwLTIuNDk5LS44LTMuNi0uNy0xLTIuNS0xLTIuMyAwLTMuOCAyLjJWNThoLTMuM1Y0MS43em0xMi41IDIuNiA2LTZ2My40aDUuMXYyLjloLTV2OHEwIDIuNyAyLjIgMi43IDEuNyAwIDMuNy0xLjJ2M3EtMS45IDEtNCAxLTIuMyAwLTMuNy0xLjJhMy40IDMuNCAwIDAgMS0uOC0uOWwtLjUtMS4ycS0uMi0uOC0uMi0zdi03LjJoLTIuOHpNMjkwLjI5OSAzMy4yaDIuNGwxMSAyNC43aC0zLjZsLTMuMy03LjNoLTEwLjRsLTMgNy4zaC0zLjd6bTUuMSAxNC4zLTQtOS0zLjYgOXptMTAuNCAxOC42VjQxLjdoNS42cTQuMyAwIDYuNyAyLjIgMi40IDIuMSAyLjQgNiAwIDMuNi0yLjIgNi0yLjMgMi4zLTUuOCAyLjMtMS41IDAtMy40LS43VjY2em01LjUtMjEuNGgtMi4ydjEwcTEuNS43IDMgLjcgMi4zIDAgMy43LTEuNiAxLjUtMS41IDEuNS00IDAtMS42LS43LTIuOC0uNjk5LTEuMi0xLjgtMS43LTEuMi0uNi0zLjUtLjZtMTIuNSAyMS40VjQxLjdoNS42cTQuMyAwIDYuNyAyLjIgMi40IDIuMSAyLjQgNiAwIDMuNi0yLjIgNi0yLjMgMi4zLTUuOCAyLjMtMS41IDAtMy40LS43VjY2em01LjUtMjEuNGgtMi4ydjEwcTEuNS43IDMgLjcgMi4zIDAgMy43LTEuNiAxLjUtMS41IDEuNS00IDAtMS42LS43LTIuOC0uNjk5LTEuMi0xLjgtMS43LTEuMi0uNi0zLjUtLjZtMTIuNy0xMS40aDMuM1Y1OGgtMy4zem05LjUgMS43cS44IDAgMS40LjV0LjYgMS4zLS42IDEuM3EtLjYuNi0xLjQuNi0uNyAwLTEuMy0uNi0uNS0uNi0uNS0xLjMgMC0uOC41LTEuMy42LS42IDEuMy0uNnptLTEuNSA2LjdoMy4yVjU4aC0zLjJ6bTE5LjkgMTIuNHYzLjJxLTIuNC45LTQuNy45LTMuOCAwLTYtMi4zLTIuMy0yLjE5OS0yLjMtNiAwLTMuOCAyLjItNi4yIDIuMi0yLjMgNS44LTIuMyAxLjIgMCAyLjIuMiAxIC4zIDIuNCAxdjMuM3EtMi40LTEuNS00LjUtMS41dC0zLjUgMS41LTEuNCAzLjlxMCAyLjUgMS41IDQgMS41IDEuNCA0IDEuNCAyIDAgNC4zLTEuMW0xMy44LTUuOVY1NXEwIC45LjUuOS42IDAgMS45LS45djJxLTEuMS43LTEuOC45LS43LjMtMS40LjMtMiAwLTIuNC0xLjctMiAxLjYtNC4zIDEuNi0xLjcgMC0yLjktMS0xLTEuMi0xLTIuOSAwLTEuNSAxLTIuNyAxLjEtMS4yIDMuMS0ybDQuMS0xLjN2LS45cTAtMy0yLjktMy0yLjYgMC01IDIuOHYtMy41cTEuOC0yLjIgNS4zLTIuMiAyLjYwMSAwIDQuMiAxLjQuNS40IDEgMS4xLjQuODAxLjUgMS41djIuOHptLTMuMiA2LjV2LTQuOGwtMi4xLjhxLTEuNi43LTIuMyAxLjNhMi4zMiAyLjMyIDAgMCAwLS43IDEuN3EwIDEgLjYgMS42LjcuNiAxLjcuNiAxLjUgMCAyLjgtMS4ybTYuMi0xMC40IDYtNnYzLjRoNXYyLjloLTV2OHEwIDIuNyAyLjMgMi43IDEuNzAxIDAgMy42LTEuMnYzcS0xLjggMS00IDF0LTMuNy0xLjJsLS43LS45LS41LTEuMnEtLjItLjgtLjItM3YtNy4yaC0yLjh6bTE1LjktOS4zcS44IDAgMS4zLjUuNi41LjYgMS4zIDAgLjgwMS0uNSAxLjItLjUuNi0xLjMuNi0uNyAwLTEuMy0uNnQtLjYtMS4zcTAtLjguNi0xLjMuNi0uNiAxLjMtLjZ6bS0xLjYgNi43aDMuMlY1OGgtMy4yem0xNS42IDBxMy42IDAgNiAyLjQgMi41IDIuMyAyLjUgNiAwIDMuNC0yLjQgNS44LTIuNDk5IDIuMy02LjMgMi4zLTMuNiAwLTYtMi40LTIuNS0yLjMtMi41LTUuOCAwLTMuNiAyLjQtNiAyLjUtMi4zIDYuMy0yLjNtLS4yIDIuOXEtMi4zIDAtMy44IDEuNXQtMS41IDMuOCAxLjUgMy44IDQgMS41cTIuMyAwIDMuOC0xLjV0MS41LTMuOC0xLjYtMy44LTQtMS41em0xNS42LTIuOXYycTIuMDAxLTIuMyA0LjgtMi4zIDEuNSAwIDIuOC44YTUuNSA1LjUgMCAwIDEgMiAyLjFxLjYgMS40LjYgNC4zVjU4aC0zLjF2LTkuMnEwLTIuNDk5LS44LTMuNi0uOC0xLTIuNS0xLTIuMyAwLTMuOSAyLjJWNThoLTMuM1Y0MS43eiIgZmlsbD0iI0ZGRkZGRSIvPjxwYXRoIGQ9Ik0xMDYuODAxIDc1aDQyNi40IiBzdHJva2U9IiNFQ0VCRTkiLz48cGF0aCBkPSJNMjY5LjY5OSAxMTYuOFY5Mi4zaDguM3E1IDAgOCAxLjUgMi45IDEuNSA0LjYgNC40IDEuNyAzIDEuNyA2LjQgMCAyLjUtMSA0LjdhMTEuNSAxMS41IDAgMCAxLTIuNiA0cS0xLjggMS43LTQuMiAyLjYtMS40LjYtMi42LjhsLTQuNC4xem04LTIxLjNoLTQuNHYxOC4yaDQuNXEyLjYgMCA0LS4zIDEuNS0uNCAyLjUtMWE2LjkgNi45IDAgMCAwIDEuOC0xLjNxMi42LTIuNyAyLjYtNi43dC0yLjctNi40YTcuOSA3LjkgMCAwIDAtMi4zLTEuNnEtMS4yLS42LTIuNC0uOHptMjIgNS4ydjMuN2wuMi0uM3EyLjMtMy43IDQuNi0zLjcgMS44IDAgMy44IDEuOGwtMS43IDIuOHEtMS43LTEuNS0zLTEuNS0xLjYgMC0yLjggMS40LTEuMSAxLjUtMS4xIDMuNXY4LjVoLTMuMnYtMTYuMnptMTIuNS02LjdxLjggMCAxLjQuNS41LjUuNSAxLjN0LS41IDEuM3EtLjYuNi0xLjQuNi0uNyAwLTEuMy0uNnQtLjYtMS4zcTAtLjguNi0xLjMuNi0uNiAxLjMtLjZ6bS0xLjYgNi43aDMuMlYxMTdoLTMuMnpNMzI4LjMwMSAxMDAuN2gzLjVsLTcuMiAxNi41aC0xbC03LjMtMTYuNWgzLjVsNC4zIDEwek0zNDcuNyAxMDloLTExLjNxMCAyLjQgMS41IDMuOCAxLjQgMS4zIDMuNyAxLjMgMy4yIDAgNS44LTJ2My4ycS0xLjQgMS0yLjkgMS40LTEuNC40LTMuNC40LTIuNyAwLTQuMy0xYTguOTQgOC45NCAwIDAgMS0yLjctM3EtMS0yLTEtNC40IDAtMy42OTkgMi4xLTYgMi4xLTIuMyA1LjUtMi4zIDMuMiAwIDUuMSAyLjIgMiAyLjMwMSAyIDZ6bS0xMS4zLTEuOGg4LjJxLS4yMDEtMi0xLjItMy0xLTEtMi43LTF0LTIuOSAxcS0xIDEtMS40IDNtMTguMi02LjV2My43bC4yLS4zcTIuMy0zLjcgNC42LTMuNyAxLjggMCAzLjggMS44bC0xLjcgMi44cS0xLjcwMS0xLjUtMy0xLjUtMS42IDAtMi44IDEuNC0xLjEgMS41LTEuMSAzLjV2OC41aC0zLjJ2LTE2LjJ6IiBmaWxsPSIjRkZGRkZFIi8+PHBhdGggZD0iTTI5MCAxNDh2ODloLThsMTMuMiAyMi44IDEzLjEtMjIuOEgzMDB2LTg5ek0yODQuMDk5IDE3MC43djIuM2wtMTYuNC02LjZ2LS41bDEzLjMtNS40LTEzLjMtNS40di0uNWwxNi4zLTYuNnYyLjRsLTExLjMgNC41IDExLjMgNC41djIuMmwtMTEuMyA0LjZ6TTI3OC42IDE3NS44SDI3NmguMnEyLjUgMS42IDIuNSAzLjIgMCAxLjItMS4zIDIuNWwtMS44LTEuMXExLTEuMSAxLTIgMC0xLjEtMS0xLjktMS0uNy0yLjMtLjdoLTUuNnYtMi4yaDEwLjd6bTQuNCA4LjJxMCAuNi0uMyAxdC0uOS40YS45NS45NSAwIDAgMS0uOC0uNHEtLjQtLjQtLjQtMSAwLS40LjMtLjguNC0uNCAxLS40LjQgMCAuOC40LjQuMzk5LjQuOXptLTQuNC0xdjIuMmgtMTAuOFYxODN6bS0xLjcgMy43IDMuOSA0aC0yLjJ2My40aC0ydi0zLjRoLTUuMnEtMS45IDAtMS45IDEuNiAwIDEuMS44IDIuNGgtMnEtLjctMS4yLS43LTIuNyAwLTEuNDAxLjktMi40bC41LS41LjktLjRoNi43di0yem0tMy45IDE4LjdWMTk4cS0xLjYgMC0yLjUgMXQtLjkgMi41cTAgMiAxLjMgMy45aC0ycS0uNy0xLTEtMnQtLjMtMi4zcTAtMS43LjgtMi44LjctMS4xMDEgMi0xLjggMS4yLS43IDIuOC0uNyAyLjUgMCA0IDEuNCAxLjYgMS40IDEuNiAzLjZ0LTEuNSAzLjVxLTEuNSAxLjItNCAxLjJ6bTEuMy03LjV2NS40cTEuMyAwIDItLjcuNi0uNy42LTEuOSAwLTEuMTAxLS43LTEuOC0uNy0uOC0yLTF6IiBmaWxsPSIjMkE4NkMwIi8+PHBhdGggZD0iTTUwNi44MDIgMTUxLjJoMTYuNHY0cTAgMi42LTEuMiA0LTEuMyAxLjUtMy40IDEuNS0xLjQwMSAwLTIuNC0uN2E1LjkgNS45IDAgMCAxLTEuNi0ycS0uNS43LTEuNCAxLjQtLjkuOC0zLjEgMi4ybC0yLjEgMS4zLTEuMi45VjE2MWwxLjEtLjcuMi0uMi42LS40IDEuMi0uNyAxLjMtLjhxMS0uNyAxLjYtMS40bC45LTFxLjItLjUuMi0xLjd2LS42aC03em0xNC40IDN2LS43aC01LjJ2LjlxMCAxLjguMyAyLjQuMy43IDEgMSAuNi40IDEuNC40LjcgMCAxLjQtLjQuNi0uNC44LTEuMS4zLS44LjMtMi41bS05LjIgMjAuM3YtNy42cS0xLjUgMC0yLjQgMS0xIDEtMSAyLjUgMCAyLjEgMS40IDMuOWgtMi4xcS0uNy0xLTEtMi0uMi0xLS4yLTIuMiAwLTEuOC43LTMgLjctMSAyLTEuNyAxLjItLjYgMi45LS42IDIuNCAwIDQgMS40IDEuNSAxLjQwMSAxLjUgMy42IDAgMi4xLTEuNSAzLjR0LTQgMS4zem0xLjMtNy42djUuNXExLjMtLjEgMi0uOC43LS42OTkuNy0xLjggMC0xLjItLjctMi0uNy0uNi0yLS45bTAgMTYuNmgtNC42cS0uNSAwLS41LjR0LjUgMS4yaC0xLjNsLS42LTEuMS0uMi0xcTAtMS4zIDEuMS0xLjYtMS0xLjMtMS0yLjkgMC0uOTk5LjctMS44LjctLjggMS45LS44Ljk5OSAwIDEuOC43LjguODAxIDEuMyAyLjFsLjkgMi44aC42cTIgMCAyLTIgMC0xLjctMS45LTMuNGgyLjNxMS41IDEuMiAxLjUgMy42IDAgMS43LS45IDIuOGwtLjguNi0xIC40em0tNC4zLTJoMy4ybC0uNi0xLjVxLS40LS45OTktLjktMS41LS40LS41LTEtLjUtLjcgMC0xLjIuNS0uNC40LS40IDEgMCAxIC45IDJtMTQuMiAxMi43djIuMmgtMTYuNHYtNC42cTAtMi40IDEuNS0zLjh0NC0xLjQgNCAxLjUgMS41IDMuOHEwIDEtLjQgMi4zem0tMTQuNiAwaDYuOXEuNS0xIC41LTIgMC0xLjYtMS0yLjUtMS4xLTEtMi45LTEtMS42IDAtMi41LjktLjYuNS0uOCAxLS4yLjYtLjIgMnptOSAyNS4ydjIuM2wtMTEtNC44di0uNmw3LjUtMy4yLTcuNS0zLjJ2LS43bDExLTQuOHYyLjNsLTYuNSAyLjggNi41IDIuOHYxLjZsLTYuNSAyLjd6bTQuNSA0LjlxMCAuNTAxLS4zLjktLjQuNC0xIC40LS40IDAtLjgtLjR0LS40LTFxMC0uNC40LS44LjM5OS0uNC45LS40LjUgMCAuOS40LjMuNC4zLjltLTQuNS0xdjJoLTEwLjh2LTJ6bS0xLjcgMy43IDQgNGgtMi4zdjMuM2gtMlYyMzFoLTUuMnEtMS45IDAtMS45IDEuNiAwIDEuMTAxLjggMi40aC0ycS0uNy0xLjItLjctMi43dC45LTIuNHEuMi0uMy42LS41bC44LS40IDItLjFoNC44VjIyN3ptNy4zIDkuNHYyLjFoLTdxMS42IDEuNDAxIDEuNiAzLjMgMCAxLjEtLjUgMi0uNi44MDEtMS41IDEuMi0xIC41LTIuOC41aC02LjJ2LTIuMmg2LjdxMS4yIDAgMS45LS41LjctLjYuNy0xLjYgMC0uNy0uMy0xLjMtLjQtLjYtMS4zLTEuNGgtNy43di0yLjF6bS0xNi40IDE5LjFoMTYuNHY0cTAgMi42LTEuMiA0LTEuMyAxLjUtMy40IDEuNS0xLjQwMSAwLTIuNC0uN2E1LjkgNS45IDAgMCAxLTEuNi0ycS0uNS43LTEuNCAxLjQtLjkuODAxLTMuMSAyLjFsLTIuMSAxLjQtMS4yLjl2LTIuOGwxLjEtLjcuMi0uMi42LS40IDEuMi0uNyAxLjMtLjggMS42LTEuNC45LTFxLjItLjUuMi0xLjd2LS42aC03em0xNC40IDN2LS43aC01LjJ2LjlxMCAxLjguMyAyLjQuMy43IDEgMSAuNi40IDEuNC40LjcgMCAxLjQtLjQuNi0uNC44LTEuMS4zLS44LjMtMi41bS05LjIgMjAuM3YtNy42cS0xLjUgMC0yLjQgMS0xIDEtMSAyLjUgMCAyLjEgMS40IDMuOWgtMi4xcS0uNy0xLTEtMi0uMi0xLS4yLTIuMiAwLTEuOC43LTMgLjctMSAyLTEuNyAxLjItLjYgMi45LS42IDIuNCAwIDQgMS40IDEuNSAxLjMgMS41IDMuNiAwIDIuMS0xLjUgMy40dC00IDEuM3ptMS4zLTcuNnY1LjVxMS4zLS4xIDItLjguNy0uNjk5LjctMS44IDAtMS4yLS43LTItLjctLjYtMi0uOW0wIDE2LjZoLTQuNnEtLjUgMC0uNS40dC41IDEuMmgtMS4zbC0uNi0xLjEtLjItMXEwLTEuMyAxLjEtMS42LTEtMS4zLTEtMi45IDAtLjk5OS43LTEuOC43LS44IDEuOS0uOC45OTkgMCAxLjguNy44LjgwMSAxLjMgMi4xbC45IDIuN2guNnEyIDAgMi0xLjkgMC0xLjctMS45LTMuNGgyLjNxMS41IDEuMiAxLjUgMy42IDAgMS43LS45IDIuOGwtLjguNi0xIC40em0tNC4zLTJoMy4ybC0uNi0xLjVxLS40LS45OTktLjktMS41LS40LS41LTEtLjUtLjcgMC0xLjIuNC0uNC41MDEtLjQgMS4yIDAgMSAuOSAxLjh6bTE0LjIgMTIuN3YyLjJoLTE2LjRWMjk2cTAtMi40IDEuNS0zLjh0NC0xLjQgNCAxLjUgMS41IDMuOHEwIDEtLjQgMi4zem0tMTQuNiAwaDYuOXEuNS0xIC41LTIgMC0xLjYtMS0yLjUtMS4xLTEtMi45LTEtMS42IDAtMi41LjktLjYuNC0uOCAxdC0uMiAyem0tMS44IDExLjloMTYuNHY1LjJxMCAyLjMtMS4zIDMuNy0xLjIgMS40LTMuMyAxLjQtMS41IDAtMi42LS43LTEtLjctMS42LTItLjUtMS4yLS41LTMuNXYtMS44aC03em0xNC4zIDQuOHYtMi41aC01djIuNnEwIDEuNC42IDIuMi43LjggMiAuOCAyLjQgMCAyLjQtMy4xbS0zLjUgOS41aC0yLjVsLjIuMnEyLjUgMS41IDIuNSAzIDAgMS4zLTEuMiAyLjZsLTEuOS0xLjFxMS0xLjIgMS0yLjEgMC0uOTk5LTEtMS44LS45LS44LTIuMi0uOGgtNS43di0yLjFoMTAuOHptLTUuNiAxNnYtNy42cS0xLjUuMS0yLjQgMS0xIDEtMSAyLjUgMCAyLjEgMS40IDRoLTIuMXEtLjctMS0xLTItLjItMS0uMi0yLjMgMC0xLjguNy0yLjkuNy0uOTk5IDItMS44IDEuMi0uNiAyLjktLjYgMi40IDAgNCAxLjQgMS41IDEuNDAxIDEuNSAzLjYgMCAyLjEtMS41IDMuNHQtNCAxLjN6bTEuMy03LjV2NS40cTEuMyAwIDItLjguNy0uNjk5LjctMS44IDAtMS4yLS43LTEuOXQtMi0xem00LjMgMTBoLjZxMi42IDAgNCAxLjEgMS4yIDEuMiAxLjIgMi43bC0uMiAxLjZoLTJ2LTFxMC0xLjMtLjYtMS43LS42LS41LTIuNC0uNWgtLjZ2MS45aC0ydi0yaC04Ljh2LTJoOC45di0xLjZoMS45em0tNS42IDE0Ljh2LTcuNnEtMS41IDAtMi40IDEtMSAxLTEgMi41IDAgMi4wMDEgMS40IDMuOWgtMi4xcS0uNy0xLTEtMi0uMi0xLS4yLTIuMyAwLTEuNy43LTIuOHQyLTEuOHExLjItLjcgMi45LS43IDIuNCAwIDQgMS40IDEuNSAxLjQwMSAxLjUgMy42IDAgMi4yLTEuNSAzLjUtMS41IDEuMi00IDEuMnptMS4zLTcuNnY1LjRxMS4zIDAgMi0uN3QuNy0xLjlxMC0xLjEtLjctMS44LS43LS44LTItMW00LjMgMTIuMWgtMi41bC4yLjFxMi41IDEuNiAyLjUgMy4xIDAgMS4yLTEuMiAyLjZsLTEuOS0xLjJxMS0xIDEtMiAwLS45OTktMS0xLjgtLjktLjgtMi4yLS44aC01Ljd2LTIuMWgxMC44em0tNS42IDE2di03LjZxLTEuNSAwLTIuNCAxLTEgMS0xIDIuNSAwIDIuMSAxLjQgMy45aC0yLjFxLS43LTEtMS0yLS4yLTEtLjItMi4yIDAtMS44LjctMyAuNy0xIDItMS43IDEuMi0uNiAyLjktLjYgMi40IDAgNCAxLjQgMS41IDEuNDAxIDEuNSAzLjYgMCAyLjEtMS41IDMuNHQtNCAxLjN6bTEuMy03LjZ2NS41cTEuMy0uMSAyLS44LjctLjY5OS43LTEuOCAwLTEuMi0uNy0yLS43LS42LTItLjltNC4zIDEyLjFoLTEuNHExLjYgMS4zIDEuNiAzLjIgMCAxLS41IDEuOC0uNS45LTEuNCAxLjMtMSAuNS0zIC41aC02di0yLjFoNnExLjcgMCAyLjQtLjV0LjctMS43cTAtMS41LTEuNS0yLjZoLTcuN3YtMi4yaDEwLjh6bS04LjMgMTcuOWgtMnEtLjctMS42LS43LTMuMiAwLTIuNSAxLjUtNHQ0LTEuNXEyLjYgMCA0LjIgMS40IDEuNSAxLjUgMS41IDMuOSAwIC44MDEtLjIgMS41LS4xLjctLjUgMS42aC0yLjNxMS0xLjU5OSAxLTMgMC0xLjQtMS0yLjMtMS0xLTIuNi0xdC0yLjYgMS0xIDIuN3EwIDEuMy43IDIuOW0yLjcgMTEuNnYtNy42cS0xLjUgMC0yLjQgMS0xIDEtMSAyLjUgMCAyLjAwMSAxLjQgMy45aC0yLjFxLS43LTEtMS0yLS4yLTEtLjItMi4yIDAtMS44LjctMyAuNy0xIDItMS43IDEuMi0uNyAyLjktLjcgMi40IDAgNCAxLjQgMS41IDEuNCAxLjUgMy43IDAgMi4xLTEuNSAzLjR0LTQgMS4zem0xLjMtNy42djUuNXExLjMtLjEgMi0uOC43LS42OTkuNy0xLjggMC0xLjItLjctMi0uNy0uNi0yLS45TTQ3OS42MDEgMTUwLjNoMi4zbC0xIDEuOHEtLjQgMS0uNCAxLjYgMCAuNy4zIDEuMi4zLjQuOC40dC44LS4zbC45LTEuM3ExLjEtMiAyLTIuN2EyLjMyIDIuMzIgMCAwIDEgMS43LS43cTEuMiAwIDIgMXQuOCAyLjVxMCAxLjYtLjkgMy4zaC0ycTEtMiAxLTMuMiAwLS42LS4yLTFhLjk2Ljk2IDAgMCAwLS43LS4zcS0uNCAwLS43LjMtLjQuNC0uOCAxLjJsLS41LjhxLTEuNSAyLjctMy4zIDIuNy0xLjQgMC0yLjItMS0uOS0uOTk5LS45LTIuNyAwLTEgLjItMS43LjItLjguOC0yem00LjQgMTguOXYtNy42cS0xLjUuMS0yLjQgMS0xIDEtMSAyLjYgMCAyIDEuNCAzLjhoLTIuMXEtLjctMS0xLTItLjItLjktLjItMi4yIDAtMS44LjctMi45LjctMSAyLTEuNyAxLjItLjcgMi45LS43IDIuNCAwIDQgMS40IDEuNSAxLjQwMSAxLjUgMy42IDAgMi4yLTEuNSAzLjUtMS41IDEuMi00IDEuMnptMS4zLTcuNXY1LjRxMS4zIDAgMi0uN3QuNy0xLjlxMC0xLjEtLjctMS45LS43LS43LTItMXptLTQgMTcuOWgtMnEtLjctMS42LS43LTMuMSAwLTIuNiAxLjUtNCAxLjUtMS42IDQtMS42IDIuNiAwIDQuMiAxLjUgMS41IDEuNSAxLjUgMy44IDAgLjktLjIgMS41LS4xLjctLjUgMS43aC0yLjNxMS0xLjU5OSAxLTMgMC0xLjUtMS0yLjQtMS0xLTIuNi0xdC0yLjYgMS0xIDIuOHEwIDEuMi43IDIuOG04LjMgNy42cTAgMi40LTEuNiA0LTEuNiAxLjctNCAxLjctMi4zIDAtMy44LTEuNy0xLjYtMS42LTEuNi00LjEgMC0yLjQgMS42LTQgMS42LTEuNyA0LTEuNyAyLjMgMCAzLjggMS42IDEuNiAxLjcwMSAxLjYgNC4ybS0xLjktLjFxMC0xLjYtMS0yLjZ0LTIuNi0xcS0xLjUgMC0yLjUgMXQtMSAyLjdxMCAxLjUgMSAyLjV0Mi42IDFxMS41IDAgMi41LTF0MS0yLjZtMS45IDEwLjNoLTEuNHExLjYgMS41IDEuNiAzLjMgMCAxLS41IDEuOC0uNSAxLTEuNCAxLjQtMSAuNC0zIC40aC02di0yLjFoNnExLjcgMCAyLjQtLjV0LjctMS43cTAtMS41LTEuNS0yLjZoLTcuN3YtMi4yaDEwLjh6bTUuNiAxNy4xdjIuMWgtMTYuNHYtNC41cTAtMi40IDEuNS0zLjggMS41LTEuNSA0LTEuNXQ0IDEuNSAxLjUgMy44cTAgMS4xMDEtLjQgMi40em0tMTQuNiAwaDYuOXEuNS0xIC41LTIgMC0xLjYtMS0yLjYtMS4xLTEtMi45LTEtMS42IDAtMi41IDEtLjYuNC0uOCAxLS4yLjUtLjIgMnptNC43IDExLjhoLTQuNnEtLjUgMC0uNS40dC41IDEuMmgtMS4zbC0uNi0xLjJhMiAyIDAgMCAxLS4yLS45cTAtMS40IDEuMS0xLjYtMS0xLjQtMS0zIDAtLjk5OS43LTEuOC43LS43IDEuOS0uNy45OTkgMCAxLjguNy44LjcgMS4zIDJsLjkgMi44aC42cTIgMCAyLTIgMC0xLjctMS45LTMuM2gyLjNxMS41IDEuMiAxLjUgMy41IDAgMS44LS45IDIuOC0uMy40LS44LjdsLTEgLjN6bS00LjMtMi4xaDMuMmwtLjYtMS40cS0uNC0xLjEtLjktMS42YTEuMzYgMS4zNiAwIDAgMC0xLS40cS0uNyAwLTEuMi40LS40LjQtLjQgMS4xIDAgMSAuOSAxLjltOC42IDcuOGgtMi41bC4yLjJxMi41IDEuNSAyLjUgMyAwIDEuMy0xLjIgMi42bC0xLjktMS4xcTEtMS4xIDEtMiAwLTEuMS0xLTEuOS0uOS0uNy0yLjItLjdoLTUuN3YtMi4yaDEwLjh6bTAgMTQuNnYyLjRsLTE2LjMtNy42VjIzOWw3LjggMy43IDguNS00LjJ2Mi40bC02IDN6IiBmaWxsPSIjRTc4QTI3Ii8+PHBhdGggZD0ibTE4OC42MDEgNDAwLjQtMTAuOC0xMi40IDMtMi43cTEuOS0xLjcgMy44LTEuN3QzLjMgMS41cTEgMSAxIDIuMy4zIDEuMy0uNCAyLjZhNSA1IDAgMCAxIDIgMHExLjIuMiAzLjcgMWwyLjQuNiAxLjUuMy0yLjEgMS44LTEuMy0uM2gtLjJsLS44LS4yLTEuMy0uNS0xLjQtLjRxLTEuMy0uMy0yLjEtLjNoLTEuNHEtLjUuMi0xLjQgMWwtLjQuNCA0LjcgNS4zem0tNy4yLTEyLjgtLjYuNSAzLjUgMy44LjYtLjZxMS40LTEuMiAxLjYtMS44LjMtLjcuMi0xLjRhMi42IDIuNiAwIDAgMC0uNi0xLjNxLS42LS42LTEuMy0uOGEyLjAzIDIuMDMgMCAwIDAtMS40LjFxLS44LjMtMiAxLjVNMjAxLjUwMiAzODJsLTUuNyA1cTEuMSAxIDIuNCAxLjEgMS40IDAgMi41LTEgMS42LTEuMyAyLTMuNWwxLjQgMS42cS0uMyAxLjEtLjggMi0uNTAxLjgtMS41IDEuNy0xLjQwMSAxLjItMi43IDEuM2E1IDUgMCAwIDEtMi42LS4zcS0xLjMtLjUtMi40LTEuNy0xLjctMS44LTEuNi0zLjkgMC0yLjAwMSAxLjYtMy42IDEuNTk5LTEuNCAzLjYtMS4xIDIgLjMgMy42IDIuMXptLTYuNSA0IDQtMy42cS0uODAxLTEtMS44LTEtMSAwLTEuOC43LS45LjgtMSAxLjggMCAxIC42IDJ6bTE1LjIgMi41LTEwLjgtMTIuMiAyLjgtMi40cTIuMS0yIDQuMy0yIDIuMSAwIDMuOCAyIDEuNyAxLjggMS42IDQtLjEgMi4xLTEuOSAzLjctLjcuNi0yIDEuMWwzLjkgNC4zem0tNi43LTEzLjEtMS4xIDEgNC40IDVhNC44IDQuOCAwIDAgMCAxLjgtMXExLjItMSAxLjItMi41IDAtMS40LTEtMi42LS44LS44LTEuNy0xLjEtLjgtLjMtMS43IDAtLjguMi0yIDEuMnptMS4zLTExLjQgMS42LTEuNCAxMC45IDEyLjMtMS42IDEuNHptNS40LTMuM3EuNC0uNCAxLS40LjQgMCAuOC40LjMuNC4zIDEgMCAuNS0uNC44LS40LjM5OS0xIC4zYS45NS45NSAwIDAgMS0uOC0uNHEtLjMtLjQtLjMtLjl0LjQtLjhtMi4yIDQgMS42LTEuNCA3LjIgOC0xLjYgMS41ek0yMjcuOSAzNjEuOTk5bDEuNCAxLjZxLS44IDEuNS0yIDIuNi0xLjkgMS42LTQgMS41LTIuMSAwLTMuOC0yLTEuNy0xLjktMS42LTQgMC0yLjIgMS44LTMuN2wxLjItMSAxLjctLjYgMS41IDEuN3EtMiAuMy0zIDEuM3QtMSAyLjNxMCAxLjQgMSAyLjUgMSAxLjMgMi41IDEuMyAxLjQgMCAyLjYtMSAxLS45IDEuNy0yLjR6TTIzMS41IDM1My41bDMgMy40cS40LjQuNy4yLjMtLjMuNS0xLjJsLjkgMXEtLjIuOC0uNSAxLjJsLS41LjdxLTEgLjk5OS0yIC4zLS4zIDEuNy0xLjQgMi43LS45LjgtMiAuNy0xIDAtMS43LS45LS43LS44MDEtLjctMS44IDAtMS4xMDEuNy0yLjRsMS40LTIuNS0uMy0uNHEtMS4zLTEuNS0yLjgtLjItMS4zIDEuMi0xLjMgMy42bC0xLjYtMS43cTAtMiAxLjctMy41IDEuMy0xLjEwMSAyLjctMS4ybDEgLjIgMSAuNXptMS4zIDQuNy0yLTIuNC0uOCAxLjNxLS41IDEtLjYgMS43IDAgLjYuNCAxLjEuNS41IDEgLjYuNyAwIDEuMi0uNS43LS42LjgtMS44bS0xLjUtNy45LjMtNS42IDEuNSAxLjYgMi42LTIuMiAxLjIgMS40LTIuNSAyLjMgMy41IDMuOXExLjIgMS40IDIuNC40LjktLjggMS4zLTIuMmwxLjMgMS41cS0uMzk5IDEuMy0xLjUgMi4zdC0yLjQgMWwtLjgtLjEtLjgtLjUtMS40LTEuNC0zLjItMy41LTEuNCAxLjJ6bTMuNy0xMS44cS40LS4zIDEtLjMuNSAwIC44LjQuNC40LjQgMSAwIC41LS41LjgtLjMuMy0uOS4zYS45NS45NSAwIDAgMS0uOC0uNHEtLjM5OS0uNC0uMy0xIDAtLjQuNC0uOHptMi4zIDQuMSAxLjYtMS40IDcuMSA4LTEuNiAxLjV6bTcuNy02LjlxMS44LTEuNiA0LjEtMS41IDIuMzAxIDAgMy45IDEuOSAxLjUgMS43IDEuMyA0LS4yIDIuMTk5LTIgMy45LTEuOSAxLjU5OS00LjEgMS41LTIuMyAwLTMuOC0xLjgtMS42LTEuOC0xLjQtNCAuMS0yLjMgMi00bTEuMiAxLjVxLTEuMiAxLTEuMiAyLjUgMCAxLjQgMSAyLjUgMSAxLjIgMi40IDEuMiAxLjQuMSAyLjYtMSAxLjEwMS0xIDEuMi0yLjQuMS0xLjQtMS0yLjYtLjk5OS0xLjEwMS0yLjQtMS4yLTEuNCAwLTIuNiAxbTYuNS04LjIuOSAxcTAtMi4yIDEuNC0zLjRhMy4yNSAzLjI1IDAgMCAxIDEuNy0uOXExLS4xIDIgLjIuOS40IDIuMiAxLjlsNCA0LjYtMS41IDEuNC00LTQuNnEtMS4yLTEuMi0yLTEuNC0uOS0uMjAxLTEuOC42LTEuMSAxLS45IDIuOGw1LjEgNS44LTEuNiAxLjQtNy4yLTh6IiBmaWxsPSIjMkE4NkMwIi8+PHBhdGggZD0ibTI4Mi4yOTkgMzI5LjMtOTQuNiA4NS40IiBzdHJva2Utd2lkdGg9IjgiIHN0cm9rZS1kYXNoYXJyYXk9IjE2IDgiIHN0cm9rZT0iIzJBODZDMCIvPjxwYXRoIGQ9Im0xODIuOCA0MDkuNC05LjQgMTguMiAxOS03LjV6IiBmaWxsPSIjMkE4NkMwIi8+PHBhdGggZD0ibTE4Mi44IDQwOS40LTkuNCAxOC4yIDE5LTcuNXoiIHN0cm9rZS13aWR0aD0iOCIgc3Ryb2tlPSIjMkE4NkMwIi8+PHBhdGggZD0ibTM0My41IDMyOS4zIDk0LjYgODUuNCIgc3Ryb2tlLXdpZHRoPSI4IiBzdHJva2UtZGFzaGFycmF5PSIxNiA4IiBzdHJva2U9IiMyQTg2QzAiLz48cGF0aCBkPSJtNDMzLjE5OSA0MjAgMTkuMSA3LjYtOS40LTE4LjJ6IiBmaWxsPSIjMkE4NkMwIi8+PHBhdGggZD0ibTQzMy4xOTkgNDIwIDE5LjEgNy42LTkuNC0xOC4yeiIgc3Ryb2tlLXdpZHRoPSI4IiBzdHJva2U9IiMyQTg2QzAiLz48cGF0aCBkPSJtMzYwLjY5OSAzMzYuNyAxMS0xMi4yIDMgMi43cTEuOCAxLjcgMiAzLjYuMyAxLjktMSAzLjQtMSAxLjEtMi4zIDEuNC0xLjIuMy0yLjUtLjIuMi45LjIgMiAwIDEuMi0uNSAzLjhsLS40IDIuNS0uMiAxLjQtMi0xLjkuMi0xLjJ2LTEuMWwuMy0xLjMuMy0xLjVWMzM2cTAtLjgtLjItMS40LS4xLS41LTEtMS4zbC0uNC0uNC00LjggNS4zem0xMS44LTguNy0uNS0uNS0zLjQgMy45LjYuNnExLjMgMS4yIDIgMS40dDEuNCAwIDEuMi0uOC43LTEuM3EwLS44LS4zLTEuNC0uNC0uNy0xLjctMS45bTkgMjAuNC01LjctNXEtLjk5OSAxLjEtLjkgMi40LjEgMS40IDEuMyAyLjQgMS41IDEuNCAzLjcgMS42bC0xLjQgMS41YTUgNSAwIDAgMS0yLS42cS0xLS40LTItMS4zLTEuMi0xLjItMS42LTIuNC0uMy0xLjMgMC0yLjcuNC0xLjQgMS41LTIuNiAxLjYtMS44IDMuNy0yIDItLjIgMy43IDEuMiAxLjYgMS41IDEuNiAzLjQgMCAyLTEuOCAzLjl6bS00LjgtNiA0IDMuNnEuOC0xIC44LTJ0LS45LTEuNy0xLjktLjctMiAuOG0tLjggMTUuNCAxMC45LTEyLjEgMi44IDIuNXEyLjEgMiAyLjMgNCAuMyAyLjItMS41IDQtMS42IDEuOS0zLjcgMi0yLjIuMi00LTEuNC0uNy0uNy0xLjMtMS44bC0zLjkgNC4yem0xMi4zLTguMi0xLjEtMS00LjUgNWE0LjQgNC40IDAgMCAwIDEuMiAxLjdxMS4xIDEgMi42LjkgMS40LS4yIDIuNS0xLjQuNy0uOC45LTEuN3QtLjItMS43cS0uMy0uOC0xLjQtMS44bTExLjQuMSAxLjYgMS40LTExIDEyLjItMS42LTEuNHptNCA1cS40LjMuNC45IDAgLjUtLjMuOS0uMzk5LjQtLjkuNC0uNSAwLTEtLjMtLjMtLjQtLjMtLjl0LjMtMXEuMy0uMy45LS4zLjUwMSAwIC45LjNtLTMuOSAyLjcgMS42IDEuNC03LjIgOC0xLjYtMS40em00LjMgMTUtMS4zIDEuNXEtMS42LS42LTIuOC0xLjYtMS44LTEuNy0yLTMuOCAwLTIuMSAxLjYtNCAxLjcwMS0yIDMuOS0yIDIuMDAxLS4zIDMuOSAxLjNsMSAxLjJxLjQuNS44IDEuNWwtMS41IDEuN3EtLjUtMS45LTEuNi0yLjgtLjk5OS0xLTIuNC0uOC0xLjQuMS0yLjQgMS4zLTEuMSAxLjItMSAyLjYgMCAxLjQgMS4zIDIuNSAxIC44IDIuNiAxLjR6bTkuNiAzLjItMy4xIDMuNHEtLjM5OS40IDAgLjYuMjAxLjMgMS4yLjRsLS45IDEtMS4zLS4zLS44LS41cS0xLTEtLjQtMS45LTEuOC0uMS0yLjktMS4xLS44LS44LS45LTEuOCAwLTEuMS43LTJhMi43MiAyLjcyIDAgMCAxIDEuNy0uOHExLjEtLjEgMi41LjVsMi42IDEgLjQtLjNxMS4zLTEuNS0uMi0yLjgtMS4yLTEuMi0zLjctMWwxLjYtMS43cTEuOS0uMiAzLjYgMS4zIDEuMyAxLjIgMS41IDIuNnYxbC0uNSAxem0tNC41IDEuOCAyLjEtMi40LTEuNC0uNXEtMS0uNC0xLjctLjQtLjYgMC0xIC41LS41LjUtLjUgMS4xdC41IDFxLjguOCAyIC43bTcuNy0yLjQgNS42LS4zLTEuNSAxLjcgMi41IDIuMy0xLjMgMS40LTIuNS0yLjMtMy41IDRxLTEuMyAxLjMtLjEgMi40LjguNyAyLjMgMWwtMS4zIDEuNWE1LjMgNS4zIDAgMCAxLTIuNS0xLjNxLS45OTktMS0xLjItMi4zdi0uN3EwLS40LjMtLjkuMjAxLS41IDEuMi0xLjZsMy4yLTMuNS0xLjQtMS4zem0xMiAyLjVxLjQuMy41LjggMCAuNi0uMyAxLS40LjMtMSAuNC0uNCAwLS44LS40YS45NS45NSAwIDAgMS0uNC0uOHEwLS42LjMtMSAuMy0uMy44LS4zLjYgMCAxIC4zem0tMy44IDIuNSAxLjYgMS40LTcuMiA4LTEuNi0xLjR6bTcuNyA3cTEuOSAxLjcgMiA0IC4yIDIuMi0xLjQgNC0xLjU5OSAxLjctMy45IDEuOC0yLjIgMC00LTEuNy0xLjktMS42LTItMy44LS4yLTIuMyAxLjQtNCAxLjUtMS44IDMuOC0xLjkgMi4zIDAgNC4xIDEuNm0tMS4zIDEuNHEtMS4yLTEtMi42LTEtMS40LjEtMi40IDEuMy0xIDEuMS0xIDIuNS4xIDEuNCAxLjMgMi41IDEuMiAxIDIuNiAxdDIuNC0xLjIgMS0yLjZhMy45OCAzLjk4IDAgMCAwLTEuMy0yLjVtOC45IDUuNS0uOSAxcTIuMS0uMiAzLjUgMSAuNy43IDEgMS43dDAgMS45cS0uMiAxLTEuNSAyLjRsLTQuMiA0LjYtMS41LTEuNCA0LTQuNnExLjItMS4yIDEuMy0yIDAtMS0uOC0xLjctMS4xLTEtMy0uNmwtNSA1LjctMS43LTEuNCA3LjItOHoiIGZpbGw9IiMyQTg2QzAiLz48cGF0aCBkPSJtNDcxLjgwMSAxNDggLjIgMjU0LjUiIHN0cm9rZS13aWR0aD0iOCIgc3Ryb2tlPSIjRTc4QTI2Ii8+PHBhdGggZD0ibTQ2NC44MDEgNDAyLjUgNy4yIDE5LjIgNy4yLTE5LjJ6IiBmaWxsPSIjRTc4QTI2Ii8+PHBhdGggZD0ibTQ2NC44MDEgNDAyLjUgNy4yIDE5LjIgNy4yLTE5LjJ6IiBzdHJva2Utd2lkdGg9IjgiIHN0cm9rZT0iI0U3OEEyNiIvPjwvc3ZnPg==;" vertex="1" parent="1">
          <mxGeometry x="150" y="380" width="520" height="455" as="geometry" />
        </mxCell>
      </root>
    </mxGraphModel>
  </diagram>
  <diagram id="TuAUSists_Z2jujp1PvO" name="Replica Set Data Synchronization">
    <mxGraphModel dx="2261" dy="3157" grid="1" gridSize="10" guides="1" tooltips="1" connect="1" arrows="1" fold="1" page="1" pageScale="1" pageWidth="827" pageHeight="1169" math="0" shadow="0">
      <root>
        <mxCell id="0" />
        <mxCell id="1" parent="0" />
        <UserObject label="&lt;h2 class=&quot;contains-headerlink leafygreen-ui-19f71ei&quot; style=&quot;box-sizing: border-box; margin-top: 24px; margin-bottom: 8px; margin-right: unset; margin-left: unset; font-family: &amp;quot;Euclid Circular A&amp;quot;, &amp;quot;Helvetica Neue&amp;quot;, Helvetica, Arial, sans-serif; font-size: 24px; line-height: 32px; font-weight: 500; color: rgb(0, 30, 43); font-style: normal; font-variant-ligatures: normal; font-variant-caps: normal; letter-spacing: normal; orphans: 2; text-align: start; text-indent: 0px; text-transform: none; widows: 2; word-spacing: 0px; -webkit-text-stroke-width: 0px; white-space: normal; background-color: rgb(255, 255, 255); text-decoration-thickness: initial; text-decoration-style: initial; text-decoration-color: initial;&quot;&gt;Initial Sync&lt;a class=&quot;headerlink leafygreen-ui-11mfcte&quot; href=&quot;https://www.mongodb.com/docs/manual/core/replica-set-sync/#initial-sync&quot; title=&quot;Permalink to this heading&quot; style=&quot;box-sizing: border-box; position: absolute; align-self: center; padding: 0px 10px; visibility: hidden;&quot;&gt;&lt;svg xmlns=&quot;http://www.w3.org/2000/svg&quot; width=&quot;12&quot; height=&quot;12&quot; fill=&quot;none&quot; viewBox=&quot;0 0 16 16&quot; class=&quot;leafygreen-ui-a30zj9&quot; role=&quot;img&quot; aria-label=&quot;Link Icon&quot;&gt;&lt;path fill=&quot;currentColor&quot; d=&quot;M6.039 9.953a3.596 3.596 0 0 1-.327-.38l1.45-1.445a1.553 1.553 0 0 0 2.496.423l2.885-2.87a1.57 1.57 0 0 0 .01-2.213 1.553 1.553 0 0 0-2.203-.01l-.379.377A.995.995 0 0 1 8.56 3.83a1.005 1.005 0 0 1 .006-1.418l.38-.377a3.542 3.542 0 0 1 5.024.023 3.58 3.58 0 0 1-.022 5.047l-2.884 2.871a3.542 3.542 0 0 1-5.025-.022Z&quot;&gt;&lt;/path&gt;&lt;path fill=&quot;currentColor&quot; d=&quot;M9.961 6.047c.12.12.228.248.327.38l-1.45 1.445a1.553 1.553 0 0 0-2.496-.423l-2.885 2.87a1.57 1.57 0 0 0-.01 2.213 1.553 1.553 0 0 0 2.203.01l.379-.377a.995.995 0 0 1 1.411.006 1.005 1.005 0 0 1-.006 1.418l-.38.377a3.542 3.542 0 0 1-5.024-.023 3.58 3.58 0 0 1 .022-5.047l2.884-2.871a3.542 3.542 0 0 1 5.025.022Z&quot;&gt;&lt;/path&gt;&lt;/svg&gt;&lt;div id=&quot;initial-sync&quot; class=&quot;css-1btu0w3 evvkmar0&quot; style=&quot;box-sizing: border-box; display: inline; left: 0px; top: 0px; margin-top: -85px; position: absolute; padding-bottom: 2px;&quot;&gt;&lt;/div&gt;&lt;/a&gt;&lt;/h2&gt;&lt;br class=&quot;Apple-interchange-newline&quot;&gt;" link="&lt;h2 class=&quot;contains-headerlink leafygreen-ui-19f71ei&quot; style=&quot;box-sizing: border-box; margin-top: 24px; margin-bottom: 8px; margin-right: unset; margin-left: unset; font-family: &amp;quot;Euclid Circular A&amp;quot;, &amp;quot;Helvetica Neue&amp;quot;, Helvetica, Arial, sans-serif; font-size: 24px; line-height: 32px; font-weight: 500; color: rgb(0, 30, 43); font-style: normal; font-variant-ligatures: normal; font-variant-caps: normal; letter-spacing: normal; orphans: 2; text-align: start; text-indent: 0px; text-transform: none; widows: 2; word-spacing: 0px; -webkit-text-stroke-width: 0px; white-space: normal; background-color: rgb(255, 255, 255); text-decoration-thickness: initial; text-decoration-style: initial; text-decoration-color: initial;&quot;&gt;Initial Sync&lt;a class=&quot;headerlink leafygreen-ui-11mfcte&quot; href=&quot;https://www.mongodb.com/docs/manual/core/replica-set-sync/#initial-sync&quot; title=&quot;Permalink to this heading&quot; style=&quot;box-sizing: border-box; position: absolute; align-self: center; padding: 0px 10px; visibility: hidden;&quot;&gt;&lt;svg xmlns=&quot;http://www.w3.org/2000/svg&quot; width=&quot;12&quot; height=&quot;12&quot; fill=&quot;none&quot; viewBox=&quot;0 0 16 16&quot; class=&quot;leafygreen-ui-a30zj9&quot; role=&quot;img&quot; aria-label=&quot;Link Icon&quot;&gt;&lt;path fill=&quot;currentColor&quot; d=&quot;M6.039 9.953a3.596 3.596 0 0 1-.327-.38l1.45-1.445a1.553 1.553 0 0 0 2.496.423l2.885-2.87a1.57 1.57 0 0 0 .01-2.213 1.553 1.553 0 0 0-2.203-.01l-.379.377A.995.995 0 0 1 8.56 3.83a1.005 1.005 0 0 1 .006-1.418l.38-.377a3.542 3.542 0 0 1 5.024.023 3.58 3.58 0 0 1-.022 5.047l-2.884 2.871a3.542 3.542 0 0 1-5.025-.022Z&quot;&gt;&lt;/path&gt;&lt;path fill=&quot;currentColor&quot; d=&quot;M9.961 6.047c.12.12.228.248.327.38l-1.45 1.445a1.553 1.553 0 0 0-2.496-.423l-2.885 2.87a1.57 1.57 0 0 0-.01 2.213 1.553 1.553 0 0 0 2.203.01l.379-.377a.995.995 0 0 1 1.411.006 1.005 1.005 0 0 1-.006 1.418l-.38.377a3.542 3.542 0 0 1-5.024-.023 3.58 3.58 0 0 1 .022-5.047l2.884-2.871a3.542 3.542 0 0 1 5.025.022Z&quot;&gt;&lt;/path&gt;&lt;/svg&gt;&lt;div id=&quot;initial-sync&quot; class=&quot;css-1btu0w3 evvkmar0&quot; style=&quot;box-sizing: border-box; display: inline; left: 0px; top: 0px; margin-top: -85px; position: absolute; padding-bottom: 2px;&quot;&gt;&lt;/div&gt;&lt;/a&gt;&lt;/h2&gt;&lt;br class=&quot;Apple-interchange-newline&quot;&gt;" id="4qAtnbIugLLIMA2n8UeG-1">
          <mxCell style="text;whiteSpace=wrap;html=1;" vertex="1" parent="1">
            <mxGeometry x="-240" y="-1450" width="150" height="100" as="geometry" />
          </mxCell>
        </UserObject>
        <mxCell id="4qAtnbIugLLIMA2n8UeG-2" value="&lt;p style=&quot;box-sizing: border-box; margin-top: unset; margin-right: unset; margin-left: unset; font-family: &amp;quot;Euclid Circular A&amp;quot;, &amp;quot;Helvetica Neue&amp;quot;, Helvetica, Arial, sans-serif; font-size: 16px; line-height: 28px; margin-bottom: 16px; color: rgb(0, 30, 43); padding: 0px; text-align: start; text-wrap-mode: wrap; background-color: rgb(255, 255, 255);&quot; class=&quot;leafygreen-ui-1kp3ins&quot;&gt;When you perform a logical initial sync, MongoDB:&lt;/p&gt;&lt;ol style=&quot;box-sizing: border-box; margin-bottom: 10px; margin-top: 0px; color: rgb(0, 30, 43); font-family: &amp;quot;Euclid Circular A&amp;quot;, &amp;quot;Helvetica Neue&amp;quot;, Helvetica, Arial, sans-serif; font-size: 16px; text-align: start; text-wrap-mode: wrap; background-color: rgb(255, 255, 255);&quot; type=&quot;1&quot; class=&quot;leafygreen-ui-rioki0&quot;&gt;&lt;li style=&quot;box-sizing: border-box;&quot; class=&quot;leafygreen-ui-d7p7b6&quot;&gt;&lt;p style=&quot;box-sizing: border-box; margin-top: unset; margin-right: unset; margin-left: unset; line-height: 28px; margin-bottom: 8px; color: var(--font-color-primary);&quot; class=&quot;leafygreen-ui-1kp3ins&quot;&gt;Clones all databases except the&amp;nbsp;&lt;a style=&quot;box-sizing: border-box; -webkit-box-align: center; align-items: center; cursor: pointer; position: relative; text-decoration-line: none; text-decoration-color: transparent; line-height: 13px; font-weight: var(--link-font-weight);&quot; href=&quot;https://www.mongodb.com/docs/manual/reference/local-database/#std-label-replica-set-local-database&quot; class=&quot;leafygreen-ui-tqgtui&quot;&gt;local&lt;/a&gt;&amp;nbsp;database. To clone, the&amp;nbsp;&lt;a style=&quot;box-sizing: border-box; -webkit-box-align: center; align-items: center; cursor: pointer; position: relative; text-decoration-line: none; text-decoration-color: transparent; line-height: 13px; font-weight: var(--link-font-weight);&quot; href=&quot;https://www.mongodb.com/docs/manual/reference/program/mongod/#mongodb-binary-bin.mongod&quot; class=&quot;leafygreen-ui-tqgtui&quot;&gt;&lt;code style=&quot;box-sizing: border-box; font-weight: var(--link-font-weight); transition: 0.15s ease-in-out; border-radius: 3px; font-family: &amp;quot;Source Code Pro&amp;quot;, Menlo, monospace; line-height: 20px; border: 1px solid rgb(232, 237, 235); font-size: unset; display: inline; color: inherit; background: var(--background-color-secondary); overflow-wrap: break-word; white-space: unset;&quot; class=&quot;leafygreen-ui-19v7id5&quot;&gt;mongod&lt;/code&gt;&lt;/a&gt;&amp;nbsp;scans every collection in each&amp;nbsp;source member&amp;nbsp;database and inserts all data into its own copies of these collections.&lt;/p&gt;&lt;/li&gt;&lt;li style=&quot;box-sizing: border-box;&quot; class=&quot;leafygreen-ui-d7p7b6&quot;&gt;&lt;p style=&quot;box-sizing: border-box; margin-top: unset; margin-right: unset; margin-left: unset; line-height: 28px; margin-bottom: 8px; color: var(--font-color-primary);&quot; class=&quot;leafygreen-ui-1kp3ins&quot;&gt;Builds all collection indexes as the documents are copied for each collection.&lt;/p&gt;&lt;/li&gt;&lt;li style=&quot;box-sizing: border-box;&quot; class=&quot;leafygreen-ui-d7p7b6&quot;&gt;&lt;p style=&quot;box-sizing: border-box; margin-top: unset; margin-right: unset; margin-left: unset; line-height: 28px; margin-bottom: 8px; color: var(--font-color-primary);&quot; class=&quot;leafygreen-ui-1kp3ins&quot;&gt;Pulls newly added oplog records during the data copy. Ensure that the&amp;nbsp;destination member&amp;nbsp;has enough disk space in the&amp;nbsp;&lt;code style=&quot;box-sizing: border-box; transition: 0.15s ease-in-out; border-radius: 3px; font-family: &amp;quot;Source Code Pro&amp;quot;, Menlo, monospace; line-height: 20px; border: 1px solid rgb(232, 237, 235); font-size: unset; display: inline; color: var(--font-color-primary); background: var(--background-color-secondary); overflow-wrap: break-word; white-space: unset;&quot; class=&quot;leafygreen-ui-19v7id5&quot;&gt;local&lt;/code&gt;&amp;nbsp;database to temporarily store these oplog records for the duration of this data copy stage.&lt;/p&gt;&lt;/li&gt;&lt;li style=&quot;box-sizing: border-box;&quot; class=&quot;leafygreen-ui-d7p7b6&quot;&gt;&lt;p style=&quot;box-sizing: border-box; margin-top: unset; margin-right: unset; margin-left: unset; line-height: 28px; margin-bottom: 8px; color: var(--font-color-primary);&quot; class=&quot;leafygreen-ui-1kp3ins&quot;&gt;Applies all changes to the data set. Using the oplog from the&amp;nbsp;source member, the&amp;nbsp;&lt;a style=&quot;box-sizing: border-box; -webkit-box-align: center; align-items: center; cursor: pointer; position: relative; text-decoration-line: none; text-decoration-color: transparent; line-height: 13px; font-weight: var(--link-font-weight);&quot; href=&quot;https://www.mongodb.com/docs/manual/reference/program/mongod/#mongodb-binary-bin.mongod&quot; class=&quot;leafygreen-ui-tqgtui&quot;&gt;&lt;code style=&quot;box-sizing: border-box; font-weight: var(--link-font-weight); transition: 0.15s ease-in-out; border-radius: 3px; font-family: &amp;quot;Source Code Pro&amp;quot;, Menlo, monospace; line-height: 20px; border: 1px solid rgb(232, 237, 235); font-size: unset; display: inline; color: inherit; background: var(--background-color-secondary); overflow-wrap: break-word; white-space: unset;&quot; class=&quot;leafygreen-ui-19v7id5&quot;&gt;mongod&lt;/code&gt;&lt;/a&gt;&amp;nbsp;updates its data set to reflect the current state of the replica set.&lt;/p&gt;&lt;/li&gt;&lt;/ol&gt;&lt;p style=&quot;box-sizing: border-box; margin-top: unset; margin-right: unset; margin-left: unset; font-family: &amp;quot;Euclid Circular A&amp;quot;, &amp;quot;Helvetica Neue&amp;quot;, Helvetica, Arial, sans-serif; font-size: 16px; line-height: 28px; margin-bottom: 16px; color: rgb(0, 30, 43); text-align: start; text-wrap-mode: wrap; background-color: rgb(255, 255, 255);&quot; class=&quot;leafygreen-ui-1kp3ins&quot;&gt;When the initial sync finishes, the member transitions from&amp;nbsp;&lt;a style=&quot;box-sizing: border-box; -webkit-box-align: center; align-items: center; cursor: pointer; position: relative; text-decoration-line: none; text-decoration-color: transparent; line-height: 13px; font-weight: var(--link-font-weight);&quot; href=&quot;https://www.mongodb.com/docs/manual/reference/replica-states/#mongodb-replstate-replstate.STARTUP2&quot; class=&quot;leafygreen-ui-tqgtui&quot;&gt;&lt;code style=&quot;box-sizing: border-box; font-weight: var(--link-font-weight); transition: 0.15s ease-in-out; border-radius: 3px; font-family: &amp;quot;Source Code Pro&amp;quot;, Menlo, monospace; line-height: 20px; border: 1px solid rgb(232, 237, 235); font-size: unset; display: inline; color: inherit; background: var(--background-color-secondary); overflow-wrap: break-word; white-space: unset;&quot; class=&quot;leafygreen-ui-19v7id5&quot;&gt;STARTUP2&lt;/code&gt;&lt;/a&gt;&amp;nbsp;to&amp;nbsp;&lt;a style=&quot;box-sizing: border-box; -webkit-box-align: center; align-items: center; cursor: pointer; position: relative; text-decoration-line: none; text-decoration-color: transparent; line-height: 13px; font-weight: var(--link-font-weight);&quot; href=&quot;https://www.mongodb.com/docs/manual/reference/replica-states/#mongodb-replstate-replstate.SECONDARY&quot; class=&quot;leafygreen-ui-tqgtui&quot;&gt;&lt;code style=&quot;box-sizing: border-box; font-weight: var(--link-font-weight); transition: 0.15s ease-in-out; border-radius: 3px; font-family: &amp;quot;Source Code Pro&amp;quot;, Menlo, monospace; line-height: 20px; border: 1px solid rgb(232, 237, 235); font-size: unset; display: inline; color: inherit; background: var(--background-color-secondary); overflow-wrap: break-word; white-space: unset;&quot; class=&quot;leafygreen-ui-19v7id5&quot;&gt;SECONDARY&lt;/code&gt;.&lt;/a&gt;&lt;/p&gt;" style="text;html=1;align=center;verticalAlign=middle;resizable=0;points=[];autosize=1;strokeColor=none;fillColor=none;" vertex="1" parent="1">
          <mxGeometry x="-690" y="-780" width="1630" height="250" as="geometry" />
        </mxCell>
      </root>
    </mxGraphModel>
  </diagram>
  <diagram id="h0xPjyCHsvleS2HXMXLM" name="Page-3">
    <mxGraphModel dx="1434" dy="819" grid="1" gridSize="10" guides="1" tooltips="1" connect="1" arrows="1" fold="1" page="1" pageScale="1" pageWidth="827" pageHeight="1169" math="0" shadow="0">
      <root>
        <mxCell id="0" />
        <mxCell id="1" parent="0" />
        <mxCell id="SbwTCuPHcQwfrCsKJc_f-1" value="" style="shape=image;imageAspect=0;aspect=fixed;verticalLabelPosition=bottom;verticalAlign=top;image=data:image/svg+xml,PHN2ZyB4bWxucz0iaHR0cDovL3d3dy53My5vcmcvMjAwMC9zdmciIGZpbGw9Im5vbmUiIGhlaWdodD0iNTQwIiB3aWR0aD0iNTIwIiB2aWV3Qm94PSIwIDAgNTIwIDU0MCI+PHBhdGggZD0iTTAgMGg1MjB2NTQwSDB6IiBmaWxsPSIjZmZmIi8+PHBhdGggZD0iTTIyIDYyYzAgMSAxLjQgMiAzIDJoMTY5YzEuNyAwIDMtMSAzLTJWMjFjMC0xLjItMS4zLTItMy0ySDI1Yy0xLjYgMC0zIC44LTMgMnoiIGZpbGw9IiM1QTU5NTUiLz48cGF0aCBkPSJNNzYuMSA0OFYzMS44aDUuNXEzLjQgMCA1LjMgMSAyIDEgMy4xIDN0MS4xIDQuMnEwIDEuNy0uNiAzLjJ0LTEuOCAyLjZxLTEuMiAxLjItMi44IDEuOGwtMS43LjVoLTguMXptNS4zLTE0LjJoLTNWNDZoM3ExLjggMCAyLjgtLjMgMS0uMjAxIDEuNi0uNi42LS4zIDEuMi0uOSAxLjctMS43IDEuNy00LjRUODcgMzUuNXEtLjYtLjYtMS41LTFsLTEuNi0uNmgtMi40ek05NiAzNy4zdjIuNWwuMi0uMnExLjUtMi41IDMtMi41IDEuMyAwIDIuNjAxIDEuMmwtMS4xIDEuOXEtMS4xLTEtMi0xLTEuMSAwLTEuOSAxLS43IDEtLjcgMi4zVjQ4aC0yLjJWMzcuM2gyLjJ6bTguNDAxLTQuNXEuNSAwIC45LjMuNC40LjQgMSAwIC40LS40Ljh0LS45LjQtLjktLjRxLS4zLS40LS4zLS45dC4zLS44cS4zOTktLjQuOS0uNG0tMSA0LjVoMnYxMC44aC0yem0xMS43IDBoMi40bC00LjggMTFoLS43bC00LjktMTFoMi4zbDMgNi42em0xMi43IDUuNmgtNy42cTAgMS41IDEgMi40IDEgMSAyLjUgMSAyLjEgMCAzLjktMS4zdjJxLTEgLjctMiAxdC0yLjIuM3EtMS44IDAtMy0uOC0xLS43LTEuNy0yLS42LTEuMi0uNi0yLjkgMC0yLjQgMS4zLTQgMS40LTEuNSAzLjctMS41IDIuMSAwIDMuNCAxLjV0MS4zIDR6bS03LjYtMS4zaDUuNXEtLjEtMS4zLS44LTItLjctLjYtMS44LS42LTEuMiAwLTIgLjYtLjYuNy0uOSAybTEyLjItNC4zdjIuNS0uMnExLjYtMi41IDMuMi0yLjUgMS4yIDAgMi41IDEuMmwtMS4xIDEuOXEtMS4xMDEtMS0yLjEtMXQtMS44IDFxLS43IDEtLjcgMi4zVjQ4aC0yLjJWMzcuM3pNNzQuODAxIDI0NnYtMTYuNUg4MHEyLjQgMCAzLjggMS4zIDEuNCAxLjIgMS40IDMuNCAwIDEuNC0uNyAyLjVhNC42NiA0LjY2IDAgMCAxLTIgMS42cS0xLjIuNS0zLjYuNWgtMS43djcuMWgtMi40em00LjgtMTQuNGgtMi40djUuMWgyLjZxMS40IDAgMi4yLS42LjctLjcuNy0yIDAtMi41LTMtMi41em05LjYgMy41djIuNWwuMS0uMnExLjYtMi41IDMuMS0yLjUgMS4yIDAgMi41IDEuMmwtMSAycS0xLjItMS4xLTIuMi0xLjF0LTEuNyAxYTMuNTggMy41OCAwIDAgMC0uOCAyLjN2NS42aC0yLjF2LTEwLjh6bTguMy00LjVxLjYgMCAxIC40LjMuMy4zLjggMCAuNi0uNCAxLS4zLjMtLjkuM2EuOTUuOTUgMCAwIDEtLjgtLjRxLS40LS4zLS40LS45IDAtLjQuNC0uOGEuOTUuOTUgMCAwIDEgLjgtLjRtLTEgNC41aDIuMVYyNDZoLTIuMXYtMTAuOW0xNCAyLjl2OGgtMi4xdi02cTAtMS45LS41LTIuNnQtMS43LS43cS0uNyAwLTEuMi4zLS42LjMtMS4zIDF2OGgtMi4xdi0xMWgyLjF2MS40cTEuNy0xLjYgMy4yLTEuNiAyIDAgMy4yIDIgMS43LTIgMy42LTIgMS41IDAgMi41IDEuMSAxIDEuMiAxIDMuNXY2LjRoLTJ2LTYuNHEwLTEuMy0uNi0yLS42LS44LTEuNi0uOC0xLjMgMC0yLjUgMS40bTE2LjUgMS40djQuNnEwIC42LjMuNi4zOTkgMCAxLjItLjZ2MS4zcS0uNy41LTEuMi42LS40LjItLjkuMi0xLjQgMC0xLjYtMS0xLjQgMS0yLjkgMS0xLjEgMC0xLjktLjgtLjctLjctLjctMS44IDAtMSAuNy0xLjkuNjk5LS44MDEgMi4xLTEuMmwyLjctMXYtLjVxMC0yLTItMi0xLjcwMSAwLTMuMyAxLjh2LTIuM3ExLjItMS41IDMuNi0xLjUgMS43IDAgMi44IDFsLjYuN3EuMy41LjMgMWwuMSAxLjh6bS0yLjIgNC40di0zLjJsLTEuNC41cS0xIC41LTEuNSAxLS41LjMtLjUgMXQuNCAxcS41LjUgMS4xLjUgMSAwIDItLjh6bTcuOS04Ljd2Mi41bC4xLS4ycTEuNi0yLjUgMy4xLTIuNSAxLjIgMCAyLjUgMS4ybC0xIDJxLTEuMi0xLjEtMi4yLTEuMXQtMS43IDFhMy41NyAzLjU3IDAgMCAwLS44IDIuM3Y1LjZoLTIuMXYtMTAuOHptMTQuNSAwaDIuNGwtNy42IDE2LjNoLTIuNGwzLjctNy44LTQuMi04LjVoMi40bDMgNi4xIDIuNy02eiIgZmlsbD0iI0ZGRkZGRSIvPjxwYXRoIGQ9Ik0yNDYuNSAxMzEuNHYyLjNMMjMwIDEyN3YtLjVsMTMuNC01LjQtMTMuNC01LjR2LS41bDE2LjUtNi42djIuNGwtMTEuMyA0LjUgMTEuMyA0LjV2Mi4ybC0xMS4zIDQuNiAxMS4zIDQuNXptLTUuNiA2LjFoLTIuNWwuMi4ycTIuNSAxLjUgMi41IDMgMCAxLjMtMS4yIDIuNkwyMzggMTQycTEtMSAxLTJ0LTEtMS44YTMuNTcgMy41NyAwIDAgMC0yLjMtLjhoLTUuNnYtMi4xSDI0MXYyLjF6bTQuNSA4LjRxMCAuNS0uMy45LS40LjMtMSAuMy0uNCAwLS44LS4zYTEuMzYgMS4zNiAwIDAgMS0uNC0xcTAtLjQuNC0uOHQuOS0uNC44LjRxLjQuMzk5LjQuOW0tNC41LTF2MkgyMzB2LTJoMTF6bS0xLjcgMy42IDQgNGgtMi4zdjMuNGgtMnYtMy40aC01LjJxLTEuOSAwLTEuOSAxLjUgMCAxLjIuOCAyLjVoLTJhNS42MyA1LjYzIDAgMCAxLS43LTIuN3EwLTEuNS45LTIuNC4yMDEtLjQuNi0uNmwuOC0uMyAyLS4xaDQuOHYtMS45em0tMy45IDE4Ljd2LTcuNnEtMS41LjEtMi40IDEtMSAxLTEgMi41IDAgMi4yIDEuNCA0aC0yLjFxLS43LTEtMS0ydC0uMy0yLjNxMC0xLjguOC0yLjkuNy0xIDItMS43IDEuMi0uNyAyLjktLjcgMi40IDAgNCAxLjQgMS41IDEuNCAxLjUgMy42dC0xLjUgMy40cS0xLjUgMS4zLTQgMS4zem0xLjMtNy41djUuNHExLjMgMCAyLS44LjctLjYuNy0xLjggMC0xLjEtLjctMS45LS43LS43LTItMXoiIGZpbGw9IiMzMjk5Q0MiLz48cGF0aCBkPSJtMjI0LjEgNDcuMyAxLjIgMTgzLjUiIHN0cm9rZS13aWR0aD0iNCIgc3Ryb2tlPSIjMzI5OUNDIi8+PHBhdGggZD0ibTIyMC41IDIzMC44IDQuOSAxMi44IDQuNy0xMi44eiIgZmlsbD0iIzMyOTlDQyIvPjxwYXRoIGQ9Im0yMjAuNSAyMzAuOCA0LjkgMTIuOCA0LjctMTIuOHoiIHN0cm9rZS13aWR0aD0iNCIgc3Ryb2tlPSIjMzI5OUNDIi8+PHBhdGggZD0iTTE5NyAyMjkuOGMwLS44LTIuNS0xLjUtNS42LTEuNUgyNy43Yy0zIDAtNS42LjctNS42IDEuNXY0MmMwIC45IDIuNSAxLjUgNS42IDEuNWgxNjMuN2MzLjEgMCA1LjctLjYgNS43LTEuNHYtNDIuMSIgZmlsbD0iIzJBODZDMCIvPjxwYXRoIGQ9Ik03Ni41IDI1OC4ydi0xNi40aDUuMnEyLjMgMCAzLjcgMS4zIDEuNCAxLjIgMS40IDMuNCAwIDEuNC0uNyAyLjV0LTIgMS42cS0xLjIuNS0zLjUuNWgtMS43djcuMXptNC44LTE0LjNoLTIuNHY1LjFoMi41cTEuNSAwIDIuMi0uNy44LS42LjgtMS45IDAtMi41LTMuMS0yLjVtOS42IDMuNXYyLjUtLjJxMS42LTIuNSAzLjItMi41IDEuMiAwIDIuNSAxLjJsLTEuMSAxLjlxLTEuMS0xLTIuMS0xdC0xLjggMXEtLjcgMS0uNyAyLjN2NS42aC0yLjJ2LTEwLjhIOTF6bTguMy00LjVxLjUgMCAuOS4zLjQuNC40IDFhLjk1Ljk1IDAgMCAxLS40LjhxLS40LjQtMSAuNC0uNCAwLS44LS40LS4zLS40LS4zLS45dC4zLS44cS40LS40LjktLjRtLTEgNC41aDJ2MTAuOGgtMnptMTQgM3Y3LjhIMTEwdi02cTAtMS44LS40LTIuNS0uNS0uNy0xLjctLjctLjcgMC0xLjMuM2wtMS4yIDF2Ny45aC0yLjJ2LTEwLjhoMi4ydjEuNHExLjYtMS42IDMuMi0xLjYgMiAwIDMuMSAyIDEuOC0yIDMuNi0yIDEuNiAwIDIuNiAxLjEgMSAxLjIgMSAzLjV2Ni40aC0yLjF2LTYuNHEwLTEuMy0uNi0yLS41LS44LTEuNi0uOC0xLjMgMC0yLjQgMS40bTE2LjQgMS4zdjQuNnEwIC42LjQuNi4zIDAgMS4yLS42djEuM2wtMS4yLjZxLS40LjItMSAuMi0xLjMgMC0xLjUtMS0xLjQgMS0zIDEtMSAwLTEuOC0uOC0uOC0uNy0uOC0xLjggMC0xIC44LTEuOS43LS44MDEgMi0xLjJsMi44LTF2LS42cTAtMS45LTItMS45LTEuNyAwLTMuNCAxLjh2LTIuM3ExLjMtMS41IDMuNi0xLjUgMS44IDAgMi44IDEgLjQuMi42LjdsLjQgMXYxLjh6bS0yLjEgNC40di0zLjJsLTEuNC41cS0xLjEuNS0xLjYuOS0uNC40LS40IDEgMCAuOC40IDEuMnQxLjEuNHExIDAgMS45LS44bTcuOS04Ljd2Mi41LS4ycTEuNi0yLjUgMy4yLTIuNSAxLjIgMCAyLjUgMS4ybC0xLjEgMS45cS0xLjEtMS0yLjEtMXQtMS44IDFxLS43IDEtLjcgMi4zdjUuNmgtMi4ydi0xMC44em0xNC41IDBoMi40bC03LjYgMTYuM2gtMi40bDMuNy03LjgtNC4yLTguNWgyLjRsMyA2LjEgMi43LTZ6IiBmaWxsPSIjZmZmIi8+PHBhdGggZD0iTTE5NyAzNjMuN2MwLS44LTIuNS0xLjUtNS42LTEuNUgyNy43Yy0zIDAtNS42LjctNS42IDEuNXY0MmMwIC45IDIuNSAxLjUgNS42IDEuNWgxNjMuN2MzLjEgMCA1LjctLjYgNS43LTEuNHYtNDIiIGZpbGw9IiM1Q0E4MzEiLz48cGF0aCBkPSJtNjQuNyAzODUuNC0xLjgtMXEtMS43LTEuMS0yLjQtMi0uNy0uOTk5LS43LTIuNCAwLTEuOSAxLjQtMy4xIDEuMy0xLjIgMy40LTEuMiAyLjEwMSAwIDMuOCAxLjF2Mi43cS0xLjgtMS43LTMuOC0xLjctMS4xIDAtMS45LjUtLjcuNi0uNyAxLjQgMCAuNy41IDEuNC42LjYgMS44IDEuM2wxLjggMXEzIDEuOSAzIDQuNiAwIDItMS40IDMuMi0xLjMgMS4zLTMuNCAxLjMtMi40IDAtNC40LTEuNXYtM3ExLjkgMi40IDQuNCAyLjQgMS4wMDEgMCAxLjgtLjZ0LjgtMS42cTAtMS41LTIuMi0yLjhtMTUuOSAxLjZINzNxMCAxLjYgMSAyLjUgMSAxIDIuNSAxIDIuMDAxIDAgMy45LTEuNHYyLjFxLTEgLjctMiAxLTEgLjItMi4zLjItMS43IDAtMi44LS43dC0xLjgtMnEtLjctMS4yLS43LTIuOSAwLTIuNCAxLjQtNCAxLjQwMS0xLjUgMy43LTEuNSAyLjEgMCAzLjQgMS41IDEuMzAxIDEuNSAxLjMgNHYuM3ptLTcuNi0xLjJoNS40cTAtMS4zLS43LTItLjY5OS0uNy0xLjgtLjctMS4yIDAtMiAuNy0uNjk5LjctLjkgMm0xOCAzLjl2Mi4ycS0xLjcuNi0zLjIuNi0yLjUgMC00LTEuNXQtMS41LTRxMC0yLjYgMS40LTQuMiAxLjUtMS41IDMuOS0xLjVsMS41LjEgMS42LjZ2Mi4zcS0xLjU5OS0xLTMtMS0xLjQgMC0yLjQgMS0uOSAxLS45IDIuNnQxIDIuNiAyLjcgMXExLjIgMCAyLjgtLjh6bTcuNS04LjJxMi41IDAgNC4wMDEgMS42IDEuNyAxLjUgMS43IDQgMCAyLjMtMS42IDMuOC0xLjcwMSAxLjYtNC4yIDEuNi0yLjQgMC00LTEuNi0xLjctMS42LTEuNy00IDAtMi4zIDEuNy0zLjkgMS42LTEuNSA0LjEtMS41bS0uMSAxLjlxLTEuNSAwLTIuNSAxdC0xIDIuNnEwIDEuNSAxIDIuNXQyLjYgMSAyLjUwMS0xcTEtMSAxLTIuNiAwLTEuNS0xLTIuNXQtMi42LTFtMTAuMzAxLTEuOXYxLjRxMS40LTEuNiAzLjItMS42IDEgMCAyIC41LjguNSAxLjIgMS40LjUgMSAuNSAyLjl2Ni4yaC0yLjFWMzg2cTAtMS42LS41LTIuMy0uNi0uNy0xLjctLjctMS41IDAtMi42IDEuNXY3LjdoLTIuMnYtMTAuOGgyLjJ6bTE3LjEtNS42aDIuMXYxNi40aC00LjZxLTIuMyAwLTMuOC0xLjUtMS40LTEuNi0xLjQtNC4xIDAtMi40IDEuNS00IDEuNS0xLjQgMy44LTEuNCAxLjEgMCAyLjQuNHYtNS44bTAgMTQuNXYtNi44cS0xLS41LTItLjUtMS42IDAtMi42IDF0LTEgMi45cTAgMS42LjkgMi41LjUuNiAxIC44bDIgLjF6bTExLjgtNC42djQuNnEwIC41LjMuNS40IDAgMS4zLS42djEuM2wtMS4yLjdxLS40LjItMSAuMi0xLjMgMC0xLjUtMS4xLTEuNDAxIDEtMyAxLTEgMC0xLjgtLjctLjgtLjgtLjgtMS45IDAtLjk5OS44LTEuOC43LS44IDItMS4zbDIuOC0xdi0uNXEwLTItMi0yLTEuNyAwLTMuNCAxLjl2LTIuNHExLjI5OS0xLjQgMy42LTEuNCAxLjggMCAyLjguOS4zOTkuMy42LjhsLjQgMXYxLjh6bS0yLjEgNC4zVjM4N2wtMS41LjZxLTEgLjQtMS41LjktLjQuNC0uNCAxIDAgLjcuNCAxLjEuNC41IDEgLjUgMS4xIDAgMi0uOXptNy45LTguNnYyLjUtLjJxMS42LTIuNSAzLjItMi41IDEuMiAwIDIuNSAxLjJsLTEuMSAxLjlxLTEuMi0xLTIuMS0xLTEgMC0xLjguOS0uNyAxLS43IDIuM3Y1LjdoLTIuMnYtMTAuOHptMTQuNSAwaDIuNGwtNy42IDE2LjNoLTIuNGwzLjYtNy44LTQuMS04LjVoMi40bDMgNnoiIGZpbGw9IiNGRkZGRkUiLz48cGF0aCBkPSJNMjI0LjAwMSAyNTkuM2MtLjIgNDIuMiA1NC40IDQ4LjQgNjcuNiAxNiIgc3Ryb2tlLXdpZHRoPSI0IiBzdHJva2U9IiMzMjk5Q0MiLz48cGF0aCBkPSJtMjk2LjMgMjc2LjEtMi40LTEzLjQtNyAxMS44eiIgZmlsbD0iIzMyOTlDQyIvPjxwYXRoIGQ9Im0yOTYuMyAyNzYuMS0yLjQtMTMuNC03IDExLjh6IiBzdHJva2Utd2lkdGg9IjQiIHN0cm9rZT0iIzMyOTlDQyIvPjxwYXRoIGQ9Ik0yMzcuMjk5IDI5NS4zaDEuNmw3LjQgMTYuNGgtMi41bC0yLjEtNC44aC03bC0yIDQuOGgtMi41bDctMTYuNHptMy40IDkuNS0yLjYtNi0yLjUgNnptNi45IDEyLjRWMzAxaDMuOHEyLjkgMCA0LjQgMS41IDEuNyAxLjQgMS43IDQgMCAyLjQtMS42IDQtMS41IDEuNS0zLjggMS41LTEgMC0yLjMtLjR2NS43aC0yLjJ6bTMuNy0xNC4zaC0xLjV2Ni43cTEgLjUgMiAuNSAxLjYgMCAyLjUtMSAxLTEuMSAxLTIuOCAwLS45OTktLjUtMS44YTIuNiAyLjYgMCAwIDAtMS4yLTEuMnEtLjgtLjQtMi4zLS40bTguMyAxNC4zVjMwMWgzLjhxMi45IDAgNC40IDEuNSAxLjcgMS40IDEuNyA0IDAgMi40LTEuNiA0LTEuNSAxLjUtMy44IDEuNS0xIDAtMi4zLS40djUuN2gtMi4yem0zLjctMTQuM2gtMS41djYuN3ExIC41IDIgLjUgMS42IDAgMi41LTEgMS0xLjEgMS0yLjggMC0uOTk5LS41LTEuOGEyLjYgMi42IDAgMCAwLTEuMi0xLjJxLS44LS40LTIuMy0uNG04LjUtNy42aDIuMnYxNi40aC0yLjJ6bTExLjYgNS43aDIuNGwtNy42IDE2LjJoLTIuNGwzLjctNy44LTQuMi04LjVoMi41bDIuOSA2LjF6bTM4LjYtMzEuM2gxNi4zdjQuMXEwIDIuNS0xLjIgNC0xLjIgMS40LTMuMyAxLjQtMS41IDAtMi41LS43dC0xLjYtMnEtLjUuODAxLTEuNCAxLjUtLjkuODAxLTMgMi4xbC0yLjIgMS40LTEuMS45di0yLjhsMS0uNy4yLS4yLjctLjQgMS4yLS44IDEuMi0uOCAxLjctMS4zLjgtMXEuMy0uNi4zLTEuN3YtLjZoLTcuMXptMTQuMyAzdi0uNmgtNS4xdi45cTAgMS44LjMgMi40LjMuNy45IDEgLjYuNCAxLjQuNHQxLjQtLjRxLjYtLjM5OS45LTEuMi4yLS42OTkuMi0yLjR6bS05LjEgMjAuNHYtNy42cS0xLjYuMS0yLjUgMS0xIDEtMSAyLjUgMCAyLjEgMS40IDRoLTJxLS43LTEtMS0ydC0uMy0yLjNxMC0xLjguNy0yLjlhOC44IDguOCAwIDAgMSAyLTEuOHExLjMtLjYgMi45LS42IDIuNSAwIDQgMS40IDEuNSAxLjQwMSAxLjUgMy42IDAgMi4xLTEuNSAzLjR0LTQgMS4zem0xLjItNy41djUuNHExLjMgMCAyLS44LjctLjY5OS43LTEuOCAwLTEuMi0uNy0xLjl0LTItMXptLTExLjkgOS43aDE2LjJ2My43cTAgMi45MDEtMS40IDQuNXQtNCAxLjZxLTIuNCAwLTQtMS42LTEuNS0xLjUtMS41LTMuOCAwLTEgLjQtMi4zaC01Ljd6bTE0LjIgMy42di0xLjVoLTYuNnEtLjUgMS0uNSAyIDAgMS42IDEgMi41IDEgMSAyLjcgMSAxIDAgMS45LS41YTIuNiAyLjYgMCAwIDAgMS4yLTEuMnEuMy0uOC4zLTIuM203LjYgOC41djIuMmgtMTYuM3YtMi4yem0tMSA2LjRxMCAuNTAxLS40LjktLjM5OS40LS45LjQtLjUgMC0uOS0uNC0uMy0uNC0uMy0xIDAtLjQuMy0uOC40LS40IDEtLjQuNCAwIC44LjR0LjQuOW0tNC42LTF2MmgtMTAuN3YtMnptLTguMiAxMy4yaC0yLjFxLS42LTEuNi0uNi0zLjEgMC0yLjUgMS41LTQgMS41LTEuNiA0LTEuNnQ0IDEuNXExLjYgMS41IDEuNiAzLjlsLS4xIDEuNS0uNiAxLjZoLTIuM3ExLTEuNTk5IDEtMyAwLTEuNC0xLTIuNC0xLS45LTIuNS0uOS0xLjcgMC0yLjcgMXQtMSAyLjdxMCAxLjIuOCAyLjhtMy45IDkuMmgtNC40cS0uNiAwLS42LjR0LjYgMS4yaC0xLjNsLS43LTEuMi0uMS0uOXEwLTEuNCAxLTEuNi0xLTEuNC0xLTIuOSAwLTEuMS43LTEuOWEyLjggMi44IDAgMCAxIDEuOS0uN3ExIDAgMS44Ljd0MS4zIDJsMSAyLjhoLjVxMiAwIDItMiAwLTEuNy0xLjktMy4zaDIuNHExLjQgMS4yIDEuNCAzLjUgMCAxLjgtLjkgMi44LS4zLjQtLjguNy0uNC4zLTEgLjNsLTEuOC4xem0tNC4zLTJoMy4ybC0uNi0xLjVxLS40LTEuMS0uOC0xLjYtLjUtLjQtMS4xLS40LS43IDAtMS4xLjR0LS40IDEuMXEwIDEgLjggMm02LjkgNCA0IDRoLTIuM3YzLjRoLTEuOXYtMy40aC01LjNxLTEuOCAwLTEuOCAxLjUgMCAxLjIuOCAyLjVoLTJhNS42IDUuNiAwIDAgMS0uNy0yLjdxMC0xLjUuOC0yLjVsLjYtLjUuOC0uMyAyLS4xaDQuOHYtMmguMnptLTMuOCAxOC44di03LjdxLTEuNi4xLTIuNSAxLTEgMS0xIDIuNSAwIDIuMSAxLjQgNGgtMnEtLjctMS0xLTJ0LS4zLTIuM3EwLTEuOC43LTIuOWE3LjIgNy4yIDAgMCAxIDItMS43cTEuMy0uNyAyLjktLjcgMi41IDAgNCAxLjQgMS41IDEuNDAxIDEuNSAzLjYgMCAyLjItMS41IDMuNC0xLjUgMS4zLTQgMS4zaC0uMnptMS4yLTcuNnY1LjRxMS4zIDAgMi0uOC43LS42LjctMS44IDAtMS4xLS43LTEuOS0uNy0uNy0yLTF6IiBmaWxsPSIjMzI5OUNDIi8+PHBhdGggZD0iTTMxMC41IDI1OS4zdjEwMi41IiBzdHJva2Utd2lkdGg9IjQiIHN0cm9rZT0iIzMyOTlDQyIvPjxwYXRoIGQ9Im0zMDUuNjk5IDM2MS44IDQuOCAxMi44IDQuOC0xMi44eiIgZmlsbD0iIzMyOTlDQyIvPjxwYXRoIGQ9Im0zMDUuNjk5IDM2MS44IDQuOCAxMi44IDQuOC0xMi44eiIgc3Ryb2tlLXdpZHRoPSI0IiBzdHJva2U9IiMzMjk5Q0MiLz48cGF0aCBkPSJNMTk3LjYgNDJoMzAwIiBzdHJva2Utd2lkdGg9IjQiIHN0cm9rZT0iIzVBNTk1NSIvPjxwYXRoIGQ9Ik0xOTguNCAyNTMuM2gzMDAiIHN0cm9rZS13aWR0aD0iNCIgc3Ryb2tlPSIjMzI5OUNDIi8+PHBhdGggZD0iTTE5OC40IDM4NC42aDMwMCIgc3Ryb2tlLXdpZHRoPSI0IiBzdHJva2U9IiM1QkE4MzEiLz48cGF0aCBkPSJtMzgxLjQgMzc4LjIuNS0xMDIuNSIgc3Ryb2tlLXdpZHRoPSI0IiBzdHJva2UtZGFzaGFycmF5PSI4IDgiIHN0cm9rZT0iIzJBODZDMCIvPjxwYXRoIGQ9Im0zODYuNyAyNzUuNy00LjctMTIuOC00LjkgMTIuN3oiIGZpbGw9IiMyQTg2QzAiLz48cGF0aCBkPSJtMzg2LjcgMjc1LjctNC43LTEyLjgtNC45IDEyLjd6IiBzdHJva2Utd2lkdGg9IjQiIHN0cm9rZT0iIzJBODZDMCIvPjxwYXRoIGQ9Ik0xOTcgNDczLjVjMC0uOC0yLjUtMS40LTUuNi0xLjRIMjcuN2MtMyAwLTUuNi42LTUuNiAxLjR2NDIuMWMwIC44IDIuNSAxLjUgNS42IDEuNWgxNjMuN2MzLjEgMCA1LjctLjcgNS43LTEuNXYtNDIiIGZpbGw9IiM1Q0E4MzEiLz48cGF0aCBkPSJtNjQuNyA0OTUuMi0xLjgtMXEtMS43LTEtMi40LTJ0LS43LTIuM3EwLTIgMS40LTMuMiAxLjMtMS4yIDMuNC0xLjIgMi4xMDEgMCAzLjggMS4ydjIuNnEtMS44LTEuNy0zLjgtMS43LTEuMSAwLTEuOS42LS43LjUtLjcgMS4zdC41IDEuNHEuNi43IDEuOCAxLjRsMS44IDFxMyAxLjggMyA0LjYgMCAyLTEuNCAzLjItMS4zIDEuMi0zLjQgMS4yLTIuNCAwLTQuNC0xLjV2LTNxMS45IDIuNCA0LjQgMi40IDEuMDAxIDAgMS44LS42dC44LTEuNXEwLTEuNS0yLjItMi45bTE1LjkgMS44SDczcTAgMS41IDEgMi40dDIuNS45cTIuMDAxIDAgMy45LTEuM3YycS0xIC43LTIgMXQtMi4zLjNxLTEuNyAwLTIuOC0uOC0xLjEtLjctMS44LTItLjctMS4yLS43LTIuOCAwLTIuNSAxLjQtNCAxLjQwMS0xLjYgMy43LTEuNiAyLjEgMCAzLjQgMS41IDEuMzAxIDEuNSAxLjMgNHYuNG0tNy42LTEuNGg1LjRxMC0xLjItLjctMi0uNjk5LS42LTEuOC0uNi0xLjIgMC0yIC43LS42OTkuNy0uOSAyem0xOCA0djIuMXEtMS43LjYtMy4yLjYtMi41IDAtNC0xLjV0LTEuNS00cTAtMi42IDEuNC00LjEgMS41LTEuNiAzLjktMS42LjgwMSAwIDEuNS4yLjYuMSAxLjYuNnYyLjJxLTEuNTk5LTEtMy0xLTEuNCAwLTIuNCAxLS45IDEtLjkgMi42IDAgMS43IDEgMi42IDEgMSAyLjcgMSAxLjIgMCAyLjgtLjd6bTcuNS04LjNxMi41IDAgNC4wMDEgMS42IDEuNyAxLjYgMS43IDQgMCAyLjMtMS42IDMuOS0xLjcwMSAxLjUtNC4yIDEuNS0yLjQgMC00LTEuNi0xLjctMS41LTEuNy0zLjkgMC0yLjMgMS43LTQgMS42LTEuNSA0LjEtMS41bS0uMSAycS0xLjUgMC0yLjUgMXQtMSAyLjUgMSAyLjUgMi42IDEgMi41MDEtMXExLTEgMS0yLjUgMC0xLjYtMS0yLjZ0LTIuNi0xem0xMC4zMDEtMnYxLjRxMS40LTEuNiAzLjItMS42IDEgMCAyIC41LjguNiAxLjIgMS41LjUuOS41IDIuOHY2LjJoLTIuMVY0OTZxMC0xLjctLjUtMi40LS42LS43LTEuNy0uNy0xLjUgMC0yLjYgMS41djcuN2gtMi4ydi0xMC44em0xNy4xLTUuNmgyLjF2MTYuNGgtNC42cS0yLjMgMC0zLjgtMS41LTEuNC0xLjUtMS40LTQgMC0yLjQgMS41LTQgMS41LTEuNSAzLjgtMS41IDEuMSAwIDIuNC41em0wIDE0LjZ2LTYuOXEtMS0uNS0yLS41LTEuNiAwLTIuNiAxLTEgMS4xLTEgMi45IDAgMS43LjkgMi42LjUuNSAxIC43LjYuMiAyIC4yem0xMS44LTQuN3Y0LjZxMCAuNi4zLjYuNCAwIDEuMy0uNnYxLjNsLTEuMi42cS0uNC4yLTEgLjItMS4zIDAtMS41LTEtMS40MDEgMS0zIDEtMSAwLTEuOC0uOC0uOC0uNy0uOC0xLjggMC0xIC44LTEuOS43LS44IDItMS4ybDIuOC0xdi0uNXEwLTItMi0yLTEuNyAwLTMuNCAxLjh2LTIuM3ExLjI5OS0xLjUgMy42LTEuNSAxLjggMCAyLjggMSAuMzk5LjIuNi43bC40IDF2MS44em0tMi4xIDQuNHYtMy4ybC0xLjUuNXEtMSAuNS0xLjUgMS0uNC4zLS40IDF0LjQgMXEuNC41IDEgLjUgMS4xIDAgMi0uOG03LjktOC43djIuNS0uMnExLjYtMi41IDMuMi0yLjUgMS4yIDAgMi41IDEuMmwtMS4xIDJxLTEuMi0xLjEtMi4xLTEuMS0xIDAtMS44IDEtLjcgMS0uNyAyLjN2NS42aC0yLjJ2LTEwLjh6bTE0LjUgMGgyLjRsLTcuNiAxNi4zaC0yLjRsMy42LTcuOC00LjEtOC41aDIuNGwzIDYuMSAyLjctNnoiIGZpbGw9IiNGRkZGRkUiLz48cGF0aCBkPSJNMTk4LjQgNDk1aDMwMCIgc3Ryb2tlLXdpZHRoPSI0IiBzdHJva2U9IiM1QkE4MzEiLz48cGF0aCBkPSJNNDE3IDI2OS43aDE2LjN2NC4xcTAgMi41LTEuMiA0LTEuMiAxLjQtMy4zIDEuNC0xLjUgMC0yLjUtLjd0LTEuNi0ycS0uNS44MDEtMS40IDEuNS0uOS44MDEtMyAyLjFsLTIuMiAxLjQtMS4xLjl2LTIuOGwxLS43LjItLjIuNy0uNCAxLjItLjggMS4zLS44IDEuNi0xLjMuOC0xcS4zLS42LjMtMS43di0uNkg0MTd6bTE0LjMgM3YtLjZoLTUuMXYuOXEwIDEuOC4zIDIuNC4zLjcuOSAxIC42LjQgMS40LjR0MS40LS40cS42LS4zOTkuOS0xLjIuMi0uNjk5LjItMi40em0tOS4xIDIwLjR2LTcuNnEtMS42LjEtMi41IDEtMSAxLTEgMi41IDAgMi4xIDEuNCA0aC0ycS0uNy0xLTEtMnQtLjMtMi4zcTAtMS44LjctMi45LjgtLjk5OSAyLTEuOCAxLjMtLjYgMy0uNiAyLjQgMCAzLjkgMS40IDEuNiAxLjQwMSAxLjYgMy42IDAgMi4xLTEuNSAzLjR0LTQgMS4zem0xLjItNy41djUuNHExLjMgMCAyLS44LjctLjY5OS43LTEuOCAwLTEuMi0uNy0xLjl0LTItMXptLTExLjkgOS43aDE2LjJ2My43cTAgMi45MDEtMS40IDQuNXQtNCAxLjZxLTIuNCAwLTQtMS42LTEuNS0xLjUtMS41LTMuOCAwLTEgLjQtMi4zaC01Ljd6bTE0LjIgMy42di0xLjVoLTYuNnEtLjUgMS0uNSAyIDAgMS42IDEgMi41IDEuMSAxIDIuNyAxIDEgMCAxLjktLjVhMi42IDIuNiAwIDAgMCAxLjItMS4ycS4zLS44LjMtMi4zbTcuNiA4LjV2Mi4ySDQxN3YtMi4yem0tMSA2LjRxMCAuNTAxLS40LjktLjQuNC0uOS40dC0uOS0uNHEtLjMtLjQtLjMtMSAwLS40LjMtLjguNC0uNCAxLS40LjQgMCAuOC40dC40LjltLTQuNi0xdjJINDE3di0yem0tOC4yIDEzLjJoLTIuMXEtLjYtMS42LS42LTMuMSAwLTIuNSAxLjUtNCAxLjUtMS42IDQtMS42dDQgMS41cTEuNyAxLjUgMS43IDMuOSAwIC44MDEtLjIgMS41bC0uNiAxLjZoLTIuM3ExLTEuNTk5IDEtMyAwLTEuNC0xLTIuNC0xLS45LTIuNS0uOS0xLjcgMC0yLjcgMXQtMSAyLjdxMCAxLjIuOCAyLjhtMy45IDkuMkg0MTlxLS42IDAtLjYuNHQuNiAxLjJoLTEuM2wtLjctMS4yLS4xLS45cTAtMS40IDEtMS42LTEtMS40LTEtMi45IDAtMS4xLjctMS45LjgtLjcgMi0uNyAxIDAgMS43LjcuOC43IDEuMyAybDEgMi44aC41cTIgMCAyLTIgMC0xLjctMS44LTMuM2gyLjNxMS41IDEuMiAxLjUgMy41IDAgMS44LTEgMi44bC0uNy43cS0uNS4zLTEgLjNsLTEuOS4xem0tNC4zLTJoMy4ybC0uNi0xLjVxLS40LTEuMS0uOC0xLjYtLjUtLjQtMS4xLS40LS43IDAtMS4xLjR0LS40IDEuMXEwIDEgLjggMm02LjkgNCA0IDRoLTIuM3YzLjRoLTEuOXYtMy40aC01LjNxLTEuOCAwLTEuOCAxLjUgMCAxLjIuOCAyLjVoLTJhNS42IDUuNiAwIDAgMS0uNy0yLjdxMC0xLjUuOC0yLjVsLjYtLjUuOC0uMyAyLS4xaDQuOHYtMmguMnptLTMuOCAxOC44di03LjdxLTEuNi4xLTIuNSAxLTEgMS0xIDIuNSAwIDIuMSAxLjQgNGgtMnEtLjctMS0xLTJ0LS4zLTIuM3EwLTEuOC43LTIuOWE3LjEgNy4xIDAgMCAxIDItMS43cTEuMy0uNyAzLS43IDIuNCAwIDMuOSAxLjQgMS42IDEuNDAxIDEuNiAzLjYgMCAyLjItMS41IDMuNC0xLjUgMS4zLTQgMS4zaC0uM3ptMS4yLTcuNnY1LjRxMS4zIDAgMi0uOC43LS42LjctMS44IDAtMS4xLS43LTEuOS0uNy0uNy0yLTF6IiBmaWxsPSIjMzI5OUNDIi8+PHBhdGggZD0iTTQwMy41IDI1OS4zIDQwMiA0NzQuMiIgc3Ryb2tlLXdpZHRoPSI0IiBzdHJva2U9IiMzMjk5Q0MiLz48cGF0aCBkPSJtMzk3LjMwMSA0NzQuMiA0LjcgMTIuOCA1LTEyLjh6IiBmaWxsPSIjMzI5OUNDIi8+PHBhdGggZD0ibTM5Ny4zMDEgNDc0LjIgNC43IDEyLjggNS0xMi44eiIgc3Ryb2tlLXdpZHRoPSI0IiBzdHJva2U9IiMzMjk5Q0MiLz48cGF0aCBkPSJtMjE1LjAwMSA4My41LTguMiAxLjd2MS4xbDUuMyAxLjUtNS4zIDEuNXYxLjJjMi43LjYgNS41IDEgOC4yIDEuNHYtMS4yYy0xIDAtMS45IDAtNi41LS44bDUuOC0xLjd2LS44bC01LjktMS40IDYtMS4yaC43di0xLjN6bTAgMTAuNWgtOC4ydjEuM2g0Yy41IDAgMSAwIDIgLjYgMS4xLjggMS4zIDEuNyAxLjMgMi4zIDAgLjctLjMgMS4xLS42IDEuNGwtLjQuMyAxLjIuNmEzIDMgMCAwIDAgMS0yLjJjMC0xLjItLjctMi40LTEuOC0zaDEuNXptMCA5LjJoLTF2MmgtNi4xVjEwM2gtMXY1LjNoMXYtMmg3LjJ2LTMuMnptMy42IDIuNmMwLS41LS40LTEtLjktMWEuOTk3Ljk5NyAwIDAgMC0xIDFjMCAuNS41IDEgMSAxczEtLjUgMS0xem0tMS4zIDcuOC0yLjMtLjF2LTJoLTF2MmMtMS40LS4yLTIuOC0uMi00LjItLjItLjggMC0xLjYgMC0yLjMuNC0uNS40LS44IDEtLjggMiAwIC45LjQgMS44LjkgMi41bDEtLjRjLS41LS43LS43LTEuMy0uNy0xLjggMC0uNi4zLTEuMyAxLjMtMS40aDEuNmwzLjIuMXYyLjdoMXYtMi43bDIgLjJjLjIgMCAuMy4yLjUuMXptLTIuMSAxMC4zYzAtMi0xLjQtMy44LTQuNC0zLjgtMi43IDAtNC4yIDEuNy00LjIgNGE0IDQgMCAwIDAgMS4zIDIuOWwuNy0uN2MtLjYtLjYtMS0xLjQtMS0yLjIgMC0xIC43LTIuNyAzLjItMi44djUuOWgxLjVjMi4yLS41IDMtMiAzLTMuM3ptLTMuNS0yLjVjMiAuMiAyLjUgMS41IDIuNSAyLjRhMiAyIDAgMCAxLTIuNSAyem02LjQgMTEuOGMwLTEuNy0xLjItNC4yLTUuNy00LjItNC40IDAtNS44IDIuNC01LjggNC4yIDAgMS40LjcgMi42IDEuOSAzLjNsLjYtMWEyLjc5NiAyLjc5NiAwIDAgMS0xLjQtMi4yYzAtMS42IDEuNy0zLjEgNC44LTMuMSAzIDAgNC42IDEuNCA0LjYgMyAwIC45LS41IDEuNy0xLjMgMi4xbC0uMi4xaC0uM2wuNiAxLjNjMS40LS42IDIuMi0yIDIuMi0zLjVtLTcuMiAxMi4zYzIuOCAwIDQuMy0xLjggNC4zLTMuNiAwLTIuMS0xLjgtNC00LjMtNHMtNC4zIDEuOS00LjMgNGMwIDEuOSAxLjYgMy42IDQuMyAzLjZtMy4yLTMuN2MwIDEuMi0xIDIuNC0zLjMgMi40LTIgMC0zLTEuMi0zLTIuNCAwLTEuMyAxLjItMi41IDMuMi0yLjVzMy4xIDEuMiAzLjEgMi41bS03LjMgNS42djEuNGg0LjhjLjUgMCAxIDAgMS40LjQuNC4zIDEuMSAxIDEuMSAyIDAgLjMtLjIuOC0uNSAxLS41LjUtMS4yLjUtMS44LjVoLTV2MS4zaDVjLjYgMCAxLjMgMCAyLS4zIDEtLjQgMS40LTEuMyAxLjQtMi4yIDAtMS4xLS43LTIuMS0xLjYtMi43aDEuNHYtMS40em02LjkgMTZjMS0uNiAxLjUtMS43IDEuNS0zIDAtMi41LTEuOC00LjItNC4zLTQuMi0yLjQgMC00LjMgMS43LTQuMyA0IDAgMS4yLjUgMi4zIDEuMyAzLjFsLjktLjdhMyAzIDAgMCAxLTEtMi4yYzAtMS42IDEuMy0yLjggMy4zLTIuOCAxLjggMCAzIDEuMiAzIDIuNyAwIDEuNC0xIDItMSAyLjFsLS41LjEgMSAxem0xLjUgNS41YzAtMi0xLjQtMy44LTQuNC0zLjgtMi43IDAtNC4yIDEuNy00LjIgNGE0IDQgMCAwIDAgMS4zIDIuOWwuNy0uN2MtLjYtLjYtMS0xLjQtMS0yLjIgMC0xIC43LTIuNyAzLjItMi44djUuOWgxLjVjMi4yLS41IDMtMiAzLTMuM3ptLTMuNS0yLjVjMiAuMiAyLjUgMS41IDIuNSAyLjRhMiAyIDAgMCAxLTIuNSAyem0zLjMgOC42aC04LjJ2MS4zaDRjLjUgMCAxIDAgMiAuNiAxLjEuOCAxLjMgMS43IDEuMyAyLjMgMCAuNy0uMyAxLjEtLjYgMS40bC0uNC4zIDEuMi42YTMgMyAwIDAgMCAxLTIuMmMwLTEuMi0uNy0yLjQtMS44LTNoMS41em0tOC4yIDguNXYxLjNoNC44Yy41IDAgMSAwIDEuNC40LjQuMyAxLjEgMS4xIDEuMSAyIDAgLjQtLjIuOC0uNSAxLS41LjUtMS4yLjUtMS44LjVoLTV2MS4zaDVjLjYgMCAxLjMgMCAyLS4zIDEtLjQgMS40LTEuMiAxLjQtMi4ycy0uNy0yLjEtMS42LTIuN2gxLjR2LTEuM3ptNi42IDEzLjFjLjYgMCAxLS41IDEtMSAwLS43LS40LTEuMS0xLTEuMWEuOTk3Ljk5NyAwIDAgMC0xIDFjMCAuNi40IDEuMSAxIDEuMW0tNS43IDBjLjUgMCAxLS41IDEtMSAwLS43LS41LTEuMS0xLTEuMWEuOTk3Ljk5NyAwIDAgMC0xIDFjMCAuNi40IDEuMSAxIDEuMW0tMTUuNy0xMzEuOGgtMXYuNGMwIC4zIDAgLjgtLjQgMS4yLS40LjMtMSAuNC0xLjcuNGgtMS44Yy0uNiAwLTEuOSAwLTIuNiAxLS42LjgtLjUgMS43LS41IDIuOHYuNmgxdi0uNmMwLS44IDAtMS4zLjMtMS44LjQtLjcgMS4yLS44IDEuOC0uOGgxLjVjMiAwIDIuNi0uNyAyLjgtMS40LjMuNS43IDEgMS4yIDEuMy41LjIgMSAuMiAxLjUuMmgxLjNjLjMgMCAxLjIgMCAxLjYuNy4zLjUuMyAxIC4zIDEuOHYuN2gxdi0uNmMwLTEgMC0yLjEtLjctMy0uOC0uOC0xLjgtLjktMi41LS45aC0xLjFjLS41IDAtMS4xIDAtMS42LS40LS40LS40LS40LS45LS40LTEuMnptMyAxNy40LTguMiAxLjZWODVsNS4zIDEuNC01LjMgMS42djEuMmw4LjIgMS40di0xLjJjLTEgMC0xLjkgMC02LjUtLjhsNS44LTEuN1Y4NmwtNS45LTEuNSA2LTEuMWguN3YtMS4zem0tMS42IDE0LjFjLjYgMCAxLS41IDEtMS4xcy0uNC0xLTEtMWExIDEgMCAwIDAtMSAxYzAgLjYuNCAxIDEgMXptLTUuNyAwYy41IDAgMS0uNSAxLTEuMWExLjAwMiAxLjAwMiAwIDAgMC0xLjcwNy0uNzA3IDEgMSAwIDAgMC0uMjkzLjcwN2MwIC42LjQgMSAxIDF6bTEwIDE5LjdjLjggMCAxLjEtLjQgMS4xLS44IDAtLjMtLjMtLjctMS0uN2gtMS4xbC0xLS4xLTEuMi0uNC0uMyAxIDEuMi40YTcgNyAwIDAgMCAyLjMuNm0wLTNjLjggMCAxLjEtLjUgMS4xLS45IDAtLjMtLjMtLjctMS0uN2gtMS4xYTMgMyAwIDAgMS0xLS4xbC0xLjItLjQtLjMgMSAxLjIuNGMxLjMuNSAxLjguNiAyLjMuNnptLTEwLjkgNS42djEuMmg1LjVjLjQgMCAuOCAwIDEuMi4yLjUuMy43LjcuNyAxcy0uMS42LS42LjhoLTYuOHYxLjNoNS41Yy40IDAgLjcgMCAxLjMuMy4yLjIuNy41LjcgMSAwIC4yLS4yLjUtLjUuNi0uMy4yLS44LjEtMS4yLjFoLTUuOHYxLjNoNS45Yy42IDAgMS4zIDAgMS45LS40LjUtLjMuNi0uOC42LTEuMmEyIDIgMCAwIDAtMS4xLTEuOWMuNi0uMSAxLjEtLjcgMS4xLTEuNHMtLjQtMS40LTEtMS43aC44di0xLjJ6bTcuMiA5LjktLjcuN2MuNy42LjkgMS42LjkgMi4zIDAgMS0uNCAxLjUtLjggMS43LS41LjMtMSAuMy0xLjQuM2gtLjN2LS4zYzAtMS4yIDAtMi41LS40LTMuNS0uNS0xLjMtMS40LTItMi4zLTItMS4zIDAtMi40IDEuMS0yLjQgMi44YTUgNSAwIDAgMCAxLjEgM2gtLjl2MS4yaDUuMWMuNyAwIDEuMyAwIDItLjQuOS0uNSAxLjMtMS42IDEuMy0yLjhhNCA0IDAgMCAwLS4yMzgtMS42MTUgNCA0IDAgMCAwLS44NjItMS4zODV6bS0zLjMgNWgtLjZjLS40IDAtMSAwLTEuNS0uNS0uMy0uMy0xLTEuMS0xLTIuMiAwLTEgLjctMS43IDEuNC0xLjcuNiAwIDEuMy40IDEuNiAxLjR2M3ptNC4zIDQuNmgtMXYzLjFoLTYuOGEzIDMgMCAwIDEtMS40LS4yIDIgMiAwIDAgMS0xLTEuN2MwLTEgLjctMS41LjgtMS42bC4zLS4xLTEtLjlhMyAzIDAgMCAwLTEuMiAyLjVjMCAxLjIuNSAyLjQgMS42IDMgLjcuMyAxLjQuMyAyIC4zaDcuOHYtNC40em0zLjYgMy44YzAtLjYtLjQtMS0uOS0xLS4yLjA2Ni0uMzc0LjE5My0uNDk4LjM2M2ExLjAwNSAxLjAwNSAwIDAgMCAwIDEuMTczYy4xMjQuMTcxLjI5OC4yOTguNDk4LjM2NC41IDAgMS0uNCAxLTF6bS03LjcgMTEuM2MyLjggMCA0LjMtMS44IDQuMy0zLjcgMC0yLjEtMS44LTMuOS00LjMtMy45cy00LjMgMS44LTQuMyAzLjggMS42IDMuOCA0LjMgMy44bTMuMi0zLjhjMCAxLjItMSAyLjQtMy4zIDIuNC0yIDAtMy0xLjEtMy0yLjMgMC0xLjMgMS4yLTIuNSAzLjItMi41czMuMSAxLjEgMy4xIDIuNG0uOSA2LjJoLTguMnYxLjNoNGMuNSAwIDEgMCAyIC42IDEuMS44IDEuMyAxLjcgMS4zIDIuMyAwIC43LS4zIDEuMS0uNiAxLjRsLS40LjMgMS4yLjZhMyAzIDAgMCAwIDEtMi4yYzAtMS4yLS43LTIuNC0xLjgtM2gxLjV6bTAgOS4xaC0xdjJoLTYuMXYtMmgtMXY1LjNoMXYtMmg3LjJ2LTMuM3ptMy42IDIuN2MwLS41LS40LTEtLjktMWEuOTk3Ljk5NyAwIDAgMC0xIDFjMCAuNS41IDEgMSAxczEtLjUgMS0xem0tMS4zIDcuOC0yLjMtLjF2LTJoLTF2MmwtNC4yLS4zYy0uOCAwLTEuNiAwLTIuMy41LS41LjQtLjggMS0uOCAxLjkgMCAxIC40IDIgLjkgMi42bDEtLjRjLS41LS43LS43LTEuMy0uNy0xLjggMC0uNi4zLTEuMyAxLjMtMS40aDEuNmwzLjIuMXYyLjdoMXYtMi43bDIgLjJjLjIgMCAuMy4yLjUuMXptLTIuMyA2LjQtOC4yIDMuNC0uNS0uM2MtLjQtLjItLjctLjMtMS0uNi0uNC0uMy0uNS0uNy0uNS0xLjEgMC0uNi40LTEgLjQtMWwuNC0uMS0xLjItLjdjLS41LjUtLjcgMS4xLS43IDEuOHMuMyAxLjUuOSAyYy40LjQuOC42IDEuMy44bDYuOCAyLjUgMi40Ljh2LTEuM2wtMi4yLS42LTQuNC0xLjYgNi0yLjRoLjV6bTIuNyAxNS40Yy44IDAgMS4xLS41IDEuMS0uOSAwLS4zLS4zLS44LTEtLjhsLTEuMS4yLTEtLjItMS4yLS40LS4zIDEgMS4yLjRhNyA3IDAgMCAwIDIuMy42em0wLTMuMmMuOCAwIDEuMS0uNCAxLjEtLjggMC0uMy0uMy0uNy0xLS43aC0xLjFhMyAzIDAgMCAxLTEtLjFsLTEuMi0uNC0uMyAxIDEuMi40YzEuMy41IDEuOC42IDIuMy42bS01LjcgMjIuMXYtLjRjMC0uMyAwLS44LjMtMS4yLjUtLjQgMS4xLS41IDEuNi0uNWgxLjJjLjcgMCAxLjcgMCAyLjUtLjguOC0uOS43LTIgLjctM3YtLjVoLTF2LjZjMCAuOCAwIDEuMy0uMyAxLjgtLjQuNy0xLjMuNy0xLjYuN2gtMS40Yy0uNCAwLTEgMC0xLjUuMi0uNTIyLjMwMy0uOTQuNzU2LTEuMiAxLjMtLjItLjYtLjktMS41LTIuOC0xLjVoLTEuNWMtLjYgMC0xLjQgMC0xLjgtLjctLjQtLjUtLjMtMS0uMy0xLjh2LS42aC0xdi42YzAgMS4xIDAgMiAuNSAyLjguNyAxIDIgMSAyLjYgMWgxLjhjLjggMCAxLjMuMSAxLjcuNC4zLjQuMy45LjMgMS4ydi40aDEuMiIgZmlsbD0iIzMyOTlDQyIvPjxwYXRoIGQ9Ik0zODEuNiAyNDguNlY2NSIgc3Ryb2tlLXdpZHRoPSI0IiBzdHJva2U9IiMzMjk5Q0MiLz48cGF0aCBkPSJtMzg2LjQwMSA2NS00LjgtMTIuOC00LjggMTIuOHoiIGZpbGw9IiMzMjk5Q0MiLz48cGF0aCBkPSJtMzg2LjQwMSA2NS00LjgtMTIuOC00LjggMTIuOHoiIHN0cm9rZS13aWR0aD0iNCIgc3Ryb2tlPSIjMzI5OUNDIi8+PHBhdGggZD0iTTM4Ny4yOTkgOTkuOGgxNi40djQuMXEwIDIuNS0xLjIgNC0xLjMgMS40LTMuNCAxLjQtMS40IDAtMi40LS43dC0xLjYtMnEtLjUuNjk5LTEuNCAxLjUtLjkuNy0zLjEgMmwtMi4xIDEuNS0xLjIuOHYtMi44bDEuMS0uNy4yLS4xLjYtLjUgMS4yLS43IDEuMy0uOCAxLjYtMS4zLjktMS4xcS4yLS41LjItMS42di0uNmgtN3YtMi40em0xNC40IDN2LS42aC01LjJ2LjhxMCAxLjguMyAyLjUuMy42IDEgMSAuNi40IDEuNC40LjcgMCAxLjQtLjQuNi0uNC44LTEuMi4zLS43LjMtMi40em0tOS4yIDIwLjR2LTcuNnEtMS41IDAtMi40IDEtMSAxLTEgMi41IDAgMi4xIDEuNCAzLjloLTIuMXEtLjctMS0xLTItLjItMS0uMi0yLjIgMC0xLjguNy0zIC43LTEgMi0xLjcgMS4yLS43IDIuOS0uNyAyLjQgMCA0IDEuNCAxLjUgMS40IDEuNSAzLjcgMCAyLjEtMS41IDMuNHQtNCAxLjN6bTEuMy03LjZ2NS41cTEuMy0uMSAyLS44dC43LTEuOHEwLTEuMi0uNy0yLS43LS42LTItLjltLTUuOCA5LjRoMi40YTcuOCA3LjggMCAwIDAtMSAxLjhxLS40IDEtLjQgMS42dC4zIDEuMS44LjUuOC0uM2wuOS0xLjRxMS4xLTIuMDAxIDItMi43LjctLjYgMS43LS42IDEuMiAwIDIgMXQuOCAyLjUtLjkgMy4yaC0ycTEtMS45IDEtMy4xIDAtLjYtLjItMS0uMy0uNC0uNy0uNHQtLjcuNHEtLjQuMy0uOCAxLjJsLS41LjdxLTEuNSAyLjctMy4zIDIuNy0xLjQgMC0yLjItMS0uOS0xLS45LTIuNyAwLTEgLjItMS43bC44LTEuOXptLTYuMiA5LjVoMTYuM3YzLjdxMCAzLTEuNCA0LjUtMS41IDEuNi00IDEuNi0yLjQgMC00LTEuNXQtMS43LTMuOHEwLTEgLjUtMi4zaC01Ljh2LTIuMnptMTQuMyAzLjd2LTEuNWgtNi42cS0uNSAxLS41IDIgMCAxLjYgMSAyLjUgMSAxIDIuNyAxIDEgMCAxLjktLjUuOC0uNCAxLjEtMS4yLjQtLjguNC0yLjNtMiAxMy42cTAgMi41LTEuNiA0LTEuNiAxLjctNCAxLjctMi4zIDAtMy44LTEuNi0xLjYtMS43MDEtMS42LTQuMiAwLTIuNCAxLjYtNCAxLjYtMS43IDQtMS43IDIuMyAwIDMuOCAxLjcgMS42IDEuNiAxLjYgNC4xbS0xLjktLjFxMC0xLjUtMS0yLjV0LTIuNi0xcS0xLjUgMC0yLjUgMXQtMSAyLjYgMSAyLjVxMSAxIDIuNiAxIDEuNSAwIDIuNS0xdDEtMi42bTEuOSAxMC4zaC0xLjRxMS42IDEuNCAxLjYgMy4yIDAgMS0uNSAyLS41LjgtMS40IDEuMi0uOTk5LjUtMyAuNWgtNnYtMi4xaDZxMS43MDEgMCAyLjQtLjUuNy0uNS43LTEuNyAwLTEuNS0xLjUtMi42aC03Ljd2LTIuMmgxMC44em0tMTAuMSA5LjNoMi40bC0xIDEuOXEtLjQgMS0uNCAxLjZ0LjMgMS4xLjguNS44LS4zbC45LTEuM3ExLjEtMi4xIDItMi44LjctLjYgMS43LS42IDEuMiAwIDIgMXQuOCAyLjUtLjkgMy4yaC0ycTEtMS45IDEtMyAwLS43LS4yLTEuMS0uMy0uNC0uNy0uNHQtLjcuNHEtLjQuMy0uOCAxLjJsLS41LjdxLTEuNSAyLjctMy4zIDIuNy0xLjQgMC0yLjItMS0uOS0xLS45LTIuNyAwLTEgLjItMS43bC44LTEuOXptNC41IDE4Ljl2LTcuNXEtMS41IDAtMi40IDEtMSAxLTEgMi41IDAgMiAxLjQgMy45aC0yLjFxLS43LTEtMS0yLS4yLTEtLjItMi4zIDAtMS43LjctMi44LjctMS4xMDEgMi0xLjggMS4yLS43IDIuOS0uNyAyLjQgMCA0IDEuNCAxLjUgMS40IDEuNSAzLjZ0LTEuNSAzLjVxLTEuNSAxLjItNCAxLjJ6bTEuMy03LjV2NS40cTEuMyAwIDItLjd0LjctMS45cTAtMS4xMDEtLjctMS44LS43LS44LTItMSIgZmlsbD0iIzMyOTlDQyIvPjxwYXRoIGQ9Ik0zMTIuMzAxIDM4Ni40Yy0uMSA0Mi4yIDU0LjQgNDguNSA2Ny43IDE2IiBzdHJva2Utd2lkdGg9IjQiIHN0cm9rZT0iIzMyOTlDQyIvPjxwYXRoIGQ9Im0zODQuNjk5IDQwMy4zLTIuNS0xMy41LTcgMTEuOHoiIGZpbGw9IiMzMjk5Q0MiLz48cGF0aCBkPSJtMzg0LjY5OSA0MDMuMy0yLjUtMTMuNS03IDExLjh6IiBzdHJva2Utd2lkdGg9IjQiIHN0cm9rZT0iIzMyOTlDQyIvPjxwYXRoIGQ9Ik0zMjUuNiA0MjIuNGgxLjdsNy4zIDE2LjVoLTIuNEwzMzAgNDM0aC03bC0yIDQuOWgtMi40em0zLjUgOS41LTIuNy02LTIuNCA2aDUuMW02LjkgMTIuNVY0MjhoMy43cTIuOSAwIDQuNSAxLjR0MS42IDRxMCAyLjQtMS41IDQtMS41IDEuNS0zLjggMS41LTEgMC0yLjMtLjR2NS44SDMzNnptMy43LTE0LjNoLTEuNXY2LjZxMSAuNSAyIC41IDEuNSAwIDIuNS0xIDEtLjk5OSAxLTIuNyAwLTEtLjUtMS45LS41MDEtLjgtMS4yLTEuMi0uOC0uMy0yLjMtLjNtOC4zIDE0LjNWNDI4aDMuN3EyLjkgMCA0LjUgMS40dDEuNiA0cTAgMi40LTEuNSA0LTEuNSAxLjUtMy44IDEuNS0xIDAtMi4zLS40djUuOEgzNDh6bTMuNy0xNC4zaC0xLjV2Ni42cTEgLjUgMiAuNSAxLjUgMCAyLjUtMSAxLS45OTkgMS0yLjcgMC0xLS41LTEuOS0uNTAxLS44LTEuMi0xLjItLjgtLjMtMi4zLS4zbTguNS03LjZoMi4xdjE2LjRoLTIuMXptMTEuNiA1LjVoMi40bC03LjYgMTYuNGgtMi40bDMuNy03LjgtNC4yLTguNWgyLjRsMyA2IDIuNy02eiIgZmlsbD0iIzMyOTlDQyIvPjwvc3ZnPg==;" vertex="1" parent="1">
          <mxGeometry x="160" y="160" width="501" height="520" as="geometry" />
        </mxCell>
      </root>
    </mxGraphModel>
  </diagram>
</mxfile>
